{
.appVersion = "3151";
.formatVersion = 3;
axes = (
{
name = Weight;
tag = wght;
},
{
name = Width;
tag = wdth;
},
{
name = Slant;
tag = slnt;
}
);
classes = (
{
code = "zero one two three four five six seven eight nine ";
name = Num;
},
{
code = "zero.canadian one.canadian two.canadian three.canadian four.canadian five.canadian six.canadian seven.canadian eight.canadian nine.canadian 
";
name = Num_can;
},
{

glyphs = (
{
glyphname = idotless;
lastChange = "2023-01-13 15:28:25 +0000";
layers = (
{
layerId = "D19189FD-F605-4705-8DF9-B27AB1AA0ED8";
shapes = (
{
closed = 1;
nodes = (
(172,0,l),
(289,549,l),
(125,549,l),
(8,0,l)
);
}
);
width = 289;
}
);
note = dotlessi;
unicode = 305;
},
{
glyphname = "acuteFinal-canadian";
lastChange = "2023-01-13 15:28:49 +0000";
layers = (
{
layerId = "D19189FD-F605-4705-8DF9-B27AB1AA0ED8";
shapes = (
{
closed = 1;
nodes = (
(184,357,l),
(426,714,l),
(290,714,l),
(48,357,l)
);
}
);
width = 354;
}
);
metricRight = "=|";
note = uni141F;
unicode = 5151;
},
{
glyphname = "graveFinal-canadian";
kernLeft = mwestleft;
kernRight = mwestright;
lastChange = "2023-01-13 15:28:49 +0000";
layers = (
{
layerId = "D19189FD-F605-4705-8DF9-B27AB1AA0ED8";
shapes = (
{
closed = 1;
nodes = (
(350,357,l),
(246,714,l),
(124,714,l),
(228,357,l)
);
}
);
width = 354;
}
);
metricLeft = "=|acuteFinal-canadian";
metricRight = "=|acuteFinal-canadian";
note = uni1420;
unicode = 5152;
},
{
glyphname = "ringBottomhalfFinal-canadian";
kernLeft = mwestleft;
kernRight = mwestright;
lastChange = "2023-01-13 15:28:49 +0000";
layers = (
{
layerId = "D19189FD-F605-4705-8DF9-B27AB1AA0ED8";
shapes = (
{
closed = 1;
nodes = (
(364,351,o),
(422,409,o),
(442,504,cs),
(487,714,l),
(374,714,l),
(332,518,ls),
(323,477,o),
(304,454,o),
(268,454,cs),
(231,454,o),
(215,477,o),
(225,520,cs),
(266,714,l),
(153,714,l),
(114,529,ls),
(91,421,o),
(143,351,o),
(257,351,cs)
);
}
);
width = 444;
}
);
metricLeft = "ai-canadian";
metricRight = "==|ai-canadian";
note = uni1421;
unicode = 5153;
},
{
glyphname = "ringTophalfFinal-canadian";
lastChange = "2023-01-13 15:28:49 +0000";
layers = (
{
layerId = "D19189FD-F605-4705-8DF9-B27AB1AA0ED8";
shapes = (
{
closed = 1;
nodes = (
(190,357,l),
(232,553,ls),
(241,594,o),
(260,617,o),
(296,617,cs),
(333,617,o),
(349,594,o),
(339,551,cs),
(298,357,l),
(411,357,l),
(450,542,ls),
(473,650,o),
(421,720,o),
(307,720,cs),
(200,720,o),
(142,662,o),
(122,567,cs),
(77,357,l)
);
}
);
width = 444;
}
);
metricLeft = "ai-canadian";
metricRight = "==|ai-canadian";
note = uni1422;
unicode = 5154;
},
{
glyphname = "ringRighthalfFinal-canadian";
kernLeft = mwestleft;
kernRight = mwestright;
lastChange = "2023-01-13 15:28:49 +0000";
layers = (
{
layerId = "D19189FD-F605-4705-8DF9-B27AB1AA0ED8";
shapes = (
{
closed = 1;
nodes = (
(165,357,ls),
(310,357,o),
(392,442,o),
(392,567,cs),
(392,657,o),
(331,714,o),
(230,714,cs),
(153,714,l),
(131,609,l),
(212,609,ls),
(256,609,o),
(277,588,o),
(277,554,cs),
(277,501,o),
(248,462,o),
(181,462,cs),
(100,462,l),
(77,357,l)
);
}
);
width = 378;
}
);
metricLeft = "=|t-canadian";
metricWidth = "t-canadian";
note = uni1423;
unicode = 5155;
},
{
glyphname = "ringFinal-canadian";
kernLeft = mwestleft;
kernRight = mwestright;
lastChange = "2023-01-13 15:28:25 +0000";
layers = (
{
layerId = "D19189FD-F605-4705-8DF9-B27AB1AA0ED8";
shapes = (
{
closed = 1;
nodes = (
(396,369,o),
(470,444,o),
(470,545,cs),
(470,645,o),
(394,720,o),
(291,720,cs),
(187,720,o),
(110,646,o),
(110,545,cs),
(110,444,o),
(185,369,o),
(291,369,cs)
);
},
{
closed = 1;
nodes = (
(244,465,o),
(216,500,o),
(216,545,cs),
(216,589,o),
(244,624,o),
(291,624,cs),
(335,624,o),
(365,589,o),
(365,545,cs),
(365,500,o),
(336,465,o),
(291,465,cs)
);
}
);
width = 456;
}
);
note = uni1424;
unicode = 5156;
},
{
glyphname = "doubleacuteFinal-canadian";
lastChange = "2023-01-13 15:28:49 +0000";
layers = (
{
layerId = "D19189FD-F605-4705-8DF9-B27AB1AA0ED8";
shapes = (
{
closed = 1;
nodes = (
(181,357,l),
(426,714,l),
(293,714,l),
(48,357,l)
);
},
{
closed = 1;
nodes = (
(369,357,l),
(614,714,l),
(481,714,l),
(236,357,l)
);
}
);
width = 542;
}
);
metricLeft = "acuteFinal-canadian";
metricRight = "=|";
note = uni1425;
unicode = 5157;
},
{
glyphname = "doubleshortverticalstrokesFinal-canadian";
kernLeft = mwestleft;
kernRight = mwestright;
lastChange = "2023-01-13 15:28:49 +0000";
layers = (
{
layerId = "D19189FD-F605-4705-8DF9-B27AB1AA0ED8";
shapes = (
{
closed = 1;
nodes = (
(190,357,l),
(266,714,l),
(153,714,l),
(77,357,l)
);
},
{
closed = 1;
nodes = (
(355,357,l),
(431,714,l),
(318,714,l),
(242,357,l)
);
}
);
width = 388;
}
);
metricLeft = "pWestCree-canadian";
metricRight = "pWestCree-canadian";
note = uni1426;
unicode = 5158;
},
{
glyphname = "middledotFinal-canadian";
lastChange = "2023-01-13 15:28:25 +0000";
layers = (
{
layerId = "D19189FD-F605-4705-8DF9-B27AB1AA0ED8";
shapes = (
{
closed = 1;
nodes = (
(190,288,o),
(225,323,o),
(225,367,cs),
(225,411,o),
(190,446,o),
(146,446,cs),
(103,446,o),
(67,411,o),
(67,367,cs),
(67,323,o),
(103,288,o),
(146,288,cs)
);
}
);
width = 245;
}
);
note = uni1427;
unicode = 5159;
},
{
glyphname = "shorthorizontalstrokeFinal-canadian";
kernLeft = mwestleft;
kernRight = mwestright;
lastChange = "2023-01-13 15:28:25 +0000";
layers = (
{
layerId = "D19189FD-F605-4705-8DF9-B27AB1AA0ED8";
shapes = (
{
closed = 1;
nodes = (
(440,488,l),
(465,603,l),
(129,603,l),
(105,488,l)
);
}
);
width = 446;
}
);
metricRight = "=|";
note = uni1428;
unicode = 5160;
},
{
glyphname = "plusFinal-canadian";
kernLeft = mwestleft;
kernRight = mwestright;
lastChange = "2023-01-13 15:28:49 +0000";
layers = (
{
layerId = "D19189FD-F605-4705-8DF9-B27AB1AA0ED8";
shapes = (
{
closed = 1;
nodes = (
(306,377,l),
(331,493,l),
(443,493,l),
(466,601,l),
(353,601,l),
(377,714,l),
(267,714,l),
(243,601,l),
(129,601,l),
(107,493,l),
(220,493,l),
(195,377,l)
);
}
);
width = 447;
}
);
metricLeft = "shorthorizontalstrokeFinal-canadian";
metricRight = "shorthorizontalstrokeFinal-canadian";
note = uni1429;
unicode = 5161;
},
{
glyphname = "downtackFinal-canadian";
kernLeft = mwestleft;
kernRight = mwestright;
lastChange = "2023-01-13 15:28:49 +0000";
layers = (
{
layerId = "D19189FD-F605-4705-8DF9-B27AB1AA0ED8";
shapes = (
{
closed = 1;
nodes = (
(302,357,l),
(355,607,l),
(467,607,l),
(490,714,l),
(153,714,l),
(130,607,l),
(242,607,l),
(189,357,l)
);
}
);
width = 447;
}
);
metricLeft = "shorthorizontalstrokeFinal-canadian";
metricRight = "shorthorizontalstrokeFinal-canadian";
note = uni142A;
unicode = 5162;
},
{
glyphname = "thFinalWoodScree-canadian";
lastChange = "2023-01-13 15:28:49 +0000";
layers = (
{
layerId = "D19189FD-F605-4705-8DF9-B27AB1AA0ED8";
shapes = (
{
closed = 1;
nodes = (
(303,357,l),
(316,414,l),
(425,414,l),
(444,506,l),
(335,506,l),
(347,565,l),
(457,565,l),
(476,657,l),
(367,657,l),
(379,714,l),
(266,714,l),
(254,657,l),
(141,657,l),
(122,565,l),
(234,565,l),
(222,506,l),
(109,506,l),
(90,414,l),
(203,414,l),
(190,357,l)
);
}
);
width = 446;
}
);
metricLeft = "hyphen-canadian";
metricRight = "hyphen-canadian";
note = uni167E;
unicode = 5758;
},
{
glyphname = "ringSmallFinal-canadian";
kernLeft = mwestleft;
kernRight = mwestright;
lastChange = "2023-01-13 15:28:25 +0000";
layers = (
{
layerId = "D19189FD-F605-4705-8DF9-B27AB1AA0ED8";
shapes = (
{
closed = 1;
nodes = (
(315,499,o),
(372,546,o),
(372,614,cs),
(372,681,o),
(315,729,o),
(251,729,cs),
(187,729,o),
(132,681,o),
(132,614,cs),
(132,546,o),
(186,499,o),
(251,499,cs)
);
},
{
closed = 1;
nodes = (
(223,567,o),
(207,588,o),
(207,614,cs),
(207,639,o),
(226,660,o),
(252,660,cs),
(279,660,o),
(298,639,o),
(298,614,cs),
(298,588,o),
(279,567,o),
(252,567,cs)
);
}
);
width = 351;
}
);
note = g725;
unicode = 6366;
},
{
glyphname = "raiseddotFinal-canadian";
kernLeft = mwestleft;
kernRight = mwestright;
lastChange = "2023-01-13 15:28:25 +0000";
layers = (
{
layerId = "D19189FD-F605-4705-8DF9-B27AB1AA0ED8";
shapes = (
{
closed = 1;
nodes = (
(250,571,o),
(286,606,o),
(286,650,cs),
(286,693,o),
(250,729,o),
(207,729,cs),
(163,729,o),
(128,693,o),
(128,650,cs),
(128,606,o),
(163,571,o),
(207,571,cs)
);
}
);
width = 245;
}
);
note = g725;
unicode = 6367;
},
{
glyphname = "plusFinal-canadian.base";
lastChange = "2023-01-13 15:28:49 +0000";
layers = (
{
layerId = "D19189FD-F605-4705-8DF9-B27AB1AA0ED8";
shapes = (
{
closed = 1;
nodes = (
(226,0,l),
(250,116,l),
(363,116,l),
(386,224,l),
(273,224,l),
(297,337,l),
(187,337,l),
(163,224,l),
(49,224,l),
(26,116,l),
(140,116,l),
(115,0,l)
);
}
);
width = 447;
}
);
metricLeft = "shorthorizontalstrokeFinal-canadian";
metricRight = "shorthorizontalstrokeFinal-canadian";
note = uni1429;
},
{
glyphname = "e-canadian";
kernLeft = ecanleft;
kernRight = ecanright;
lastChange = "2023-01-13 15:28:49 +0000";
layers = (
{
anchors = (
{
name = middle_center_can;
pos = (421,470);
},
{
name = top_center_can;
pos = (476,714);
},
{
name = top_left_can;
pos = (243,714);
},
{
name = top_right_can;
pos = (709,714);
}
);
layerId = "D19189FD-F605-4705-8DF9-B27AB1AA0ED8";
shapes = (
{
closed = 1;
nodes = (
(348,0,l),
(819,674,l),
(828,714,l),
(123,714,l),
(115,674,l),
(300,0,l)
);
},
{
closed = 1;
nodes = (
(386,203,l),
(284,614,l),
(260,581,l),
(632,581,l),
(605,614,l),
(329,203,l)
);
}
);
width = 755;
}
);
metricRight = "=|";
note = uni1401;
unicode = 5121;
},
{
glyphname = "i-canadian";
kernLeft = icanleft;
kernRight = icanright;
lastChange = "2023-01-13 15:28:49 +0000";
layers = (
{
anchors = (
{
name = middle_center_can;
pos = (392,275);
},
{
name = top_center_can;
pos = (475,714);
},
{
name = top_left_can;
pos = (243,714);
},
{
name = top_right_can;
pos = (709,714);
}
);
layerId = "D19189FD-F605-4705-8DF9-B27AB1AA0ED8";
shapes = (
{
closed = 1;
nodes = (
(451,714,l),
(-20,40,l),
(-29,0,l),
(676,0,l),
(685,40,l),
(500,714,l)
);
},
{
closed = 1;
nodes = (
(413,511,l),
(515,100,l),
(539,133,l),
(167,133,l),
(194,100,l),
(470,511,l)
);
}
);
width = 755;
}
);
metricLeft = "e-canadian";
metricWidth = "e-canadian";
note = uni1403;
unicode = 5123;
},
{
glyphname = "o-canadian";
kernLeft = ocanleft;
kernRight = ocanright;
lastChange = "2023-01-13 15:28:25 +0000";
layers = (
{
anchors = (
{
name = middle_center_can;
pos = (306,373);
},
{
name = top_center_can;
pos = (459,714);
},
{
name = top_double;
pos = (573,714);
},
{
name = top_left_can;
pos = (231,714);
},
{
name = top_right_can;
pos = (696,714);
}
);
layerId = "D19189FD-F605-4705-8DF9-B27AB1AA0ED8";
shapes = (
{
closed = 1;
nodes = (
(49,0,l),
(678,332,l),
(689,382,l),
(201,714,l),
(162,714,l),
(10,0,l)
);
},
{
closed = 1;
nodes = (
(264,534,l),
(215,547,l),
(497,354,l),
(499,384,l),
(143,195,l),
(189,184,l)
);
}
);
width = 690;
}
);
metricLeft = "nunavuth-canadian";
note = uni1405;
unicode = 5125;
},
{
glyphname = "eeCarrier-canadian";
lastChange = "2023-01-13 15:28:25 +0000";
layers = (
{
layerId = "D19189FD-F605-4705-8DF9-B27AB1AA0ED8";
shapes = (
{
closed = 1;
nodes = (
(49,0,l),
(678,332,l),
(689,382,l),
(201,714,l),
(162,714,l),
(10,0,l)
);
},
{
closed = 1;
nodes = (
(259,534,l),
(225,541,l),
(500,354,l),
(507,387,l),
(152,199,l),
(185,184,l)
);
},
{
closed = 1;
nodes = (
(312,305,l),
(339,432,l),
(285,432,l),
(258,305,l)
);
}
);
width = 690;
}
);
metricLeft = "nunavuth-canadian";
metricRight = "o-canadian";
note = uni1408;
unicode = 5128;
},
{
glyphname = "a-canadian";
kernLeft = acanleft;
kernRight = acanright;
lastChange = "2023-01-13 15:28:50 +0000";
layers = (
{
anchors = (
{
name = middle_center_can;
pos = (417,350);
},
{
name = top_center_can;
pos = (414,714);
},
{
name = top_left_can;
pos = (200,714);
},
{
name = top_right_can;
pos = (652,714);
}
);
layerId = "D19189FD-F605-4705-8DF9-B27AB1AA0ED8";
shapes = (
{
closed = 1;
nodes = (
(684,714,l),
(56,382,l),
(45,332,l),
(532,0,l),
(572,0,l),
(724,714,l)
);
},
{
closed = 1;
nodes = (
(470,180,l),
(519,167,l),
(237,360,l),
(235,330,l),
(591,519,l),
(544,530,l)
);
}
);
width = 690;
}
);
metricRight = "nunavuth-canadian";
note = uni140A;
unicode = 5130;
},
{
glyphname = "ai-canadian";
lastChange = "2023-01-13 15:28:25 +0000";
layers = (
{
layerId = "D19189FD-F605-4705-8DF9-B27AB1AA0ED8";
shapes = (
{
closed = 1;
nodes = (
(297,351,o),
(337,373,o),
(370,422,c),
(341,423,l),
(354,375,o),
(394,351,o),
(456,351,cs),
(554,351,o),
(607,400,o),
(631,512,cs),
(674,714,l),
(568,714,l),
(523,507,ls),
(515,467,o),
(495,448,o),
(462,448,cs),
(427,448,o),
(414,468,o),
(422,510,cs),
(466,714,l),
(361,714,l),
(317,507,ls),
(308,466,o),
(289,448,o),
(256,448,cs),
(222,448,o),
(207,469,o),
(216,510,cs),
(259,714,l),
(153,714,l),
(110,514,ls),
(89,417,o),
(144,351,o),
(238,351,cs)
);
}
);
width = 631;
}
);
metricRight = "=|";
note = uni141C;
unicode = 5148;
},
{
glyphname = "ycreew-canadian";
lastChange = "2023-01-13 15:28:49 +0000";
layers = (
{
layerId = "D19189FD-F605-4705-8DF9-B27AB1AA0ED8";
shapes = (
{
closed = 1;
nodes = (
(428,528,o),
(465,567,o),
(465,625,cs),
(465,682,o),
(427,720,o),
(376,720,cs),
(324,720,o),
(286,682,o),
(286,625,cs),
(286,567,o),
(323,528,o),
(376,528,cs)
);
},
{
closed = 1;
nodes = (
(235,351,o),
(272,390,o),
(272,448,cs),
(272,505,o),
(234,543,o),
(183,543,cs),
(131,543,o),
(93,505,o),
(93,448,cs),
(93,390,o),
(130,351,o),
(183,351,cs)
);
},
{
closed = 1;
nodes = (
(162,403,o),
(149,420,o),
(149,448,cs),
(149,475,o),
(162,491,o),
(183,491,cs),
(203,491,o),
(216,475,o),
(216,448,cs),
(216,420,o),
(203,403,o),
(183,403,cs)
);
},
{
closed = 1;
nodes = (
(355,580,o),
(342,597,o),
(342,625,cs),
(342,652,o),
(355,668,o),
(376,668,cs),
(395,668,o),
(409,652,o),
(409,625,cs),
(409,597,o),
(395,580,o),
(376,580,cs)
);
}
);
width = 438;
}
);
metricRight = "=|";
note = uni141D;
unicode = 5149;
},
{
glyphname = "glottalstop-canadian";
lastChange = "2023-01-13 15:28:25 +0000";
layers = (
{
layerId = "D19189FD-F605-4705-8DF9-B27AB1AA0ED8";
shapes = (
{
closed = 1;
nodes = (
(416,357,l),
(420,378,l),
(328,714,l),
(303,714,l),
(67,378,l),
(63,357,l)
);
},
{
closed = 1;
nodes = (
(322,605,l),
(273,606,l),
(323,407,l),
(346,439,l),
(169,439,l),
(187,407,l)
);
}
);
width = 435;
}
);
metricRight = "=|";
note = uni141E;
unicode = 5150;
},
{
glyphname = "pe-canadian";
kernLeft = ecanleft;
kernRight = ecanright;
lastChange = "2023-01-13 15:28:49 +0000";
layers = (
{
anchors = (
{
name = middle_center_can;
pos = (412,470);
},
{
name = top_center_can;
pos = (475,714);
},
{
name = top_left_can;
pos = (243,714);
},
{
name = top_right_can;
pos = (709,714);
}
);
layerId = "D19189FD-F605-4705-8DF9-B27AB1AA0ED8";
shapes = (
{
closed = 1;
nodes = (
(348,0,l),
(819,674,l),
(828,714,l),
(657,714,l),
(307,202,l),
(403,202,l),
(273,714,l),
(123,714,l),
(115,674,l),
(299,0,l)
);
}
);
width = 755;
}
);
metricLeft = "e-canadian";
metricRight = "e-canadian";
note = uni142F;
unicode = 5167;
},
{
glyphname = "pi-canadian";
kernLeft = icanleft;
kernRight = icanright;
lastChange = "2023-01-13 15:28:25 +0000";
layers = (
{
anchors = (
{
name = middle_center_can;
pos = (393,275);
},
{
name = top_center_can;
pos = (476,714);
},
{
name = top_left_can;
pos = (243,714);
},
{
name = top_right_can;
pos = (709,714);
}
);
layerId = "D19189FD-F605-4705-8DF9-B27AB1AA0ED8";
shapes = (
{
closed = 1;
nodes = (
(451,714,l),
(-20,40,l),
(-29,0,l),
(142,0,l),
(492,512,l),
(396,512,l),
(526,0,l),
(676,0,l),
(685,40,l),
(500,714,l)
);
}
);
width = 756;
}
);
metricLeft = "e-canadian";
metricRight = "e-canadian";
note = uni1431;
unicode = 5169;
},
{
glyphname = "po-canadian";
kernLeft = ocanleft;
kernRight = ocanright;
lastChange = "2023-01-13 15:28:49 +0000";
layers = (
{
anchors = (
{
name = middle_center_can;
pos = (200,375);
},
{
name = top_center_can;
pos = (436,714);
},
{
name = top_double;
pos = (557,714);
},
{
name = top_left_can;
pos = (212,714);
},
{
name = top_right_can;
pos = (674,714);
}
);
layerId = "D19189FD-F605-4705-8DF9-B27AB1AA0ED8";
name = "Thin Slanted";
shapes = (
{
closed = 1;
nodes = (
(29,0,l),
(655,332,l),
(666,382,l),
(180,714,l),
(141,714,l),
(111,572,l),
(461,336,l),
(475,409,l),
(26,174,l),
(-11,0,l)
);
}
);
width = 667;
}
);
metricRight = "o-canadian";
note = uni1433;
unicode = 5171;
},
{
glyphname = "pa-canadian";
kernLeft = acanleft;
kernRight = acanright;
lastChange = "2023-01-13 15:28:49 +0000";
layers = (
{
anchors = (
{
name = middle_center_can;
pos = (435,357);
},
{
name = top_center_can;
pos = (428,714);
},
{
name = top_left_can;
pos = (201,714);
},
{
name = top_right_can;
pos = (651,714);
}
);
layerId = "D19189FD-F605-4705-8DF9-B27AB1AA0ED8";
shapes = (
{
closed = 1;
nodes = (
(682,714,l),
(56,382,l),
(45,332,l),
(531,0,l),
(570,0,l),
(600,142,l),
(250,378,l),
(237,305,l),
(684,540,l),
(721,714,l)
);
}
);
width = 667;
}
);
metricRight = "=|po-canadian";
note = uni1438;
unicode = 5176;
},
{
glyphname = "p-canadian";
kernLeft = mwestleft;
kernRight = mwestright;
lastChange = "2023-01-13 15:28:25 +0000";
layers = (
{
layerId = "D19189FD-F605-4705-8DF9-B27AB1AA0ED8";
shapes = (
{
closed = 1;
nodes = (
(373,357,l),
(393,452,l),
(221,569,l),
(201,483,l),
(424,600,l),
(449,714,l),
(429,714,l),
(118,549,l),
(112,523,l),
(353,357,l)
);
}
);
width = 406;
}
);
note = uni1449;
unicode = 5193;
},
{
glyphname = "pWestCree-canadian";
kernLeft = mwestleft;
kernRight = mwestright;
lastChange = "2023-01-13 15:28:25 +0000";
layers = (
{
layerId = "D19189FD-F605-4705-8DF9-B27AB1AA0ED8";
shapes = (
{
closed = 1;
nodes = (
(190,357,l),
(266,714,l),
(153,714,l),
(77,357,l)
);
}
);
width = 223;
}
);
metricRight = "=|";
note = uni144A;
unicode = 5194;
},
{
color = 6;
glyphname = "hCarrier-canadian";
lastChange = "2023-01-13 15:28:49 +0000";
layers = (
{
layerId = "D19189FD-F605-4705-8DF9-B27AB1AA0ED8";
shapes = (
{
closed = 1;
nodes = (
(154,189,l),
(177,299,ls),
(184,333,o),
(201,350,o),
(221,350,cs),
(255,350,o),
(266,331,o),
(258,296,cs),
(235,189,l),
(348,189,l),
(375,317,ls),
(392,395,o),
(349,452,o),
(269,452,cs),
(224,452,o),
(181,430,o),
(168,398,c),
(194,378,l),
(230,546,l),
(117,546,l),
(41,189,l)
);
}
);
width = 397;
}
);
metricLeft = "pWestCree-canadian";
note = uni144B;
unicode = 5195;
},
{
glyphname = "te-canadian";
lastChange = "2023-01-13 15:28:49 +0000";
layers = (
{
anchors = (
{
name = middle_center_can;
pos = (396,357);
},
{
name = top_center_can;
pos = (472,714);
},
{
name = top_left_can;
pos = (238,714);
},
{
name = top_right_can;
pos = (707,714);
}
);
layerId = "D19189FD-F605-4705-8DF9-B27AB1AA0ED8";
shapes = (
{
closed = 1;
nodes = (
(547,-15,o),
(657,85,o),
(702,295,cs),
(791,714,l),
(625,714,l),
(536,299,ls),
(512,186,o),
(457,135,o),
(365,135,cs),
(254,135,o),
(212,198,o),
(237,318,cs),
(321,714,l),
(155,714,l),
(73,330,ls),
(28,115,o),
(139,-15,o),
(351,-15,cs)
);
}
);
width = 750;
}
);
metricRight = "=|";
note = uni144C;
unicode = 5196;
},
{
glyphname = "ti-canadian";
lastChange = "2023-01-13 15:28:49 +0000";
layers = (
{
anchors = (
{
name = middle_center_can;
pos = (397,357);
},
{
name = middle_right_can;
pos = (866,357);
},
{
name = top_center_can;
pos = (473,714);
},
{
name = top_left_can;
pos = (239,714);
},
{
name = top_right_can;
pos = (708,714);
}
);
layerId = "D19189FD-F605-4705-8DF9-B27AB1AA0ED8";
shapes = (
{
closed = 1;
nodes = (
(169,0,l),
(258,415,ls),
(282,528,o),
(337,579,o),
(429,579,cs),
(540,579,o),
(582,516,o),
(557,396,cs),
(473,0,l),
(639,0,l),
(721,384,ls),
(766,599,o),
(655,729,o),
(443,729,cs),
(247,729,o),
(137,629,o),
(92,419,cs),
(3,0,l)
);
}
);
width = 750;
}
);
metricLeft = "te-canadian";
metricRight = "te-canadian";
note = uni144E;
unicode = 5198;
},
{
glyphname = "to-canadian";
kernLeft = toleft;
lastChange = "2023-01-13 15:28:25 +0000";
layers = (
{
anchors = (
{
name = middle_center_can;
pos = (258,357);
},
{
name = middle_right_can;
pos = (761,357);
},
{
name = top_center_can;
pos = (390,714);
},
{
name = top_double;
pos = (485,714);
},
{
name = top_left_can;
pos = (219,714);
},
{
name = top_right_can;
pos = (614,714);
}
);
layerId = "D19189FD-F605-4705-8DF9-B27AB1AA0ED8";
shapes = (
{
closed = 1;
nodes = (
(181,0,ls),
(524,0,o),
(613,251,o),
(613,426,cs),
(613,605,o),
(498,714,o),
(298,714,cs),
(147,714,l),
(116,565,l),
(273,565,ls),
(388,565,o),
(446,510,o),
(446,410,cs),
(446,293,o),
(388,149,o),
(196,149,cs),
(27,149,l),
(-4,0,l)
);
}
);
width = 639;
}
);
note = uni1450;
unicode = 5200;
},
{
glyphname = "ta-canadian";
kernRight = taright;
lastChange = "2023-01-13 15:28:49 +0000";
layers = (
{
anchors = (
{
name = middle_center_can;
pos = (424,357);
},
{
name = top_center_can;
pos = (445,714);
},
{
name = top_left_can;
pos = (220,714);
},
{
name = top_right_can;
pos = (614,714);
}
);
layerId = "D19189FD-F605-4705-8DF9-B27AB1AA0ED8";
shapes = (
{
closed = 1;
nodes = (
(535,0,l),
(566,149,l),
(409,149,ls),
(294,149,o),
(236,204,o),
(236,304,cs),
(236,426,o),
(300,565,o),
(486,565,cs),
(655,565,l),
(686,714,l),
(501,714,ls),
(163,714,o),
(70,468,o),
(70,288,cs),
(70,109,o),
(184,0,o),
(384,0,cs)
);
}
);
width = 638;
}
);
metricLeft = "=|to-canadian";
metricRight = "=|to-canadian";
note = uni1455;
unicode = 5205;
},
{
glyphname = "t-canadian";
kernLeft = mwestleft;
kernRight = mwestright;
lastChange = "2023-01-13 15:28:25 +0000";
layers = (
{
layerId = "D19189FD-F605-4705-8DF9-B27AB1AA0ED8";
shapes = (
{
closed = 1;
nodes = (
(345,357,l),
(367,462,l),
(286,462,ls),
(241,462,o),
(221,483,o),
(221,517,cs),
(221,568,o),
(248,609,o),
(318,609,cs),
(398,609,l),
(421,714,l),
(333,714,ls),
(188,714,o),
(106,626,o),
(106,504,cs),
(106,414,o),
(166,357,o),
(267,357,cs)
);
}
);
width = 378;
}
);
note = uni1466;
unicode = 5222;
},
{
glyphname = "ke-canadian";
lastChange = "2023-01-13 15:28:49 +0000";
layers = (
{
anchors = (
{
name = middle_center_can;
pos = (345,457);
},
{
name = top_center_can;
pos = (395,714);
},
{
name = top_left_can;
pos = (220,714);
},
{
name = top_right_can;
pos = (552,723);
}
);
layerId = "D19189FD-F605-4705-8DF9-B27AB1AA0ED8";
shapes = (
{
closed = 1;
nodes = (
(502,0,l),
(590,414,ls),
(623,571,o),
(569,729,o),
(374,729,cs),
(186,729,o),
(83,569,o),
(83,406,cs),
(83,277,o),
(162,190,o),
(283,190,cs),
(340,190,o),
(390,213,o),
(412,252,c),
(392,264,l),
(336,0,l)
);
},
{
closed = 1;
nodes = (
(275,330,o),
(245,363,o),
(245,419,cs),
(245,473,o),
(272,589,o),
(358,589,cs),
(409,589,o),
(439,555,o),
(439,499,cs),
(439,445,o),
(412,330,o),
(325,330,cs)
);
}
);
width = 613;
}
);
metricRight = "te-canadian";
note = uni146B;
unicode = 5227;
},
{
glyphname = "ki-canadian";
lastChange = "2023-01-13 15:28:25 +0000";
layers = (
{
anchors = (
{
name = middle_center_can;
pos = (361,457);
},
{
name = top_center_can;
pos = (411,714);
},
{
name = top_left_can;
pos = (238,714);
},
{
name = top_right_can;
pos = (588,714);
}
);
layerId = "D19189FD-F605-4705-8DF9-B27AB1AA0ED8";
shapes = (
{
closed = 1;
nodes = (
(169,0,l),
(229,281,l),
(211,266,l),
(214,225,o),
(276,190,o),
(350,190,cs),
(531,190,o),
(617,364,o),
(617,503,cs),
(617,642,o),
(528,729,o),
(388,729,cs),
(241,729,o),
(139,639,o),
(105,481,cs),
(3,0,l)
);
},
{
closed = 1;
nodes = (
(292,330,o),
(262,363,o),
(262,419,cs),
(262,473,o),
(291,589,o),
(376,589,cs),
(426,589,o),
(457,555,o),
(457,499,cs),
(457,446,o),
(429,330,o),
(342,330,cs)
);
}
);
width = 614;
}
);
metricLeft = "te-canadian";
metricRight = "=|ke-canadian";
note = uni146D;
unicode = 5229;
},
{
glyphname = "ko-canadian";
lastChange = "2023-01-13 15:28:25 +0000";
layers = (
{
anchors = (
{
name = middle_center_can;
pos = (310,287);
},
{
name = top_center_can;
pos = (397,714);
},
{
name = top_double;
pos = (571,714);
},
{
name = top_left_can;
pos = (221,714);
},
{
name = top_right_can;
pos = (571,714);
}
);
layerId = "D19189FD-F605-4705-8DF9-B27AB1AA0ED8";
shapes = (
{
closed = 1;
nodes = (
(416,-15,o),
(518,75,o),
(552,233,cs),
(654,714,l),
(487.994,714,l),
(428,433,l),
(446,448,l),
(443,489,o),
(382,524,o),
(307,524,cs),
(127,524,o),
(41,349,o),
(41,210,cs),
(41,72,o),
(129,-15,o),
(275,-15,cs)
);
},
{
closed = 1;
nodes = (
(231,125,o),
(201,158,o),
(201,214,cs),
(201,268,o),
(231,384,o),
(315,384,cs),
(365,384,o),
(395,351,o),
(395,295,cs),
(395,241,o),
(368,125,o),
(282,125,cs)
);
}
);
width = 614;
}
);
metricLeft = "ke-canadian";
metricRight = "te-canadian";
note = uni146F;
unicode = 5231;
},
{
glyphname = "ka-canadian";
lastChange = "2023-01-13 15:28:25 +0000";
layers = (
{
anchors = (
{
name = middle_center_can;
pos = (326,291);
},
{
name = top_center_can;
pos = (412,714);
},
{
name = top_left_can;
pos = (238,714);
},
{
name = top_right_can;
pos = (588,714);
}
);
layerId = "D19189FD-F605-4705-8DF9-B27AB1AA0ED8";
shapes = (
{
closed = 1;
nodes = (
(471,-15,o),
(575,145,o),
(575,307,cs),
(575,437,o),
(496,524,o),
(374,524,cs),
(317,524,o),
(268,501,o),
(245,462,c),
(265,450,l),
(321,714,l),
(155,714,l),
(68,302,ls),
(27,110,o),
(116,-15,o),
(289,-15,cs)
);
},
{
closed = 1;
nodes = (
(248,125,o),
(219,159,o),
(219,215,cs),
(219,269,o),
(246,384,o),
(332,384,cs),
(383,384,o),
(413,351,o),
(413,295,cs),
(413,242,o),
(386,125,o),
(299,125,cs)
);
}
);
width = 614;
}
);
metricLeft = "te-canadian";
metricRight = "==|ke-canadian";
note = uni1472;
unicode = 5234;
},
{
glyphname = "k-canadian";
kernLeft = mwestleft;
kernRight = mwestright;
lastChange = "2023-01-13 15:28:25 +0000";
layers = (
{
layerId = "D19189FD-F605-4705-8DF9-B27AB1AA0ED8";
shapes = (
{
closed = 1;
nodes = (
(339,351,o),
(395,434,o),
(395,515,cs),
(395,578,o),
(356,622,o),
(290,622,cs),
(254,622,o),
(225,606,o),
(210,580,c),
(236,577,l),
(266,714,l),
(153,714,l),
(110,512,ls),
(92,426,o),
(129,351,o),
(236,351,cs)
);
},
{
closed = 1;
nodes = (
(222,433,o),
(207,448,o),
(207,472,cs),
(207,502,o),
(227,543,o),
(258,543,cs),
(280,543,o),
(294,528,o),
(294,503,cs),
(294,473,o),
(274,433,o),
(243,433,cs)
);
}
);
width = 389;
}
);
note = uni1483;
unicode = 5251;
},
{
glyphname = "kw-canadian";
kernLeft = mwestleft;
kernRight = mwestright;
lastChange = "2023-01-13 15:28:25 +0000";
layers = (
{
layerId = "D19189FD-F605-4705-8DF9-B27AB1AA0ED8";
shapes = (
{
closed = 1;
nodes = (
(307,351,o),
(364,396,o),
(383,485,cs),
(431,714,l),
(318,714,l),
(288,573,l),
(310,574,l),
(307,600,o),
(274,622,o),
(234,622,cs),
(147,622,o),
(95,545,o),
(95,470,cs),
(95,399,o),
(145,351,o),
(226,351,cs)
);
},
{
closed = 1;
nodes = (
(207,431,o),
(193,446,o),
(193,471,cs),
(193,501,o),
(213,541,o),
(244,541,cs),
(266,541,o),
(281,526,o),
(281,502,cs),
(281,472,o),
(261,431,o),
(230,431,cs)
);
}
);
width = 389;
}
);
metricLeft = "=|k-canadian";
metricRight = "=|k-canadian";
note = uni1484;
unicode = 5252;
},
{
glyphname = "ce-canadian";
kernLeft = celeft;
lastChange = "2023-01-13 15:28:25 +0000";
layers = (
{
anchors = (
{
name = middle_center_can;
pos = (324,373);
},
{
name = top_center_can;
pos = (396,714);
},
{
name = top_left_can;
pos = (222,714);
},
{
name = top_right_can;
pos = (564,714);
}
);
layerId = "D19189FD-F605-4705-8DF9-B27AB1AA0ED8";
shapes = (
{
closed = 1;
nodes = (
(494,0,l),
(589,445,ls),
(624,614,o),
(535,729,o),
(369,729,cs),
(218,729,o),
(125,642,o),
(89,477,cs),
(71,393,l),
(235,393,l),
(253,475,ls),
(268,551,o),
(301,585,o),
(355,585,cs),
(417,585,o),
(443,541,o),
(427,466,cs),
(328,0,l)
);
}
);
width = 606;
}
);
metricRight = "te-canadian";
note = uni1489;
unicode = 5257;
},
{
glyphname = "ci-canadian";
kernRight = ciright;
lastChange = "2023-01-13 15:28:49 +0000";
layers = (
{
anchors = (
{
name = middle_center_can;
pos = (329,373);
},
{
name = top_center_can;
pos = (413,714);
},
{
name = top_left_can;
pos = (238,714);
},
{
name = top_right_can;
pos = (581,714);
}
);
layerId = "D19189FD-F605-4705-8DF9-B27AB1AA0ED8";
shapes = (
{
closed = 1;
nodes = (
(169,0,l),
(270,475,ls),
(286,551,o),
(318,585,o),
(372,585,cs),
(434,585,o),
(460,541,o),
(445,466,cs),
(429,393,l),
(594,393,l),
(605,445,ls),
(641,614,o),
(551,729,o),
(385,729,cs),
(234,729,o),
(140,642,o),
(105,477,cs),
(3,0,l)
);
}
);
width = 607;
}
);
metricLeft = "te-canadian";
metricRight = "=|ce-canadian";
note = uni148B;
unicode = 5259;
},
{
glyphname = "co-canadian";
kernLeft = coleft;
lastChange = "2023-01-13 15:28:49 +0000";
layers = (
{
anchors = (
{
name = middle_center_can;
pos = (324,373);
},
{
name = top_center_can;
pos = (396,714);
},
{
name = top_double;
pos = (564,714);
},
{
name = top_left_can;
pos = (222,714);
},
{
name = top_right_can;
pos = (564,714);
}
);
layerId = "D19189FD-F605-4705-8DF9-B27AB1AA0ED8";
shapes = (
{
closed = 1;
nodes = (
(415,-15,o),
(509,72,o),
(544,237,cs),
(646,714,l),
(480,714,l),
(379,239,ls),
(363,163,o),
(331,129,o),
(277,129,cs),
(215,129,o),
(190,173,o),
(205,248,cs),
(220,321,l),
(56,321,l),
(45,269,ls),
(9,100,o),
(99,-15,o),
(264,-15,cs)
);
}
);
width = 605;
}
);
metricLeft = "ce-canadian";
metricRight = "te-canadian";
note = uni148D;
unicode = 5261;
},
{
glyphname = "ca-canadian";
kernRight = caright;
lastChange = "2023-01-13 15:28:25 +0000";
layers = (
{
anchors = (
{
name = middle_center_can;
pos = (329,373);
},
{
name = top_center_can;
pos = (414,714);
},
{
name = top_left_can;
pos = (239,714);
},
{
name = top_right_can;
pos = (580,714);
}
);
layerId = "D19189FD-F605-4705-8DF9-B27AB1AA0ED8";
shapes = (
{
closed = 1;
nodes = (
(431,-15,o),
(525,72,o),
(560,237,cs),
(578,321,l),
(414,321,l),
(397,239,ls),
(381,163,o),
(348,129,o),
(295,129,cs),
(233,129,o),
(207,173,o),
(223,248,cs),
(321,714,l),
(155,714,l),
(61,269,ls),
(25,100,o),
(115,-15,o),
(280,-15,cs)
);
}
);
width = 606;
}
);
metricLeft = "te-canadian";
metricRight = "=|ce-canadian";
note = uni1490;
unicode = 5264;
},
{
glyphname = "c-canadian";
kernLeft = mwestleft;
kernRight = mwestright;
lastChange = "2023-01-13 15:28:25 +0000";
layers = (
{
layerId = "D19189FD-F605-4705-8DF9-B27AB1AA0ED8";
shapes = (
{
closed = 1;
nodes = (
(320,351,o),
(378,398,o),
(395,480,cs),
(401,508,l),
(295,508,l),
(288,477,ls),
(283,451,o),
(269,438,o),
(247,438,cs),
(222,438,o),
(211,454,o),
(217,483,cs),
(266,714,l),
(153,714,l),
(109,506,ls),
(89,412,o),
(138,351,o),
(240,351,cs)
);
}
);
width = 379;
}
);
note = uni14A1;
unicode = 5281;
},
{
glyphname = "thSayisi-canadian";
lastChange = "2023-01-13 15:28:49 +0000";
layers = (
{
layerId = "D19189FD-F605-4705-8DF9-B27AB1AA0ED8";
shapes = (
{
closed = 1;
nodes = (
(296,351,o),
(353,398,o),
(370,480,cs),
(420,714,l),
(307,714,l),
(257,478,ls),
(252,451,o),
(235,438,o),
(215,438,cs),
(190,438,o),
(179,454,o),
(185,482,cs),
(191,508,l),
(86,508,l),
(82,492,ls),
(65,412,o),
(113,351,o),
(209,351,cs)
);
}
);
width = 377;
}
);
metricLeft = "=|c-canadian";
metricRight = "=|c-canadian";
note = uni14A2;
unicode = 5282;
},
{
glyphname = "me-canadian";
kernLeft = meleft;
lastChange = "2023-01-13 15:28:50 +0000";
layers = (
{
anchors = (
{
name = middle_center_can;
pos = (211,357);
},
{
name = top_center_can;
pos = (373,714);
},
{
name = top_left_can;
pos = (216,714);
},
{
name = top_right_can;
pos = (521,714);
}
);
layerId = "D19189FD-F605-4705-8DF9-B27AB1AA0ED8";
shapes = (
{
closed = 1;
nodes = (
(452,0,l),
(604,714,l),
(134,714,l),
(103,565,l),
(406,565,l),
(286,0,l)
);
}
);
width = 570;
}
);
metricRight = "nunavuth-canadian";
note = uni14A3;
unicode = 5283;
},
{
glyphname = "mi-canadian";
kernRight = miright;
lastChange = "2023-01-13 15:28:25 +0000";
layers = (
{
anchors = (
{
name = middle_center_can;
pos = (405,357);
},
{
name = top_center_can;
pos = (397,714);
},
{
name = top_left_can;
pos = (246,714);
},
{
name = top_right_can;
pos = (550,714);
}
);
layerId = "D19189FD-F605-4705-8DF9-B27AB1AA0ED8";
shapes = (
{
closed = 1;
nodes = (
(176,0,l),
(297,565,l),
(601,565,l),
(632,714,l),
(162,714,l),
(10,0,l)
);
}
);
width = 571;
}
);
metricLeft = "nunavuth-canadian";
metricRight = "=|me-canadian";
note = uni14A5;
unicode = 5285;
},
{
glyphname = "mo-canadian";
kernLeft = moleft;
lastChange = "2023-01-13 15:28:50 +0000";
layers = (
{
anchors = (
{
name = middle_center_can;
pos = (211,357);
},
{
name = top_center_can;
pos = (374,714);
},
{
name = top_double;
pos = (522,714);
},
{
name = top_left_can;
pos = (217,714);
},
{
name = top_right_can;
pos = (522,714);
}
);
layerId = "D19189FD-F605-4705-8DF9-B27AB1AA0ED8";
shapes = (
{
closed = 1;
nodes = (
(452,0,l),
(604,714,l),
(438,714,l),
(318,149,l),
(14,149,l),
(-17,0,l)
);
}
);
width = 570;
}
);
metricLeft = "me-canadian";
metricRight = "nunavuth-canadian";
note = uni14A7;
unicode = 5287;
},
{
glyphname = "ma-canadian";
kernRight = maright;
lastChange = "2023-01-13 15:28:49 +0000";
layers = (
{
anchors = (
{
name = middle_center_can;
pos = (405,357);
},
{
name = top_center_can;
pos = (397,714);
},
{
name = top_left_can;
pos = (246,714);
},
{
name = top_right_can;
pos = (549,714);
}
);
layerId = "D19189FD-F605-4705-8DF9-B27AB1AA0ED8";
shapes = (
{
closed = 1;
nodes = (
(480,0,l),
(512,149,l),
(208,149,l),
(328,714,l),
(162,714,l),
(10,0,l)
);
}
);
width = 570;
}
);
metricLeft = "nunavuth-canadian";
metricRight = "=|me-canadian";
note = uni14AA;
unicode = 5290;
},
{
glyphname = "m-canadian";
kernLeft = mwestleft;
kernRight = mwestright;
lastChange = "2023-01-13 15:28:25 +0000";
layers = (
{
layerId = "D19189FD-F605-4705-8DF9-B27AB1AA0ED8";
shapes = (
{
closed = 1;
nodes = (
(332,357,l),
(354,462,l),
(212,462,l),
(266,714,l),
(153,714,l),
(77,357,l)
);
}
);
width = 352;
}
);
metricLeft = "pWestCree-canadian";
note = uni14BB;
unicode = 5307;
},
{
glyphname = "mh-canadian";
kernLeft = mwestleft;
kernRight = mwestright;
lastChange = "2023-01-13 15:28:25 +0000";
layers = (
{
layerId = "D19189FD-F605-4705-8DF9-B27AB1AA0ED8";
shapes = (
{
closed = 1;
nodes = (
(319,357,l),
(395,714,l),
(282,714,l),
(228,462,l),
(86,462,l),
(64,357,l)
);
}
);
width = 352;
}
);
metricLeft = "=|m-canadian";
metricRight = "=|m-canadian";
note = uni14BD;
unicode = 5309;
},
{
glyphname = "mAthapascan-canadian";
lastChange = "2023-01-13 15:28:25 +0000";
layers = (
{
layerId = "D19189FD-F605-4705-8DF9-B27AB1AA0ED8";
shapes = (
{
closed = 1;
nodes = (
(342,357,l),
(360,446,l),
(205,446,l),
(202,402,l),
(321,498,ls),
(362,532,o),
(386,571,o),
(386,617,cs),
(386,677,o),
(339,720,o),
(266,720,cs),
(186,720,o),
(132,680,o),
(113,588,c),
(213,588,l),
(219,624,o),
(236,640,o),
(257,640,cs),
(277,640,o),
(288,628,o),
(288,611,cs),
(288,586,o),
(267,561,o),
(233,533,cs),
(90,416,l),
(77,357,l)
);
}
);
width = 363;
}
);
note = uni14BE;
unicode = 5310;
},
{
glyphname = "ne-canadian";
kernLeft = neleft;
lastChange = "2023-01-13 15:28:49 +0000";
layers = (
{
anchors = (
{
name = middle_center_can;
pos = (522,254);
},
{
name = top_center_can;
pos = (563,529);
},
{
name = top_left_can;
pos = (183,529);
},
{
name = top_right_can;
pos = (761,529);
}
);
layerId = "D19189FD-F605-4705-8DF9-B27AB1AA0ED8";
shapes = (
{
closed = 1;
nodes = (
(679,-15,o),
(784,135,o),
(784,285,cs),
(784,419,o),
(690,509,o),
(544,509,cs),
(96,509,l),
(65,362,l),
(364,362,l),
(358,423,l),
(286,371,o),
(259,281,o),
(259,207,cs),
(259,74,o),
(355,-15,o),
(501,-15,cs)
);
},
{
closed = 1;
nodes = (
(454,125,o),
(420,161,o),
(420,217,cs),
(420,280,o),
(460,369,o),
(534,369,cs),
(588,369,o),
(622,333,o),
(622,278,cs),
(622,214,o),
(582,125,o),
(508,125,cs)
);
}
);
width = 827;
}
);
metricRight = "=|ke-canadian";
note = uni14C0;
unicode = 5312;
},
{
glyphname = "ni-canadian";
kernRight = niright;
lastChange = "2023-01-13 15:28:49 +0000";
layers = (
{
anchors = (
{
name = middle_center_can;
pos = (304,254);
},
{
name = top_center_can;
pos = (384,529);
},
{
name = top_left_can;
pos = (182,529);
},
{
name = top_right_can;
pos = (761,529);
}
);
layerId = "D19189FD-F605-4705-8DF9-B27AB1AA0ED8";
shapes = (
{
closed = 1;
nodes = (
(460,-15,o),
(565,135,o),
(565,286,cs),
(565,323,o),
(554,358,o),
(537,382,c),
(506,362,l),
(808,362,l),
(839,509,l),
(330,509,ls),
(145,509,o),
(40,360,o),
(40,210,cs),
(40,73,o),
(136,-15,o),
(282,-15,cs)
);
},
{
closed = 1;
nodes = (
(235,125,o),
(201,161,o),
(201,217,cs),
(201,280,o),
(241,369,o),
(316,369,cs),
(370,369,o),
(403,333,o),
(403,278,cs),
(403,214,o),
(363,125,o),
(289,125,cs)
);
}
);
width = 827;
}
);
metricLeft = "ke-canadian";
metricRight = "=|ne-canadian";
note = uni14C2;
unicode = 5314;
},
{
glyphname = "no-canadian";
kernLeft = noleft;
lastChange = "2023-01-13 15:28:49 +0000";
layers = (
{
anchors = (
{
name = middle_center_can;
pos = (522,254);
},
{
name = top_center_can;
pos = (581,529);
},
{
name = top_double;
pos = (582,529);
},
{
name = top_left_can;
pos = (184,529);
},
{
name = top_right_can;
pos = (763,529);
}
);
layerId = "D19189FD-F605-4705-8DF9-B27AB1AA0ED8";
shapes = (
{
closed = 1;
nodes = (
(497,0,ls),
(683,0,o),
(788,149,o),
(788,299,cs),
(788,436,o),
(691,524,o),
(546,524,cs),
(368,524,o),
(263,374,o),
(263,224,cs),
(263,186,o),
(273,151,o),
(290,127,c),
(321,147,l),
(19,147,l),
(-12,0,l)
);
},
{
closed = 1;
nodes = (
(458,140,o),
(424,176,o),
(424,232,cs),
(424,295,o),
(464,384,o),
(538,384,cs),
(592,384,o),
(626,348,o),
(626,292,cs),
(626,229,o),
(586,140,o),
(512,140,cs)
);
}
);
width = 828;
}
);
metricLeft = "ne-canadian";
metricRight = "=|ke-canadian";
note = uni14C4;
unicode = 5316;
},
{
glyphname = "na-canadian";
kernRight = naright;
lastChange = "2023-01-13 15:28:49 +0000";
layers = (
{
anchors = (
{
name = middle_center_can;
pos = (304,254);
},
{
name = top_center_can;
pos = (362,529);
},
{
name = top_double;
pos = (547,529);
},
{
name = top_left_can;
pos = (181,529);
},
{
name = top_right_can;
pos = (760,529);
}
);
layerId = "D19189FD-F605-4705-8DF9-B27AB1AA0ED8";
shapes = (
{
closed = 1;
nodes = (
(730,0,l),
(762,147,l),
(462,147,l),
(468,86,l),
(540,138,o),
(567,229,o),
(567,302,cs),
(567,435,o),
(471,524,o),
(326,524,cs),
(148,524,o),
(43,374,o),
(43,225,cs),
(43,90,o),
(137,0,o),
(282,0,cs)
);
},
{
closed = 1;
nodes = (
(238,140,o),
(204,176,o),
(204,232,cs),
(204,295,o),
(244,384,o),
(319,384,cs),
(373,384,o),
(406,348,o),
(406,292,cs),
(406,229,o),
(366,140,o),
(292,140,cs)
);
}
);
width = 827;
}
);
metricLeft = "ke-canadian";
metricRight = "=|ne-canadian";
note = uni14C7;
unicode = 5319;
},
{
glyphname = "n-canadian";
kernLeft = mwestleft;
kernRight = mwestright;
lastChange = "2023-01-13 15:28:25 +0000";
layers = (
{
layerId = "D19189FD-F605-4705-8DF9-B27AB1AA0ED8";
shapes = (
{
closed = 1;
nodes = (
(488,450,l),
(511,555,l),
(348,555,l),
(340,488,l),
(381,510,o),
(401,563,o),
(401,604,cs),
(401,674,o),
(349,722,o),
(269,722,cs),
(178,722,o),
(116,654,o),
(116,571,cs),
(116,500,o),
(168,450,o),
(246,450,cs)
);
},
{
closed = 1;
nodes = (
(229,531,o),
(214,547,o),
(214,571,cs),
(214,601,o),
(232,641,o),
(266,641,cs),
(289,641,o),
(303,625,o),
(303,601,cs),
(303,571,o),
(285,531,o),
(252,531,cs)
);
}
);
width = 489;
}
);
metricLeft = "=|k-canadian";
note = uni14D0;
unicode = 5328;
},
{
glyphname = "nh-canadian";
kernLeft = mwestleft;
kernRight = mwestright;
lastChange = "2023-01-13 15:28:49 +0000";
layers = (
{
layerId = "D19189FD-F605-4705-8DF9-B27AB1AA0ED8";
shapes = (
{
closed = 1;
nodes = (
(355,450,ls),
(453,450,o),
(513,516,o),
(513,602,cs),
(513,672,o),
(462,722,o),
(381,722,cs),
(290,722,o),
(229,654,o),
(229,571,cs),
(229,548,o),
(237,525,o),
(252,509,c),
(269,555,l),
(106,555,l),
(84,450,l)
);
},
{
closed = 1;
nodes = (
(341,531,o),
(327,547,o),
(327,571,cs),
(327,601,o),
(344,641,o),
(378,641,cs),
(401,641,o),
(415,625,o),
(415,601,cs),
(415,571,o),
(398,531,o),
(364,531,cs)
);
}
);
width = 488;
}
);
metricLeft = "=|n-canadian";
metricRight = "=|n-canadian";
note = uni14D2;
unicode = 5330;
},
{
glyphname = "le-canadian";
kernLeft = neleft;
lastChange = "2023-01-13 15:28:49 +0000";
layers = (
{
anchors = (
{
name = middle_center_can;
pos = (522,254);
},
{
name = top_center_can;
pos = (564,529);
},
{
name = top_left_can;
pos = (183,529);
},
{
name = top_right_can;
pos = (761,529);
}
);
layerId = "D19189FD-F605-4705-8DF9-B27AB1AA0ED8";
shapes = (
{
closed = 1;
nodes = (
(450,0,ls),
(664,0,o),
(785,116,o),
(785,292,cs),
(785,424,o),
(692,509,o),
(545,509,cs),
(96,509,l),
(65,361,l),
(516,361,ls),
(582,361,o),
(618,329,o),
(618,275,cs),
(618,199,o),
(569,145,o),
(470,145,cs),
(419,145,l),
(388,0,l)
);
}
);
width = 827;
}
);
metricLeft = "ne-canadian";
metricRight = "=|ke-canadian";
note = uni14D3;
unicode = 5331;
},
{
glyphname = "li-canadian";
kernRight = niright;
lastChange = "2023-01-13 15:28:49 +0000";
layers = (
{
anchors = (
{
name = middle_center_can;
pos = (306,254);
},
{
name = top_center_can;
pos = (385,529);
},
{
name = top_left_can;
pos = (183,529);
},
{
name = top_right_can;
pos = (761,529);
}
);
layerId = "D19189FD-F605-4705-8DF9-B27AB1AA0ED8";
shapes = (
{
closed = 1;
nodes = (
(331,0,l),
(362,145,l),
(308,145,ls),
(244,145,o),
(207,178,o),
(207,232,cs),
(207,303,o),
(254,361,o),
(352,361,cs),
(807,361,l),
(839,509,l),
(367,509,ls),
(167,509,o),
(43,399,o),
(43,224,cs),
(43,93,o),
(136,0,o),
(279,0,cs)
);
}
);
width = 827;
}
);
metricLeft = "ke-canadian";
metricRight = "=|ne-canadian";
note = uni14D5;
unicode = 5333;
},
{
glyphname = "lo-canadian";
kernLeft = noleft;
lastChange = "2023-01-13 15:28:25 +0000";
layers = (
{
anchors = (
{
name = middle_center_can;
pos = (520,254);
},
{
name = top_center_can;
pos = (579,529);
},
{
name = top_double;
pos = (566,529);
},
{
name = top_left_can;
pos = (183,529);
},
{
name = top_right_can;
pos = (760,529);
}
);
layerId = "D19189FD-F605-4705-8DF9-B27AB1AA0ED8";
shapes = (
{
closed = 1;
nodes = (
(460,0,ls),
(659,0,o),
(783,110,o),
(783,285,cs),
(783,416,o),
(691,509,o),
(547,509,cs),
(495,509,l),
(465,365,l),
(518,365,ls),
(582,365,o),
(620,332,o),
(620,277,cs),
(620,206,o),
(572,148,o),
(474,148,cs),
(19,148,l),
(-12,0,l)
);
}
);
width = 826;
}
);
metricLeft = "ne-canadian";
metricRight = "=|ke-canadian";
note = uni14D7;
unicode = 5335;
},
{
glyphname = "la-canadian";
kernRight = naright;
lastChange = "2023-01-13 15:28:49 +0000";
layers = (
{
anchors = (
{
name = middle_center_can;
pos = (305,254);
},
{
name = top_center_can;
pos = (363,529);
},
{
name = top_left_can;
pos = (182,529);
},
{
name = top_right_can;
pos = (760,529);
}
);
layerId = "D19189FD-F605-4705-8DF9-B27AB1AA0ED8";
shapes = (
{
closed = 1;
nodes = (
(730,0,l),
(762,148,l),
(310,148,ls),
(244,148,o),
(208,180,o),
(208,234,cs),
(208,310,o),
(257,365,o),
(356,365,cs),
(407,365,l),
(438,509,l),
(377,509,ls),
(162,509,o),
(42,393,o),
(42,217,cs),
(42,85,o),
(134,0,o),
(282,0,cs)
);
}
);
width = 827;
}
);
metricLeft = "ke-canadian";
metricRight = "=|ne-canadian";
note = uni14DA;
unicode = 5338;
},
{
glyphname = "l-canadian";
kernLeft = mwestleft;
kernRight = mwestright;
lastChange = "2023-01-13 15:28:49 +0000";
layers = (
{
layerId = "D19189FD-F605-4705-8DF9-B27AB1AA0ED8";
shapes = (
{
closed = 1;
nodes = (
(452,357,l),
(475,462,l),
(286,462,ls),
(243,462,o),
(219,483,o),
(219,519,cs),
(219,564,o),
(245,613,o),
(312,613,cs),
(334,613,l),
(355,714,l),
(324,714,ls),
(183,714,o),
(106,624,o),
(106,506,cs),
(106,414,o),
(170,357,o),
(276,357,cs)
);
}
);
width = 473;
}
);
metricLeft = "t-canadian";
metricRight = "m-canadian";
note = uni14EA;
unicode = 5354;
},
{
glyphname = "lWestCree-canadian";
kernLeft = mwestleft;
kernRight = mwestright;
lastChange = "2023-01-13 15:28:49 +0000";
layers = (
{
layerId = "D19189FD-F605-4705-8DF9-B27AB1AA0ED8";
shapes = (
{
closed = 1;
nodes = (
(326,357,l),
(340,424,l),
(197,491,l),
(186,437,l),
(358,507,l),
(367,552,l),
(225,620,l),
(212,565,l),
(385,634,l),
(402,714,l),
(383,714,l),
(133,618,l),
(126,584,l),
(276,515,l),
(285,555,l),
(105,487,l),
(98,453,l),
(307,357,l)
);
}
);
width = 360;
}
);
metricRight = "=|";
note = uni14EB;
unicode = 5355;
},
{
glyphname = "mediall-canadian";
lastChange = "2023-01-13 15:28:25 +0000";
layers = (
{
layerId = "D19189FD-F605-4705-8DF9-B27AB1AA0ED8";
shapes = (
{
closed = 1;
nodes = (
(519,-15,l),
(542,97,l),
(227,242,l),
(210,162,l),
(589,315,l),
(602,379,l),
(286,522,l),
(270,449,l),
(648,594,l),
(676,729,l),
(637,729,l),
(116,529,l),
(104,472,l),
(422,326,l),
(434,386,l),
(55,242,l),
(43,185,l),
(479,-15,l)
);
}
);
width = 634;
}
);
metricRight = "=|";
note = uni14EC;
unicode = 5356;
},
{
glyphname = "se-canadian";
kernRight = seright;
lastChange = "2023-01-13 15:28:25 +0000";
layers = (
{
anchors = (
{
name = top_left_can;
pos = (245,714);
},
{
name = top_right_can;
pos = (527,714);
}
);
layerId = "D19189FD-F605-4705-8DF9-B27AB1AA0ED8";
shapes = (
{
closed = 1;
nodes = (
(457,0,l),
(538,379,l),
(493,379,ls),
(330,379,o),
(269,444,o),
(307,619,cs),
(328,714,l),
(162,714,l),
(139,609,ls),
(90,381,o),
(206,232,o),
(457,232,cs),
(478,232,l),
(352,283,l),
(291,0,l)
);
}
);
width = 577;
}
);
note = uni14ED;
unicode = 5357;
},
{
glyphname = "si-canadian";
kernLeft = sileft;
lastChange = "2023-01-13 15:28:49 +0000";
layers = (
{
anchors = (
{
name = top_left_can;
pos = (246,714);
},
{
name = top_right_can;
pos = (528,714);
}
);
layerId = "D19189FD-F605-4705-8DF9-B27AB1AA0ED8";
shapes = (
{
closed = 1;
nodes = (
(177,0,l),
(238,287,l),
(100,232,l),
(141,232,ls),
(383,232,o),
(530,343,o),
(586,603,cs),
(610,714,l),
(444,714,l),
(423,618,ls),
(389,462,o),
(299,379,o),
(146,379,cs),
(92,379,l),
(11,0,l)
);
}
);
width = 576;
}
);
metricLeft = "=|se-canadian";
metricRight = "=|se-canadian";
note = uni14EF;
unicode = 5359;
},
{
glyphname = "so-canadian";
kernRight = soright;
lastChange = "2023-01-13 15:28:25 +0000";
layers = (
{
anchors = (
{
name = top_double;
pos = (527,714);
},
{
name = top_left_can;
pos = (245,714);
},
{
name = top_right_can;
pos = (527,714);
}
);
layerId = "D19189FD-F605-4705-8DF9-B27AB1AA0ED8";
shapes = (
{
closed = 1;
nodes = (
(176,0,l),
(197,96,ls),
(231,252,o),
(321,335,o),
(475,335,cs),
(529,335,l),
(609,714,l),
(443,714,l),
(382,427,l),
(521,482,l),
(480,482,ls),
(238,482,o),
(90,371,o),
(34,111,cs),
(10,0,l)
);
}
);
width = 577;
}
);
metricLeft = "se-canadian";
metricRight = "se-canadian";
note = uni14F1;
unicode = 5361;
},
{
glyphname = "sa-canadian";
kernLeft = saleft;
kernRight = saright;
lastChange = "2023-01-13 15:28:49 +0000";
layers = (
{
anchors = (
{
name = top_left_can;
pos = (247,714);
},
{
name = top_right_can;
pos = (528,714);
}
);
layerId = "D19189FD-F605-4705-8DF9-B27AB1AA0ED8";
shapes = (
{
closed = 1;
nodes = (
(459,0,l),
(481,105,ls),
(531,333,o),
(415,482,o),
(164,482,cs),
(143,482,l),
(269,431,l),
(330,714,l),
(163,714,l),
(83,335,l),
(128,335,ls),
(290,335,o),
(351,270,o),
(313,95,cs),
(293,0,l)
);
}
);
width = 577;
}
);
metricLeft = "=|se-canadian";
metricRight = "=|se-canadian";
note = uni14F4;
unicode = 5364;
},
{
glyphname = "s-canadian";
kernLeft = mwestleft;
kernRight = mwestright;
lastChange = "2023-01-13 15:28:49 +0000";
layers = (
{
layerId = "D19189FD-F605-4705-8DF9-B27AB1AA0ED8";
shapes = (
{
closed = 1;
nodes = (
(341,357,l),
(352,409,ls),
(378,530,o),
(319,614,o),
(200,614,cs),
(170,614,l),
(235,570,l),
(266,714,l),
(153,714,l),
(113,525,l),
(155,525,ls),
(229,525,o),
(256,489,o),
(240,412,cs),
(228,357,l)
);
}
);
width = 374;
}
);
metricRight = "=|";
note = uni1505;
unicode = 5381;
},
{
color = 6;
glyphname = "sAthapascan-canadian";
lastChange = "2023-01-13 15:28:49 +0000";
layers = (
{
layerId = "D19189FD-F605-4705-8DF9-B27AB1AA0ED8";
shapes = (
{
closed = 1;
nodes = (
(299,183,o),
(349,237,o),
(349,303,cs),
(349,348,o),
(323,378,o),
(280,393,cs),
(219,413,ls),
(202,418,o),
(195,429,o),
(195,439,cs),
(195,460,o),
(210,473,o),
(240,473,cs),
(269,473,o),
(284,460,o),
(278,430,c),
(376,430,l),
(390,511,o),
(329,552,o),
(247,552,cs),
(148,552,o),
(97,499,o),
(97,429,cs),
(97,386,o),
(125,354,o),
(165,341,cs),
(226,321,ls),
(244,314,o),
(251,305,o),
(251,293,cs),
(251,274,o),
(235,262,o),
(206,262,cs),
(172,262,o),
(158,275,o),
(163,305,c),
(65,305,l),
(52,227,o),
(106,183,o),
(202,183,cs)
);
}
);
width = 395;
}
);
metricRight = "=|";
note = uni1506;
unicode = 5382;
},
{
glyphname = "sw-canadian";
kernLeft = mwestleft;
kernRight = mwestright;
lastChange = "2023-01-13 15:28:25 +0000";
layers = (
{
layerId = "D19189FD-F605-4705-8DF9-B27AB1AA0ED8";
shapes = (
{
closed = 1;
nodes = (
(190,357,l),
(201,410,ls),
(218,491,o),
(260,525,o),
(342,525,cs),
(377,525,l),
(417,714,l),
(304,714,l),
(273,569,l),
(358,614,l),
(314,614,ls),
(195,614,o),
(117,544,o),
(89,415,cs),
(77,357,l)
);
}
);
width = 375;
}
);
metricLeft = "=|s-canadian";
metricRight = "=|s-canadian";
note = uni1507;
unicode = 5383;
},
{
glyphname = "sBlackfoot-canadian";
lastChange = "2023-01-13 15:28:25 +0000";
layers = (
{
layerId = "D19189FD-F605-4705-8DF9-B27AB1AA0ED8";
shapes = (
{
closed = 1;
nodes = (
(346,357,l),
(368,462,l),
(275,462,ls),
(235,462,o),
(216,483,o),
(226,526,cs),
(266,714,l),
(153,714,l),
(114,529,ls),
(92,425,o),
(145,357,o),
(254,357,cs)
);
}
);
width = 366;
}
);
metricLeft = "ai-canadian";
metricRight = "m-canadian";
note = uni1508;
unicode = 5384;
},
{
glyphname = "moosecreesk-canadian";
kernLeft = mwestleft;
kernRight = mwestright;
lastChange = "2023-01-13 15:28:25 +0000";
layers = (
{
layerId = "D19189FD-F605-4705-8DF9-B27AB1AA0ED8";
shapes = (
{
closed = 1;
nodes = (
(335,225,o),
(376,344,o),
(376,442,cs),
(376,548,o),
(319,613,o),
(205,613,cs),
(189,613,l),
(237,570,l),
(268,714,l),
(155,714,l),
(115,526,l),
(164,526,ls),
(237,526,o),
(276,514,o),
(272,444,c),
(301,447,l),
(291,473,o),
(260,493,o),
(216,493,cs),
(121,493,o),
(78,413,o),
(78,346,cs),
(78,274,o),
(129,225,o),
(210,225,cs)
);
},
{
closed = 1;
nodes = (
(190,305,o),
(176,321,o),
(176,345,cs),
(176,375,o),
(196,416,o),
(227,416,cs),
(250,416,o),
(264,401,o),
(264,376,cs),
(264,345,o),
(244,305,o),
(213,305,cs)
);
}
);
width = 399;
}
);
metricRight = "=|";
note = uni1509;
unicode = 5385;
},
{
glyphname = "skwNaskapi-canadian";
kernLeft = mwestleft;
kernRight = mwestright;
lastChange = "2023-01-13 15:28:49 +0000";
layers = (
{
layerId = "D19189FD-F605-4705-8DF9-B27AB1AA0ED8";
shapes = (
{
closed = 1;
nodes = (
(318,225,o),
(368,305,o),
(368,384,cs),
(368,449,o),
(328,493,o),
(267,493,cs),
(230,493,o),
(203,477,o),
(188,450,c),
(206,452,l),
(227,506,o),
(266,526,o),
(347,526,cs),
(397,526,l),
(437,714,l),
(324,714,l),
(293,567,l),
(361,613,l),
(333,613,ls),
(157,613,o),
(83,473,o),
(83,358,cs),
(83,279,o),
(131,225,o),
(217,225,cs)
);
},
{
closed = 1;
nodes = (
(195,305,o),
(181,321,o),
(181,345,cs),
(181,375,o),
(201,416,o),
(232,416,cs),
(255,416,o),
(269,401,o),
(269,376,cs),
(269,345,o),
(249,305,o),
(218,305,cs)
);
}
);
width = 400;
}
);
metricLeft = "=|moosecreesk-canadian";
metricRight = "=|moosecreesk-canadian";
note = uni150A;
unicode = 5386;
},
{
glyphname = "swNaskapi-canadian";
lastChange = "2023-01-13 15:28:25 +0000";
layers = (
{
layerId = "D19189FD-F605-4705-8DF9-B27AB1AA0ED8";
shapes = (
{
closed = 1;
nodes = (
(327,198,l),
(335,238,ls),
(360,352,o),
(300,431,o),
(186,431,cs),
(155,431,l),
(206,389,l),
(233,517,l),
(120,517,l),
(84,345,l),
(137,345,ls),
(205,345,o),
(240,314,o),
(223,241,cs),
(214,198,l)
);
},
{
closed = 1;
nodes = (
(287,2,o),
(321,37,o),
(321,79,cs),
(321,122,o),
(287,157,o),
(244,157,cs),
(202,157,o),
(168,122,o),
(168,79,cs),
(168,37,o),
(202,2,o),
(244,2,cs)
);
},
{
closed = 1;
nodes = (
(246,557,o),
(281,592,o),
(281,635,cs),
(281,678,o),
(246,712,o),
(204,712,cs),
(161,712,o),
(127,678,o),
(127,635,cs),
(127,592,o),
(161,557,o),
(204,557,cs)
);
}
);
width = 404;
}
);
metricRight = "=|";
note = uni150B;
unicode = 5387;
},
{
glyphname = "spwaNaskapi-canadian";
lastChange = "2023-01-13 15:28:49 +0000";
layers = (
{
layerId = "D19189FD-F605-4705-8DF9-B27AB1AA0ED8";
shapes = (
{
closed = 1;
nodes = (
(570,0,l),
(600,142,l),
(250,378,l),
(237,305,l),
(684,540,l),
(721,714,l),
(682,714,l),
(56,382,l),
(45,332,l),
(531,0,l)
);
},
{
closed = 1;
nodes = (
(230,515,o),
(265,550,o),
(265,592,cs),
(265,635,o),
(230,670,o),
(188,670,cs),
(146,670,o),
(111,635,o),
(111,592,cs),
(111,549,o),
(146,515,o),
(188,515,cs)
);
},
{
closed = 1;
nodes = (
(458,636,l),
(468,684,ls),
(487,771,o),
(441,834,o),
(357,834,cs),
(328,834,l),
(389,797,l),
(413,906,l),
(302,906,l),
(270,753,l),
(296,753,ls),
(348,753,o),
(367,725,o),
(356,675,cs),
(348,636,l)
);
},
{
closed = 1;
nodes = (
(661,740,o),
(696,775,o),
(696,818,cs),
(696,860,o),
(661,895,o),
(619,895,cs),
(577,895,o),
(542,860,o),
(542,818,cs),
(542,775,o),
(577,740,o),
(619,740,cs)
);
}
);
width = 667;
}
);
metricRight = "pa-canadian";
metricWidth = "pa-canadian";
note = uni150C;
unicode = 5388;
},
{
glyphname = "she-canadian";
kernRight = caright;
lastChange = "2023-01-13 15:28:25 +0000";
layers = (
{
anchors = (
{
name = top_left_can;
pos = (391,714);
},
{
name = top_right_can;
pos = (855,714);
}
);
layerId = "D19189FD-F605-4705-8DF9-B27AB1AA0ED8";
shapes = (
{
closed = 1;
nodes = (
(738,-15,o),
(829,82,o),
(862,239,cs),
(879,321,l),
(715,321,l),
(697,240,ls),
(681,162,o),
(652,129,o),
(602,129,cs),
(546,129,o),
(528,170,o),
(540,250,cs),
(571,443,ls),
(598,626,o),
(521,729,o),
(361,729,cs),
(213,729,o),
(122,632,o),
(89,475,cs),
(72,393,l),
(236,393,l),
(253,474,ls),
(270,552,o),
(298,585,o),
(348,585,cs),
(404,585,o),
(422,544,o),
(411,464,cs),
(380,271,ls),
(353,88,o),
(430,-15,o),
(590,-15,cs)
);
}
);
width = 907;
}
);
metricRight = "=|";
note = uni1510;
unicode = 5392;
},
{
glyphname = "shi-canadian";
kernLeft = coleft;
lastChange = "2023-01-13 15:28:49 +0000";
layers = (
{
anchors = (
{
name = top_left_can;
pos = (249,714);
},
{
name = top_right_can;
pos = (712,714);
}
);
layerId = "D19189FD-F605-4705-8DF9-B27AB1AA0ED8";
shapes = (
{
closed = 1;
nodes = (
(402,-15,o),
(487,67,o),
(532,250,cs),
(585,467,ls),
(606,550,o),
(635,585,o),
(684,585,cs),
(739,585,o),
(763,547,o),
(745,464,cs),
(730,393,l),
(895,393,l),
(905,438,ls),
(941,612,o),
(856,729,o),
(691,729,cs),
(550,729,o),
(466,647,o),
(421,465,cs),
(366,247,ls),
(346,164,o),
(317,129,o),
(268,129,cs),
(213,129,o),
(189,167,o),
(207,250,cs),
(222,321,l),
(57,321,l),
(47,276,ls),
(12,101,o),
(96,-15,o),
(261,-15,cs)
);
}
);
width = 908;
}
);
metricLeft = "she-canadian";
metricRight = "she-canadian";
note = uni1511;
unicode = 5393;
},
{
glyphname = "sho-canadian";
lastChange = "2023-01-13 15:28:25 +0000";
layers = (
{
anchors = (
{
name = top_center_can;
pos = (523,529);
},
{
name = top_left_can;
pos = (346,529);
},
{
name = top_right_can;
pos = (698,529);
}
);
layerId = "D19189FD-F605-4705-8DF9-B27AB1AA0ED8";
shapes = (
{
closed = 1;
nodes = (
(339,124,l),
(244,125,o),
(194,151,o),
(194,196,cs),
(194,234,o),
(221,259,o),
(270,259,cs),
(388,259,o),
(488,106,o),
(674,106,cs),
(808,106,o),
(896,193,o),
(896,320,cs),
(896,442,o),
(792,522,o),
(619,524,c),
(591,385,l),
(685,384,o),
(735,358,o),
(735,314,cs),
(735,275,o),
(708,250,o),
(660,250,cs),
(542,250,o),
(441,403,o),
(256,403,cs),
(120,403,o),
(34,315,o),
(34,190,cs),
(34,68,o),
(137,-13,o),
(310,-15,c)
);
}
);
width = 930;
}
);
metricLeft = "ke-canadian";
metricRight = "=|ke-canadian";
note = uni1513;
unicode = 5395;
},
{
glyphname = "sha-canadian";
lastChange = "2023-01-13 15:28:25 +0000";
layers = (
{
anchors = (
{
name = top_center_can;
pos = (523,529);
},
{
name = top_left_can;
pos = (347,529);
},
{
name = top_right_can;
pos = (699,529);
}
);
layerId = "D19189FD-F605-4705-8DF9-B27AB1AA0ED8";
shapes = (
{
closed = 1;
nodes = (
(704,-23,o),
(876,48,o),
(876,226,cs),
(876,330,o),
(803,403,o),
(678,403,cs),
(512,403,o),
(373,250,o),
(276,250,cs),
(239,250,o),
(217,269,o),
(217,299,cs),
(217,362,o),
(280,388,o),
(381,385,c),
(411,524,l),
(226,532,o),
(54,462,o),
(54,283,cs),
(54,179,o),
(127,106,o),
(252,106,cs),
(417,106,o),
(556,259,o),
(653,259,cs),
(691,259,o),
(713,240,o),
(713,211,cs),
(713,147,o),
(648,121,o),
(548,124,c),
(518,-15,l)
);
}
);
width = 930;
}
);
metricLeft = "ke-canadian";
metricRight = "=|ke-canadian";
note = uni1515;
unicode = 5397;
},
{
glyphname = "sh-canadian";
kernLeft = mwestleft;
kernRight = mwestright;
lastChange = "2023-01-13 15:28:49 +0000";
layers = (
{
layerId = "D19189FD-F605-4705-8DF9-B27AB1AA0ED8";
shapes = (
{
closed = 1;
nodes = (
(597,286,o),
(725,345,o),
(725,482,cs),
(725,560,o),
(668,617,o),
(574,617,cs),
(456,617,o),
(347,509,o),
(273,509,cs),
(243,509,o),
(226,524,o),
(226,548,cs),
(226,595,o),
(277,627,o),
(364,623,c),
(385,724,l),
(241,732,o),
(111,674,o),
(111,536,cs),
(111,458,o),
(167,401,o),
(262,401,cs),
(379,401,o),
(489,509,o),
(562,509,cs),
(592,509,o),
(610,494,o),
(610,470,cs),
(610,423,o),
(560,391,o),
(473,395,c),
(452,294,l)
);
}
);
width = 728;
}
);
metricLeft = "t-canadian";
metricRight = "=|";
note = uni1525;
unicode = 5413;
},
{
glyphname = "ye-canadian";
kernLeft = yeleft;
lastChange = "2023-01-13 15:28:25 +0000";
layers = (
{
anchors = (
{
name = middle_right_can;
pos = (705,357);
},
{
name = top_left_can;
pos = (210,714);
},
{
name = top_right_can;
pos = (552,714);
}
);
layerId = "D19189FD-F605-4705-8DF9-B27AB1AA0ED8";
shapes = (
{
closed = 1;
nodes = (
(482,0,l),
(559,365,l),
(266,365,l),
(266,286,l),
(630,621,l),
(528.992,726,l),
(32,262,l),
(23,221,l),
(363,221,l),
(316,0,l)
);
}
);
width = 600;
}
);
note = uni1526;
unicode = 5414;
},
{
glyphname = "yi-canadian";
kernRight = yiright;
lastChange = "2023-01-13 15:28:25 +0000";
layers = (
{
anchors = (
{
name = top_left_can;
pos = (247,714);
},
{
name = top_right_can;
pos = (588,714);
}
);
layerId = "D19189FD-F605-4705-8DF9-B27AB1AA0ED8";
shapes = (
{
closed = 1;
nodes = (
(177,0,l),
(224,221,l),
(563,221,l),
(572,262,l),
(247,726,l),
(128,640,l),
(376,289,l),
(384,365,l),
(88,365,l),
(11,0,l)
);
}
);
width = 600;
}
);
metricRight = "=|ye-canadian";
metricWidth = "ye-canadian";
note = uni1528;
unicode = 5416;
},
{
glyphname = "yo-canadian";
kernLeft = yoleft;
lastChange = "2023-01-13 15:28:25 +0000";
layers = (
{
anchors = (
{
name = middle_right_can;
pos = (705,357);
},
{
name = top_double;
pos = (551,714);
},
{
name = top_left_can;
pos = (210,714);
},
{
name = top_right_can;
pos = (551,714);
}
);
layerId = "D19189FD-F605-4705-8DF9-B27AB1AA0ED8";
shapes = (
{
closed = 1;
nodes = (
(516,74,l),
(268,425,l),
(260,349,l),
(556,349,l),
(633,714,l),
(467,714,l),
(420,493,l),
(81,493,l),
(72,452,l),
(397,-12,l)
);
}
);
width = 600;
}
);
metricLeft = "ye-canadian";
metricWidth = "ye-canadian";
note = uni152A;
unicode = 5418;
},
{
glyphname = "ya-canadian";
kernRight = yaright;
lastChange = "2023-01-13 15:28:25 +0000";
layers = (
{
anchors = (
{
name = top_left_can;
pos = (247,714);
},
{
name = top_right_can;
pos = (586,714);
}
);
layerId = "D19189FD-F605-4705-8DF9-B27AB1AA0ED8";
shapes = (
{
closed = 1;
nodes = (
(612,452,l),
(621,493,l),
(281,493,l),
(329,714,l),
(162,714,l),
(85,349,l),
(378,349,l),
(378,428,l),
(15,93,l),
(115,-12,l)
);
}
);
width = 600;
}
);
metricRight = "=|ye-canadian";
metricWidth = "ye-canadian";
note = uni152D;
unicode = 5421;
},
{
glyphname = "y-canadian";
kernLeft = mwestleft;
kernRight = mwestright;
lastChange = "2023-01-13 15:28:25 +0000";
layers = (
{
layerId = "D19189FD-F605-4705-8DF9-B27AB1AA0ED8";
shapes = (
{
closed = 1;
nodes = (
(396,575,l),
(402,603,l),
(244,603,l),
(268,714,l),
(155,714,l),
(112,514,l),
(262,514,l),
(263,580,l),
(90,414,l),
(160,346,l)
);
}
);
width = 351;
}
);
note = uni153E;
unicode = 5438;
},
{
glyphname = "biblecreey-canadian";
lastChange = "2023-01-13 15:28:49 +0000";
layers = (
{
layerId = "D19189FD-F605-4705-8DF9-B27AB1AA0ED8";
shapes = (
{
closed = 1;
nodes = (
(174,357,l),
(282,602,l),
(221,602,l),
(262,357,l),
(334,357,l),
(483,602,l),
(414,602,l),
(423,357,l),
(522,357,l),
(528,383,l),
(517,714,l),
(441,714,l),
(283,450,l),
(344,450,l),
(301,714,l),
(225,714,l),
(73,383,l),
(67,357,l)
);
}
);
width = 546;
}
);
metricRight = "=|";
note = uni153F;
unicode = 5439;
},
{
glyphname = "yWestCree-canadian";
lastChange = "2023-01-13 15:28:49 +0000";
layers = (
{
layerId = "D19189FD-F605-4705-8DF9-B27AB1AA0ED8";
shapes = (
{
closed = 1;
nodes = (
(267,199,l),
(292,315,l),
(405,315,l),
(428,422,l),
(315,422,l),
(339,536,l),
(229,536,l),
(205,422,l),
(91,422,l),
(69,315,l),
(182,315,l),
(157,199,l)
);
}
);
width = 447;
}
);
metricLeft = "shorthorizontalstrokeFinal-canadian";
metricRight = "shorthorizontalstrokeFinal-canadian";
note = uni1540;
unicode = 5440;
},
{
glyphname = "re-canadian";
kernRight = niright;
lastChange = "2023-01-13 15:28:49 +0000";
layers = (
{
anchors = (
{
name = top_center_can;
pos = (376,529);
},
{
name = top_left_can;
pos = (200,529);
},
{
name = top_right_can;
pos = (809,529);
}
);
layerId = "D19189FD-F605-4705-8DF9-B27AB1AA0ED8";
shapes = (
{
closed = 1;
nodes = (
(439,-15,o),
(536,68,o),
(570,227,cs),
(599,362,l),
(858,362,l),
(889,509,l),
(468,509,l),
(409,232,ls),
(394,162,o),
(358,128,o),
(304,128,cs),
(237,128,o),
(209,168,o),
(225,244,cs),
(281,509,l),
(115,509,l),
(62,259,ls),
(27,97,o),
(121,-15,o),
(293,-15,cs)
);
}
);
width = 877;
}
);
metricRight = "=|ne-canadian";
note = uni1542;
unicode = 5442;
},
{
glyphname = "reRCree-canadian";
kernLeft = neleft;
lastChange = "2023-01-13 15:28:49 +0000";
layers = (
{
anchors = (
{
name = top_center_can;
pos = (614,529);
},
{
name = top_left_can;
pos = (182,529);
},
{
name = top_right_can;
pos = (791,529);
}
);
layerId = "D19189FD-F605-4705-8DF9-B27AB1AA0ED8";
shapes = (
{
closed = 1;
nodes = (
(679,-15,o),
(776,68,o),
(810,227,cs),
(870,509,l),
(704,509,l),
(645,232,ls),
(630,162,o),
(594,128,o),
(540,128,cs),
(472,128,o),
(444,169,o),
(460,244,cs),
(517,509,l),
(96,509,l),
(65,362,l),
(324,362,l),
(302,259,ls),
(267,97,o),
(361,-15,o),
(533,-15,cs)
);
}
);
width = 877;
}
);
metricLeft = "ne-canadian";
metricRight = "=|re-canadian";
note = uni1543;
unicode = 5443;
},
{
glyphname = "leWestCree-canadian";
kernLeft = noleft;
lastChange = "2023-01-13 15:28:49 +0000";
layers = (
{
anchors = (
{
name = top_center_can;
pos = (616,529);
},
{
name = top_left_can;
pos = (183,529);
},
{
name = top_right_can;
pos = (792,529);
}
);
layerId = "D19189FD-F605-4705-8DF9-B27AB1AA0ED8";
shapes = (
{
closed = 1;
nodes = (
(409,0,l),
(468,278,ls),
(483,347,o),
(519,381,o),
(573,381,cs),
(641,381,o),
(669,341,o),
(653,265,cs),
(596,0,l),
(762,0,l),
(815,250,ls),
(850,412,o),
(756,524,o),
(585,524,cs),
(438,524,o),
(341,441,o),
(307,282,cs),
(279,147,l),
(19,147,l),
(-12,0,l)
);
}
);
width = 877;
}
);
metricLeft = "ne-canadian";
metricRight = "=|re-canadian";
note = uni1544;
unicode = 5444;
},
{
glyphname = "ri-canadian";
kernRight = naright;
lastChange = "2023-01-13 15:28:49 +0000";
layers = (
{
anchors = (
{
name = top_center_can;
pos = (379,529);
},
{
name = top_left_can;
pos = (203,529);
},
{
name = top_right_can;
pos = (812,529);
}
);
layerId = "D19189FD-F605-4705-8DF9-B27AB1AA0ED8";
shapes = (
{
closed = 1;
nodes = (
(174,0,l),
(233,278,ls),
(247,347,o),
(284,381,o),
(339,381,cs),
(405,381,o),
(433,341,o),
(417,265,cs),
(360,0,l),
(781,0,l),
(812,147,l),
(554,147,l),
(576,250,ls),
(610,412,o),
(516,524,o),
(349,524,cs),
(198,524,o),
(102,441,o),
(68,282,cs),
(7,0,l)
);
}
);
width = 877;
}
);
metricLeft = "re-canadian";
metricRight = "=|ne-canadian";
note = uni1546;
unicode = 5446;
},
{
glyphname = "ro-canadian";
lastChange = "2023-01-13 15:28:25 +0000";
layers = (
{
anchors = (
{
name = top_center_can;
pos = (353,714);
}
);
layerId = "D19189FD-F605-4705-8DF9-B27AB1AA0ED8";
shapes = (
{
closed = 1;
nodes = (
(177,0,l),
(239,294,l),
(153,221,l),
(270,221,ls),
(474,221,o),
(579,337,o),
(579,500,cs),
(579,629,o),
(488,714,o),
(341,714,cs),
(162,714,l),
(131,567,l),
(317,567,ls),
(381,567,o),
(415,536,o),
(415,486,cs),
(415,409,o),
(366,367,o),
(279,367,cs),
(89,367,l),
(10,0,l)
);
}
);
width = 577;
}
);
metricLeft = "nunavuth-canadian";
note = uni1548;
unicode = 5448;
},
{
glyphname = "loWestCree-canadian";
lastChange = "2023-01-13 15:28:25 +0000";
layers = (
{
anchors = (
{
name = top_center_can;
pos = (356,714);
},
{
name = top_left_can;
pos = (246,714);
}
);
layerId = "D19189FD-F605-4705-8DF9-B27AB1AA0ED8";
shapes = (
{
closed = 1;
nodes = (
(223,0,ls),
(427,0,o),
(532,115,o),
(532,279,cs),
(532,407,o),
(441,493,o),
(295,493,cs),
(208,493,l),
(266,419,l),
(328,714,l),
(162,714,l),
(85,348,l),
(271,348,ls),
(335,348,o),
(369,317,o),
(369,266,cs),
(369,190,o),
(319,147,o),
(233,147,cs),
(42,147,l),
(11,0,l)
);
}
);
width = 577;
}
);
metricLeft = "nunavuth-canadian";
metricRight = "ro-canadian";
note = uni154A;
unicode = 5450;
},
{
glyphname = "ra-canadian";
lastChange = "2023-01-13 15:28:50 +0000";
layers = (
{
anchors = (
{
name = top_center_can;
pos = (418,714);
},
{
name = top_right_can;
pos = (526,714);
}
);
layerId = "D19189FD-F605-4705-8DF9-B27AB1AA0ED8";
shapes = (
{
closed = 1;
nodes = (
(457,0,l),
(534,366,l),
(349,366,ls),
(285,366,o),
(251,397,o),
(251,448,cs),
(251,524,o),
(300,567,o),
(387,567,cs),
(577,567,l),
(608,714,l),
(397,714,ls),
(193,714,o),
(88,599,o),
(88,435,cs),
(88,307,o),
(178,221,o),
(325,221,cs),
(411,221,l),
(353,295,l),
(291,0,l)
);
}
);
width = 575;
}
);
metricLeft = "=|ro-canadian";
metricRight = "nunavuth-canadian";
note = uni154B;
unicode = 5451;
},
{
glyphname = "laWestCree-canadian";
lastChange = "2023-01-13 15:28:50 +0000";
layers = (
{
anchors = (
{
name = top_center_can;
pos = (527,714);
}
);
layerId = "D19189FD-F605-4705-8DF9-B27AB1AA0ED8";
shapes = (
{
closed = 1;
nodes = (
(458,0,l),
(489,147,l),
(303,147,ls),
(239,147,o),
(204,178,o),
(204,228,cs),
(204,305,o),
(254,347,o),
(340,347,cs),
(531,347,l),
(609,714,l),
(443,714,l),
(381,420,l),
(467,493,l),
(350,493,ls),
(146,493,o),
(41,377,o),
(41,214,cs),
(41,85,o),
(132,0,o),
(279,0,cs)
);
}
);
width = 576;
}
);
metricLeft = "=|ro-canadian";
metricRight = "nunavuth-canadian";
note = uni154D;
unicode = 5453;
},
{
glyphname = "r-canadian";
kernLeft = mwestleft;
kernRight = mwestright;
lastChange = "2023-01-13 15:28:25 +0000";
layers = (
{
layerId = "D19189FD-F605-4705-8DF9-B27AB1AA0ED8";
shapes = (
{
closed = 1;
nodes = (
(313,357,l),
(354,550,l),
(260,550,ls),
(234,550,o),
(222,563,o),
(222,582,cs),
(222,612,o),
(242,626,o),
(276,626,cs),
(370,626,l),
(388,714,l),
(295,714,ls),
(192,714,o),
(117,671,o),
(117,573,cs),
(117,509,o),
(163,464,o),
(240,464,cs),
(281,464,l),
(230,499,l),
(200,357,l)
);
}
);
width = 346;
}
);
metricLeft = "=|k-canadian";
note = uni1550;
unicode = 5456;
},
{
glyphname = "rWestCree-canadian";
kernLeft = mwestleft;
kernRight = mwestright;
lastChange = "2023-01-13 15:28:49 +0000";
layers = (
{
layerId = "D19189FD-F605-4705-8DF9-B27AB1AA0ED8";
shapes = (
{
closed = 1;
nodes = (
(154,714,l),
(140,647,l),
(283,580,l),
(294,634,l),
(122,564,l),
(113,519,l),
(255,451,l),
(268,506,l),
(95,437,l),
(78,357,l),
(97,357,l),
(347,453,l),
(354,487,l),
(204,556,l),
(195,516,l),
(375,584,l),
(382,618,l),
(173,714,l)
);
}
);
width = 361;
}
);
metricLeft = "=|lWestCree-canadian";
metricRight = "=|lWestCree-canadian";
note = uni1551;
unicode = 5457;
},
{
glyphname = "rMedial-canadian";
lastChange = "2023-01-13 15:28:49 +0000";
layers = (
{
layerId = "D19189FD-F605-4705-8DF9-B27AB1AA0ED8";
shapes = (
{
closed = 1;
nodes = (
(41,-15,l),
(562,185,l),
(574,242,l),
(256,388,l),
(244,328,l),
(623,472,l),
(635,529,l),
(199,729,l),
(159,729,l),
(136,617,l),
(451,472,l),
(468,552,l),
(89,399,l),
(76,335,l),
(392,192,l),
(408,265,l),
(30,120,l),
(2,-15,l)
);
}
);
width = 635;
}
);
metricLeft = "mediall-canadian";
metricRight = "mediall-canadian";
note = uni1552;
unicode = 5458;
},
{
glyphname = "fe-canadian";
kernLeft = ecanleft;
kernRight = ecanright;
lastChange = "2023-01-13 15:28:25 +0000";
layers = (
{
layerId = "D19189FD-F605-4705-8DF9-B27AB1AA0ED8";
shapes = (
{
closed = 1;
nodes = (
(360,0,l),
(873,674,l),
(881,714,l),
(731,714,l),
(348,191,l),
(374,191,l),
(309,361,l),
(199,370,l),
(224,338,o),
(255,323,o),
(301,323,cs),
(429,323,o),
(512,447,o),
(512,563,cs),
(512,660,o),
(451,729,o),
(341,729,cs),
(202,729,o),
(126,602,o),
(126,483,cs),
(126,440,o),
(136,400,o),
(156,355,cs),
(311,0,l)
);
},
{
closed = 1;
nodes = (
(276,433,o),
(258,455,o),
(258,492,cs),
(258,530,o),
(279,609,o),
(333,609,cs),
(363,609,o),
(381,588,o),
(381,552,cs),
(381,512,o),
(361,433,o),
(306,433,cs)
);
}
);
width = 809;
}
);
metricRight = "e-canadian";
note = uni1553;
unicode = 5459;
},
{
glyphname = "fi-canadian";
kernLeft = icanleft;
kernRight = icanright;
lastChange = "2023-01-13 15:28:49 +0000";
layers = (
{
anchors = (
{
name = top_center_can;
pos = (480,714);
},
{
name = top_left_can;
pos = (243,714);
},
{
name = top_right_can;
pos = (737,714);
}
);
layerId = "D19189FD-F605-4705-8DF9-B27AB1AA0ED8";
shapes = (
{
closed = 1;
nodes = (
(374,-15,o),
(439,116,o),
(439,222,cs),
(439,322,o),
(377,397,o),
(291,397,cs),
(256,397,o),
(224,383,o),
(194,356,c),
(321,355,l),
(462,523,l),
(421,524,l),
(601,0,l),
(729,0,l),
(737,40,l),
(504,714,l),
(455,714,l),
(147,367,ls),
(90,301,o),
(55,231,o),
(55,155,cs),
(55,56,o),
(122,-15,o),
(226,-15,cs)
);
},
{
closed = 1;
nodes = (
(204,105,o),
(186,126,o),
(186,163,cs),
(186,202,o),
(207,281,o),
(261,281,cs),
(291,281,o),
(309,259,o),
(309,223,cs),
(309,183,o),
(288,105,o),
(234,105,cs)
);
}
);
width = 808;
}
);
metricLeft = "fe-canadian";
metricRight = "e-canadian";
note = uni1555;
unicode = 5461;
},
{
glyphname = "fo-canadian";
kernLeft = ocanleft;
kernRight = ocanright;
lastChange = "2023-01-13 15:28:25 +0000";
layers = (
{
anchors = (
{
name = top_center_can;
pos = (333,714);
}
);
layerId = "D19189FD-F605-4705-8DF9-B27AB1AA0ED8";
shapes = (
{
closed = 1;
nodes = (
(65,0,l),
(687,332,l),
(697,381,l),
(457,654,ls),
(412,705,o),
(370,729,o),
(310,729,cs),
(183,729,o),
(106,616,o),
(100,502,cs),
(92,392,o),
(156,316,o),
(258,316,cs),
(381,316,o),
(460,413,o),
(466,532,cs),
(468,556,o),
(467,580,o),
(464,600,c),
(398,523,l),
(532,370,l),
(542,400,l),
(57,146,l),
(26,0,l)
);
},
{
closed = 1;
nodes = (
(245,433,o),
(228,460,o),
(232,507,cs),
(235,552,o),
(255,610,o),
(304,610,cs),
(337,610,o),
(354,583,o),
(350,536,cs),
(347,491,o),
(328,433,o),
(278,433,cs)
);
}
);
width = 699;
}
);
metricRight = "o-canadian";
note = uni1557;
unicode = 5463;
},
{
glyphname = "fa-canadian";
kernLeft = acanleft;
kernRight = acanright;
lastChange = "2023-01-13 15:28:49 +0000";
layers = (
{
anchors = (
{
name = top_center_can;
pos = (559,714);
}
);
layerId = "D19189FD-F605-4705-8DF9-B27AB1AA0ED8";
shapes = (
{
closed = 1;
nodes = (
(563,0,l),
(589,125,l),
(221,378,l),
(215,348,l),
(410,506,l),
(388,630,l),
(361,590,o),
(339,527,o),
(339,478,cs),
(339,383,o),
(407,312,o),
(513,312,cs),
(638,312,o),
(714,444,o),
(714,554,cs),
(714,657,o),
(648,729,o),
(545,729,cs),
(493,729,o),
(448,710,o),
(401,670,cs),
(56,381,l),
(46,332,l),
(523,0,l)
);
},
{
closed = 1;
nodes = (
(479,432,o),
(461,454,o),
(461,490,cs),
(461,529,o),
(482,609,o),
(536,609,cs),
(566,609,o),
(584,587,o),
(584,551,cs),
(584,511,o),
(564,432,o),
(510,432,cs)
);
}
);
width = 700;
}
);
metricRight = "=|fo-canadian";
note = uni1559;
unicode = 5465;
},
{
glyphname = "f-canadian";
kernLeft = mwestleft;
kernRight = mwestright;
lastChange = "2023-01-13 15:28:25 +0000";
layers = (
{
layerId = "D19189FD-F605-4705-8DF9-B27AB1AA0ED8";
shapes = (
{
closed = 1;
nodes = (
(364,357,l),
(379,429,l),
(194,553,l),
(190,528,l),
(287,613,l),
(278,674,l),
(265,657,o),
(252,623,o),
(252,596,cs),
(252,549,o),
(286,512,o),
(334,512,cs),
(398,512,o),
(436,570,o),
(436,634,cs),
(436,688,o),
(404,720,o),
(356,720,cs),
(329,720,o),
(303,711,o),
(276,688,cs),
(108,546,l),
(103,521,l),
(344,357,l)
);
},
{
closed = 1;
nodes = (
(322,572,o),
(313,583,o),
(313,600,cs),
(313,627,o),
(328,660,o),
(350,660,cs),
(364,660,o),
(373,649,o),
(373,630,cs),
(373,608,o),
(360,572,o),
(336,572,cs)
);
}
);
width = 408;
}
);
note = uni155D;
unicode = 5469;
},
{
glyphname = "the-canadian";
lastChange = "2023-01-13 15:28:49 +0000";
layers = (
{
anchors = (
{
name = middle_right_can;
pos = (876,357);
},
{
name = top_center_can;
pos = (479,714);
},
{
name = top_left_can;
pos = (237,714);
},
{
name = top_right_can;
pos = (718,714);
}
);
layerId = "D19189FD-F605-4705-8DF9-B27AB1AA0ED8";
shapes = (
{
closed = 1;
nodes = (
(556,-15,o),
(666,83,o),
(711,295,cs),
(800,714,l),
(634,714,l),
(545,296,ls),
(521,184,o),
(466,132,o),
(361,132,cs),
(237,132,o),
(211,205,o),
(236,314,cs),
(259,414,l),
(184,366,l),
(202,327,o),
(238,302,o),
(287,302,cs),
(417,302,o),
(489,418,o),
(497,541,cs),
(505,655,o),
(443,729,o),
(331,729,cs),
(214,729,o),
(142,651,o),
(112,511,cs),
(78,348,ls),
(34,139,o),
(117,-15,o),
(357,-15,cs)
);
},
{
closed = 1;
nodes = (
(261,422,o),
(244,444,o),
(244,482,cs),
(244,522,o),
(265,609,o),
(320,609,cs),
(349,609,o),
(366,587,o),
(366,550,cs),
(366,509,o),
(346,422,o),
(291,422,cs)
);
}
);
width = 759;
}
);
metricLeft = "te-canadian";
metricRight = "te-canadian";
note = uni155E;
unicode = 5470;
},
{
glyphname = "theNCree-canadian";
lastChange = "2023-01-13 15:28:25 +0000";
layers = (
{
layerId = "D19189FD-F605-4705-8DF9-B27AB1AA0ED8";
shapes = (
{
closed = 1;
nodes = (
(557,-15,o),
(667,88,o),
(714,311,cs),
(749,471,ls),
(780,615,o),
(728,729,o),
(591,729,cs),
(450,729,o),
(375,598,o),
(375,472,cs),
(375,375,o),
(428,302,o),
(524,302,cs),
(564,302,o),
(599,317,o),
(625,346,c),
(570,405,l),
(546,292,ls),
(522,180,o),
(467,131,o),
(369,131,cs),
(243,131,o),
(214,209,o),
(238,320,cs),
(321,714,l),
(155,714,l),
(73,330,ls),
(28,118,o),
(137,-15,o),
(356,-15,cs)
);
},
{
closed = 1;
nodes = (
(524,422,o),
(508,444,o),
(508,482,cs),
(508,522,o),
(528,609,o),
(583,609,cs),
(613,609,o),
(629,587,o),
(629,550,cs),
(629,509,o),
(609,422,o),
(554,422,cs)
);
}
);
width = 760;
}
);
metricLeft = "te-canadian";
metricRight = "te-canadian";
note = uni155F;
unicode = 5471;
},
{
glyphname = "thi-canadian";
lastChange = "2023-01-13 15:28:49 +0000";
layers = (
{
anchors = (
{
name = top_center_can;
pos = (474,714);
}
);
layerId = "D19189FD-F605-4705-8DF9-B27AB1AA0ED8";
shapes = (
{
closed = 1;
nodes = (
(353,-15,o),
(429,116,o),
(429,242,cs),
(429,339,o),
(375,412,o),
(280,412,cs),
(240,412,o),
(205,397,o),
(178,368,c),
(233,309,l),
(258,422,ls),
(281,534,o),
(337,583,o),
(435,583,cs),
(561,583,o),
(589,505,o),
(565,394,cs),
(482,0,l),
(648,0,l),
(730,384,ls),
(775,596,o),
(667,729,o),
(448,729,cs),
(247,729,o),
(137,626,o),
(90,403,cs),
(55,243,ls),
(24,99,o),
(76,-15,o),
(213,-15,cs)
);
},
{
closed = 1;
nodes = (
(191,105,o),
(175,127,o),
(175,164,cs),
(175,205,o),
(195,292,o),
(250,292,cs),
(280,292,o),
(296,270,o),
(296,232,cs),
(296,192,o),
(276,105,o),
(221,105,cs)
);
}
);
width = 759;
}
);
metricLeft = "te-canadian";
metricRight = "te-canadian";
note = uni1560;
unicode = 5472;
},
{
glyphname = "thiNCree-canadian";
lastChange = "2023-01-13 15:28:49 +0000";
layers = (
{
anchors = (
{
name = top_center_can;
pos = (474,714);
}
);
layerId = "D19189FD-F605-4705-8DF9-B27AB1AA0ED8";
shapes = (
{
closed = 1;
nodes = (
(590,-15,o),
(662,63,o),
(691,203,cs),
(726,366,ls),
(771,575,o),
(687,729,o),
(447,729,cs),
(248,729,o),
(137,631,o),
(92,419,cs),
(3,0,l),
(169,0,l),
(258,418,ls),
(283,530,o),
(337,582,o),
(442,582,cs),
(567,582,o),
(593,509,o),
(568,400,cs),
(545,300,l),
(619,348,l),
(601,387,o),
(566,412,o),
(517,412,cs),
(387,412,o),
(315,296,o),
(307,173,cs),
(299,59,o),
(361,-15,o),
(473,-15,cs)
);
},
{
closed = 1;
nodes = (
(454,105,o),
(438,127,o),
(438,164,cs),
(438,205,o),
(458,292,o),
(513,292,cs),
(543,292,o),
(560,270,o),
(560,232,cs),
(560,192,o),
(539,105,o),
(484,105,cs)
);
}
);
width = 759;
}
);
metricLeft = "te-canadian";
metricRight = "te-canadian";
note = uni1561;
unicode = 5473;
},
{
glyphname = "tho-canadian";
lastChange = "2023-01-13 15:28:49 +0000";
layers = (
{
anchors = (
{
name = top_center_can;
pos = (411,714);
}
);
layerId = "D19189FD-F605-4705-8DF9-B27AB1AA0ED8";
shapes = (
{
closed = 1;
nodes = (
(253,0,ls),
(539,0,o),
(675,203,o),
(675,426,cs),
(675,611,o),
(554,729,o),
(384,729,cs),
(211,729,o),
(99,608,o),
(99,453,cs),
(99,349,o),
(165,279,o),
(268,279,cs),
(399,279,o),
(471,400,o),
(471,511,cs),
(471,587,o),
(431,644,o),
(353,656,c),
(326,609,l),
(338,613,o),
(355,617,o),
(373,617,cs),
(446,616,o),
(515,550,o),
(515,432,cs),
(515,314,o),
(467,149,o),
(267,149,cs),
(63,149,l),
(32,0,l)
);
},
{
closed = 1;
nodes = (
(247,398,o),
(231,419,o),
(231,455,cs),
(231,496,o),
(251,592,o),
(310,592,cs),
(340,592,o),
(355,571,o),
(355,535,cs),
(355,497,o),
(335,398,o),
(276,398,cs)
);
}
);
width = 701;
}
);
metricRight = "to-canadian";
note = uni1564;
unicode = 5476;
},
{
glyphname = "tha-canadian";
lastChange = "2023-01-13 15:28:50 +0000";
layers = (
{
anchors = (
{
name = top_center_can;
pos = (489,714);
}
);
layerId = "D19189FD-F605-4705-8DF9-B27AB1AA0ED8";
shapes = (
{
closed = 1;
nodes = (
(560,0,l),
(591,149,l),
(396,149,ls),
(291,149,o),
(233,206,o),
(233,308,cs),
(233,412,o),
(296,610,o),
(457,610,cs),
(481,610,o),
(506,605,o),
(525,597,c),
(505,652,l),
(387,651,o),
(323,539,o),
(323,438,cs),
(323,344,o),
(384,279,o),
(486,279,cs),
(618,279,o),
(701,391,o),
(701,519,cs),
(701,646,o),
(606,729,o),
(459,729,cs),
(190,729,o),
(68,475,o),
(68,284,cs),
(68,111,o),
(177,0,o),
(364,0,cs)
);
},
{
closed = 1;
nodes = (
(463,398,o),
(447,419,o),
(447,455,cs),
(447,496,o),
(467,592,o),
(526,592,cs),
(556,592,o),
(571,571,o),
(571,535,cs),
(571,497,o),
(551,398,o),
(492,398,cs)
);
}
);
width = 701;
}
);
metricLeft = "=|theCarrier-canadian";
metricRight = "=|tho-canadian";
note = uni1566;
unicode = 5478;
},
{
glyphname = "th-canadian";
kernLeft = mwestleft;
kernRight = mwestright;
lastChange = "2023-01-13 15:28:25 +0000";
layers = (
{
layerId = "D19189FD-F605-4705-8DF9-B27AB1AA0ED8";
shapes = (
{
closed = 1;
nodes = (
(350,357,l),
(369,447,l),
(282,447,ls),
(230,447,o),
(203,470,o),
(203,515,cs),
(203,571,o),
(238,654,o),
(316,654,cs),
(324,654,o),
(342,651,o),
(347,650,c),
(327,677,l),
(260,677,o),
(238,617,o),
(238,580,cs),
(238,528,o),
(269,495,o),
(318,495,cs),
(388,495,o),
(421,566,o),
(421,620,cs),
(421,680,o),
(378,720,o),
(305,720,cs),
(173,720,o),
(105,599,o),
(105,502,cs),
(105,414,o),
(165,357,o),
(262,357,cs)
);
},
{
closed = 1;
nodes = (
(305,554,o),
(297,564,o),
(297,582,cs),
(297,607,o),
(310,642,o),
(333,642,cs),
(348,642,o),
(356,632,o),
(356,614,cs),
(356,589,o),
(344,554,o),
(320,554,cs)
);
}
);
width = 396;
}
);
metricLeft = "t-canadian";
note = uni156A;
unicode = 5482;
},
{
glyphname = "tthe-canadian";
lastChange = "2023-01-13 15:28:49 +0000";
layers = (
{
anchors = (
{
name = middle_right_can;
pos = (866,357);
},
{
name = top_center_can;
pos = (473,714);
},
{
name = top_left_can;
pos = (239,714);
},
{
name = top_right_can;
pos = (708,714);
}
);
layerId = "D19189FD-F605-4705-8DF9-B27AB1AA0ED8";
shapes = (
{
closed = 1;
nodes = (
(547,-15,o),
(657,84,o),
(702,296,cs),
(791,714,l),
(629,714,l),
(540,299,ls),
(516,186,o),
(460,135,o),
(365,135,cs),
(251,135,o),
(207,198,o),
(233,318,cs),
(317,714,l),
(155,714,l),
(73,330,ls),
(28,115,o),
(139,-15,o),
(351,-15,cs)
);
},
{
closed = 1;
nodes = (
(471,393,l),
(540,714,l),
(406,714,l),
(338,393,l)
);
}
);
width = 750;
}
);
metricLeft = "te-canadian";
metricRight = "te-canadian";
note = uni156B;
unicode = 5483;
},
{
glyphname = "tthi-canadian";
lastChange = "2023-01-13 15:28:49 +0000";
layers = (
{
layerId = "D19189FD-F605-4705-8DF9-B27AB1AA0ED8";
shapes = (
{
closed = 1;
nodes = (
(165,0,l),
(254,415,ls),
(278,528,o),
(334,579,o),
(429,579,cs),
(543,579,o),
(587,516,o),
(561,396,cs),
(477,0,l),
(639,0,l),
(721,384,ls),
(766,599,o),
(655,729,o),
(443,729,cs),
(247,729,o),
(137,630,o),
(92,418,cs),
(3,0,l)
);
},
{
closed = 1;
nodes = (
(388,0,l),
(456,321,l),
(323,321,l),
(254,0,l)
);
}
);
width = 750;
}
);
metricLeft = "te-canadian";
metricRight = "te-canadian";
note = uni156C;
unicode = 5484;
},
{
glyphname = "ttho-canadian";
lastChange = "2023-01-13 15:28:49 +0000";
layers = (
{
anchors = (
{
name = top_center_can;
pos = (398,714);
},
{
name = top_left_can;
pos = (225,714);
},
{
name = top_right_can;
pos = (619,714);
}
);
layerId = "D19189FD-F605-4705-8DF9-B27AB1AA0ED8";
shapes = (
{
closed = 1;
nodes = (
(190,0,ls),
(533,0,o),
(622,251,o),
(622,426,cs),
(622,605,o),
(507,714,o),
(307,714,cs),
(156,714,l),
(125,565,l),
(282,565,ls),
(397,565,o),
(455,510,o),
(455,410,cs),
(455,293,o),
(397,149,o),
(205,149,cs),
(36,149,l),
(5,0,l)
);
},
{
closed = 1;
nodes = (
(313,290,l),
(342,426,l),
(95,426,l),
(66,290,l)
);
}
);
width = 648;
}
);
metricRight = "to-canadian";
note = uni156D;
unicode = 5485;
},
{
glyphname = "ttha-canadian";
lastChange = "2023-01-13 15:28:49 +0000";
layers = (
{
anchors = (
{
name = top_center_can;
pos = (418,714);
},
{
name = top_left_can;
pos = (230,714);
},
{
name = top_right_can;
pos = (603,714);
}
);
layerId = "D19189FD-F605-4705-8DF9-B27AB1AA0ED8";
shapes = (
{
closed = 1;
nodes = (
(535,0,l),
(566,149,l),
(409,149,ls),
(294,149,o),
(236,204,o),
(236,304,cs),
(236,426,o),
(300,565,o),
(486,565,cs),
(655,565,l),
(687,714,l),
(501,714,ls),
(163,714,o),
(70,468,o),
(70,288,cs),
(70,109,o),
(184,0,o),
(384,0,cs)
);
},
{
closed = 1;
nodes = (
(596,290,l),
(624,426,l),
(377,426,l),
(348,290,l)
);
}
);
width = 647;
}
);
metricLeft = "=|to-canadian";
metricRight = "=|ttho-canadian";
note = uni156E;
unicode = 5486;
},
{
glyphname = "tth-canadian";
lastChange = "2023-01-13 15:28:25 +0000";
layers = (
{
layerId = "D19189FD-F605-4705-8DF9-B27AB1AA0ED8";
shapes = (
{
closed = 1;
nodes = (
(291,475,l),
(246,476,l),
(312,344,l),
(399,388,l),
(329,527,l),
(303,484,l),
(468,540,l),
(440,627,l),
(291,576,l),
(324,550,l),
(359,714,l),
(263,714,l),
(228,550,l),
(269,573,l),
(127,627,l),
(94,540,l),
(224,491,l),
(219,536,l),
(100,408,l),
(169,344,l)
);
},
{
closed = 1;
nodes = (
(723,475,l),
(677,476,l),
(744,344,l),
(831,388,l),
(760,527,l),
(735,484,l),
(900,540,l),
(871,627,l),
(722,576,l),
(755,550,l),
(790,714,l),
(694,714,l),
(659,550,l),
(700,573,l),
(559,627,l),
(525,540,l),
(655,491,l),
(650,536,l),
(532,408,l),
(600,344,l)
);
}
);
width = 872;
}
);
metricRight = "=|";
note = uni156F;
unicode = 5487;
},
{
glyphname = "tye-canadian";
lastChange = "2023-01-13 15:28:49 +0000";
layers = (
{
layerId = "D19189FD-F605-4705-8DF9-B27AB1AA0ED8";
shapes = (
{
closed = 1;
nodes = (
(549,-15,o),
(657,85,o),
(703,300,cs),
(791,714,l),
(630,714,l),
(546,316,ls),
(519,191,o),
(462,135,o),
(361,135,cs),
(251,135,o),
(206,198,o),
(232,318,cs),
(316,714,l),
(155,714,l),
(73,330,ls),
(28,117,o),
(138,-15,o),
(355,-15,cs)
);
},
{
closed = 1;
nodes = (
(488,424,o),
(529,461,o),
(544,532,cs),
(583,714,l),
(507,714,l),
(471,544,ls),
(465,516,o),
(452,503,o),
(429,503,cs),
(405,503,o),
(397,517,o),
(403,546,cs),
(438,714,l),
(362,714,l),
(326,545,ls),
(311,472,o),
(350,424,o),
(424,424,cs)
);
}
);
width = 750;
}
);
metricLeft = "te-canadian";
metricRight = "te-canadian";
note = uni1570;
unicode = 5488;
},
{
glyphname = "tyi-canadian";
lastChange = "2023-01-13 15:28:49 +0000";
layers = (
{
layerId = "D19189FD-F605-4705-8DF9-B27AB1AA0ED8";
shapes = (
{
closed = 1;
nodes = (
(164,0,l),
(248,398,ls),
(275,523,o),
(332,579,o),
(433,579,cs),
(543,579,o),
(588,516,o),
(562,396,cs),
(478,0,l),
(639,0,l),
(721,384,ls),
(766,597,o),
(656,729,o),
(439,729,cs),
(245,729,o),
(137,629,o),
(91,414,cs),
(3,0,l)
);
},
{
closed = 1;
nodes = (
(287,0,l),
(323,170,ls),
(329,198,o),
(342,211,o),
(365,211,cs),
(389,211,o),
(397,197,o),
(391,168,cs),
(356,0,l),
(432,0,l),
(468,169,ls),
(483,242,o),
(444,290,o),
(370,290,cs),
(306,290,o),
(265,253,o),
(250,182,cs),
(211,0,l)
);
}
);
width = 750;
}
);
metricLeft = "te-canadian";
metricRight = "te-canadian";
note = uni1571;
unicode = 5489;
},
{
glyphname = "tyo-canadian";
lastChange = "2023-01-13 15:28:50 +0000";
layers = (
{
layerId = "D19189FD-F605-4705-8DF9-B27AB1AA0ED8";
shapes = (
{
closed = 1;
nodes = (
(196,0,ls),
(538,0,o),
(628,251,o),
(628,426,cs),
(628,605,o),
(513,714,o),
(312,714,cs),
(162,714,l),
(131,568,l),
(289,568,ls),
(402,568,o),
(461,510,o),
(461,410,cs),
(461,270,o),
(381,146,o),
(210,146,cs),
(42,146,l),
(11,0,l)
);
},
{
closed = 1;
nodes = (
(155,226,ls),
(260,226,o),
(318,282,o),
(322,368,cs),
(327,441,o),
(282,488,o),
(203,488,cs),
(114,488,l),
(97,407,l),
(184,407,ls),
(217,407,o),
(234,392,o),
(232,364,cs),
(230,329,o),
(208,307,o),
(163,307,cs),
(76,307,l),
(59,226,l)
);
}
);
width = 654;
}
);
metricLeft = "nunavuth-canadian";
metricRight = "theCarrier-canadian";
note = uni1572;
unicode = 5490;
},
{
glyphname = "tya-canadian";
lastChange = "2023-01-13 15:28:50 +0000";
layers = (
{
layerId = "D19189FD-F605-4705-8DF9-B27AB1AA0ED8";
shapes = (
{
closed = 1;
nodes = (
(535,0,l),
(566,146,l),
(409,146,ls),
(295,146,o),
(236,204,o),
(236,304,cs),
(236,444,o),
(316,568,o),
(488,568,cs),
(655,568,l),
(686,714,l),
(502,714,ls),
(159,714,o),
(70,463,o),
(70,288,cs),
(70,109,o),
(185,0,o),
(385,0,cs)
);
},
{
closed = 1;
nodes = (
(583,226,l),
(600,307,l),
(513,307,ls),
(481,307,o),
(464,322,o),
(466,350,cs),
(467,385,o),
(490,407,o),
(535,407,cs),
(621,407,l),
(638,488,l),
(542,488,ls),
(438,488,o),
(380,432,o),
(375,346,cs),
(370,273,o),
(415,226,o),
(495,226,cs)
);
}
);
width = 653;
}
);
metricLeft = "=|theCarrier-canadian";
metricRight = "nunavuth-canadian";
note = uni1573;
unicode = 5491;
},
{
glyphname = "heNunavik-canadian";
lastChange = "2023-01-13 15:28:25 +0000";
layers = (
{
layerId = "D19189FD-F605-4705-8DF9-B27AB1AA0ED8";
shapes = (
{
closed = 1;
nodes = (
(484,0,l),
(779,206,l),
(695,327,l),
(476,175,l),
(529,132,l),
(590,414,ls),
(623,570,o),
(569,729,o),
(374,729,cs),
(186,729,o),
(83,569,o),
(83,406,cs),
(83,277,o),
(162,190,o),
(283,190,cs),
(342,190,o),
(392,213,o),
(414,254,c),
(391,258,l),
(336,0,l)
);
},
{
closed = 1;
nodes = (
(275,330,o),
(245,363,o),
(245,419,cs),
(245,473,o),
(272,589,o),
(358,589,cs),
(409,589,o),
(439,555,o),
(439,499,cs),
(439,445,o),
(412,330,o),
(325,330,cs)
);
}
);
width = 808;
}
);
metricLeft = "ke-canadian";
note = uni1574;
unicode = 5492;
},
{
glyphname = "hiNunavik-canadian";
lastChange = "2023-01-13 15:28:25 +0000";
layers = (
{
anchors = (
{
name = top_center_can;
pos = (608,714);
}
);
layerId = "D19189FD-F605-4705-8DF9-B27AB1AA0ED8";
shapes = (
{
closed = 1;
nodes = (
(364,0,l),
(426,289,l),
(406,266,l),
(409,225,o),
(471,190,o),
(545,190,cs),
(726,190,o),
(811,365,o),
(811,503,cs),
(811,642,o),
(723,729,o),
(583,729,cs),
(436,729,o),
(334,639,o),
(300,480,cs),
(226,130,l),
(286,145,l),
(114,313,l),
(9,206,l),
(217,0,l)
);
},
{
closed = 1;
nodes = (
(486,330,o),
(457,363,o),
(457,419,cs),
(457,473,o),
(486,589,o),
(571,589,cs),
(621,589,o),
(651,555,o),
(651,499,cs),
(651,446,o),
(624,330,o),
(537,330,cs)
);
}
);
width = 808;
}
);
metricLeft = "=|heNunavik-canadian";
metricRight = "=|ke-canadian";
note = uni1575;
unicode = 5493;
},
{
glyphname = "hoNunavik-canadian";
lastChange = "2023-01-13 15:28:49 +0000";
layers = (
{
anchors = (
{
name = top_center_can;
pos = (396,714);
},
{
name = top_right_can;
pos = (572,714);
}
);
layerId = "D19189FD-F605-4705-8DF9-B27AB1AA0ED8";
shapes = (
{
closed = 1;
nodes = (
(416,-15,o),
(519,75,o),
(553,234,cs),
(627,584,l),
(566,569,l),
(738,401,l),
(844,508,l),
(635,714,l),
(488,714,l),
(427,425,l),
(447,448,l),
(443,489,o),
(382,524,o),
(307,524,cs),
(127,524,o),
(41,349,o),
(41,211,cs),
(41,72,o),
(129,-15,o),
(270,-15,cs)
);
},
{
closed = 1;
nodes = (
(232,125,o),
(201,159,o),
(201,215,cs),
(201,268,o),
(229,384,o),
(315,384,cs),
(366,384,o),
(396,351,o),
(396,295,cs),
(396,241,o),
(367,125,o),
(282,125,cs)
);
}
);
width = 809;
}
);
metricLeft = "ke-canadian";
metricRight = "heNunavik-canadian";
note = uni1577;
unicode = 5495;
},
{
glyphname = "haNunavik-canadian";
lastChange = "2023-01-13 15:28:25 +0000";
layers = (
{
anchors = (
{
name = top_center_can;
pos = (608,714);
},
{
name = top_left_can;
pos = (433,714);
}
);
layerId = "D19189FD-F605-4705-8DF9-B27AB1AA0ED8";
shapes = (
{
closed = 1;
nodes = (
(666,-15,o),
(769,145,o),
(769,308,cs),
(769,437,o),
(691,524,o),
(569,524,cs),
(510,524,o),
(460,501,o),
(438,460,c),
(461,456,l),
(516,714,l),
(368,714,l),
(73,508,l),
(157,387,l),
(376,539,l),
(323,582,l),
(262,300,ls),
(229,144,o),
(283,-15,o),
(478,-15,cs)
);
},
{
closed = 1;
nodes = (
(443,125,o),
(413,159,o),
(413,215,cs),
(413,269,o),
(441,384,o),
(527,384,cs),
(578,384,o),
(607,351,o),
(607,295,cs),
(607,241,o),
(580,125,o),
(494,125,cs)
);
}
);
width = 808;
}
);
metricLeft = "=|heNunavik-canadian";
metricRight = "=|ke-canadian";
note = uni1579;
unicode = 5497;
},
{
glyphname = "hNunavik-canadian";
kernLeft = mwestleft;
kernRight = mwestright;
lastChange = "2023-01-13 15:28:49 +0000";
layers = (
{
layerId = "D19189FD-F605-4705-8DF9-B27AB1AA0ED8";
shapes = (
{
closed = 1;
nodes = (
(430,351,o),
(489,434,o),
(489,515,cs),
(489,577,o),
(449,622,o),
(388,622,cs),
(352,622,o),
(320,608,o),
(307,575,c),
(326,554,l),
(360,714,l),
(257,714,l),
(107,610,l),
(157,541,l),
(291,637,l),
(242,682,l),
(205,509,ls),
(185,416,o),
(235,351,o),
(329,351,cs)
);
},
{
closed = 1;
nodes = (
(315,432,o),
(300,447,o),
(300,472,cs),
(300,509,o),
(322,541,o),
(352,541,cs),
(375,541,o),
(390,527,o),
(390,502,cs),
(390,466,o),
(368,432,o),
(337,432,cs)
);
}
);
width = 482;
}
);
metricRight = "k-canadian";
note = uni157B;
unicode = 5499;
},
{
color = 4;
glyphname = "nunavuth-canadian";
lastChange = "2023-01-13 15:28:49 +0000";
layers = (
{
layerId = "D19189FD-F605-4705-8DF9-B27AB1AA0ED8";
shapes = (
{
closed = 1;
nodes = (
(176,0,l),
(239,295,l),
(510,295,l),
(448,0,l),
(614,0,l),
(766,714,l),
(600,714,l),
(542,441,l),
(270,441,l),
(328,714,l),
(162,714,l),
(10,0,l)
);
}
);
width = 732;
}
);
metricRight = "=|";
note = uni157C;
unicode = 5500;
},
{
glyphname = "tlhe-canadian";
lastChange = "2023-01-13 15:28:49 +0000";
layers = (
{
anchors = (
{
name = top_center_can;
pos = (416,714);
}
);
layerId = "D19189FD-F605-4705-8DF9-B27AB1AA0ED8";
shapes = (
{
closed = 1;
nodes = (
(182,0,l),
(378,287,l),
(263,223,l),
(273,222,o),
(285,221,o),
(296,221,cs),
(359,221,o),
(412,242,o),
(433,283,c),
(426,329,l),
(357,0,l),
(521,0,l),
(615,444,ls),
(649,603,o),
(569,729,o),
(392,729,cs),
(205,729,o),
(101,588,o),
(101,431,cs),
(101,364,o),
(129,299,o),
(186,262,c),
(7,0,l)
);
},
{
closed = 1;
nodes = (
(292,362,o),
(260,397,o),
(260,448,cs),
(260,506,o),
(297,589,o),
(374,589,cs),
(429,589,o),
(461,554,o),
(461,503,cs),
(461,445,o),
(424,362,o),
(346,362,cs)
);
}
);
width = 632;
}
);
metricRight = "te-canadian";
note = uni1586;
unicode = 5510;
},
{
glyphname = "tlhi-canadian";
lastChange = "2023-01-13 15:28:49 +0000";
layers = (
{
layerId = "D19189FD-F605-4705-8DF9-B27AB1AA0ED8";
shapes = (
{
closed = 1;
nodes = (
(168,0,l),
(241,344,l),
(174,318,l),
(207,262,o),
(271,226,o),
(349,225,c),
(265,289,l),
(342,0,l),
(517,0,l),
(454,242,l),
(558,275,o),
(627,396,o),
(627,505,cs),
(627,637,o),
(532,729,o),
(385,729,cs),
(237,729,o),
(140,641,o),
(104,476,cs),
(3,0,l)
);
},
{
closed = 1;
nodes = (
(298,362,o),
(266,394,o),
(266,447,cs),
(266,503,o),
(301,589,o),
(380,589,cs),
(434,589,o),
(466,556,o),
(466,503,cs),
(466,447,o),
(431,362,o),
(352,362,cs)
);
}
);
width = 636;
}
);
metricLeft = "te-canadian";
metricRight = "=|tlhe-canadian";
note = uni1587;
unicode = 5511;
},
{
glyphname = "tlho-canadian";
lastChange = "2023-01-13 15:28:49 +0000";
layers = (
{
anchors = (
{
name = top_center_can;
pos = (426,714);
}
);
layerId = "D19189FD-F605-4705-8DF9-B27AB1AA0ED8";
shapes = (
{
closed = 1;
nodes = (
(442,-15,o),
(539,73,o),
(575,238,cs),
(676,714,l),
(511,714,l),
(439,370,l),
(505,396,l),
(472,452,o),
(408,488,o),
(330,489,c),
(414,425,l),
(337,714,l),
(162,714,l),
(225,472,l),
(121,439,o),
(53,318,o),
(53,209,cs),
(53,77,o),
(147,-15,o),
(294,-15,cs)
);
},
{
closed = 1;
nodes = (
(245,125,o),
(213,158,o),
(213,211,cs),
(213,267,o),
(248,352,o),
(327,352,cs),
(381,352,o),
(413,320,o),
(413,267,cs),
(413,211,o),
(378,125,o),
(299,125,cs)
);
}
);
width = 636;
}
);
metricLeft = "tlhe-canadian";
metricRight = "te-canadian";
note = uni1588;
unicode = 5512;
},
{
glyphname = "tlha-canadian";
lastChange = "2023-01-13 15:28:25 +0000";
layers = (
{
layerId = "D19189FD-F605-4705-8DF9-B27AB1AA0ED8";
shapes = (
{
closed = 1;
nodes = (
(471,-15,o),
(575,126,o),
(575,283,cs),
(575,350,o),
(547,415,o),
(490,452,c),
(669,714,l),
(494,714,l),
(298,427,l),
(414,491,l),
(403,492,o),
(391,493,o),
(381,493,cs),
(317,493,o),
(265,472,o),
(244,431,c),
(250,385,l),
(320,714,l),
(155,714,l),
(61,270,ls),
(27,111,o),
(108,-15,o),
(284,-15,cs)
);
},
{
closed = 1;
nodes = (
(247,125,o),
(216,160,o),
(216,211,cs),
(216,269,o),
(252,352,o),
(330,352,cs),
(384,352,o),
(416,317,o),
(416,266,cs),
(416,208,o),
(380,125,o),
(302,125,cs)
);
}
);
width = 633;
}
);
metricLeft = "te-canadian";
note = uni1589;
unicode = 5513;
},
{
glyphname = "reWestCree-canadian";
lastChange = "2023-01-13 15:28:25 +0000";
layers = (
{
layerId = "D19189FD-F605-4705-8DF9-B27AB1AA0ED8";
shapes = (
{
closed = 1;
nodes = (
(474,0,l),
(770,208,l),
(684,329,l),
(467,178,l),
(521,134,l),
(587,445,ls),
(623,614,o),
(535,729,o),
(369,729,cs),
(218,729,o),
(125,642,o),
(89,477,cs),
(71,393,l),
(235,393,l),
(253,475,ls),
(268,551,o),
(300,585,o),
(355,585,cs),
(417,585,o),
(443,541,o),
(427,466,cs),
(328,0,l)
);
}
);
width = 799;
}
);
metricLeft = "ce-canadian";
metricRight = "heNunavik-canadian";
note = uni158A;
unicode = 5514;
},
{
glyphname = "riWestCree-canadian";
lastChange = "2023-01-13 15:28:25 +0000";
layers = (
{
layerId = "D19189FD-F605-4705-8DF9-B27AB1AA0ED8";
shapes = (
{
closed = 1;
nodes = (
(362,0,l),
(462,475,ls),
(478,551,o),
(511,585,o),
(565,585,cs),
(627,585,o),
(653,541,o),
(637,466,cs),
(622,393,l),
(786,393,l),
(797,445,ls),
(833,614,o),
(743,729,o),
(578,729,cs),
(426,729,o),
(334,642,o),
(299,477,cs),
(226,133,l),
(291,153,l),
(122,320,l),
(9,208,l),
(215,0,l)
);
}
);
width = 799;
}
);
metricLeft = "=|heNunavik-canadian";
metricRight = "=|ce-canadian";
note = uni158B;
unicode = 5515;
},
{
glyphname = "roWestCree-canadian";
lastChange = "2023-01-13 15:28:49 +0000";
layers = (
{
layerId = "D19189FD-F605-4705-8DF9-B27AB1AA0ED8";
shapes = (
{
closed = 1;
nodes = (
(415,-15,o),
(508,72,o),
(543,237,cs),
(616,581,l),
(551,561,l),
(720,394,l),
(833,506,l),
(626,714,l),
(480,714,l),
(379,239,ls),
(363,163,o),
(331,129,o),
(277,129,cs),
(215,129,o),
(189,173,o),
(205,248,cs),
(220,321,l),
(56,321,l),
(45,269,ls),
(9,100,o),
(99,-15,o),
(264,-15,cs)
);
}
);
width = 799;
}
);
metricLeft = "ce-canadian";
metricRight = "heNunavik-canadian";
note = uni158C;
unicode = 5516;
},
{
glyphname = "raWestCree-canadian";
lastChange = "2023-01-13 15:28:49 +0000";
layers = (
{
layerId = "D19189FD-F605-4705-8DF9-B27AB1AA0ED8";
shapes = (
{
closed = 1;
nodes = (
(624,-15,o),
(717,72,o),
(753,237,cs),
(771,321,l),
(606,321,l),
(589,239,ls),
(573,163,o),
(541,129,o),
(487,129,cs),
(425,129,o),
(399,173,o),
(415,248,cs),
(513,714,l),
(367,714,l),
(72,506,l),
(157,385,l),
(374,536,l),
(320,580,l),
(255,269,ls),
(219,100,o),
(307,-15,o),
(472,-15,cs)
);
}
);
width = 799;
}
);
metricLeft = "=|heNunavik-canadian";
metricRight = "=|ce-canadian";
note = uni158D;
unicode = 5517;
},
{
glyphname = "ng-canadian";
kernLeft = mwestleft;
kernRight = mwestright;
lastChange = "2023-01-13 15:28:49 +0000";
layers = (
{
layerId = "D19189FD-F605-4705-8DF9-B27AB1AA0ED8";
shapes = (
{
closed = 1;
nodes = (
(566,225,o),
(624,272,o),
(642,356,cs),
(647,382,l),
(541,382,l),
(535,352,ls),
(529,325,o),
(515,312,o),
(492,312,cs),
(467,312,o),
(456,328,o),
(463,357,cs),
(505,555,l),
(345,555,l),
(343,490,l),
(378,509,o),
(397,555,o),
(399,595,cs),
(403,669,o),
(352,722,o),
(267,722,cs),
(183,722,o),
(121,664,o),
(117,582,cs),
(111,504,o),
(163,450,o),
(245,450,cs),
(398,450,l),
(377,487,l),
(355,380,ls),
(335,288,o),
(385,225,o),
(481,225,cs)
);
},
{
closed = 1;
nodes = (
(226,531,o),
(212,549,o),
(214,578,cs),
(216,611,o),
(234,641,o),
(265,641,cs),
(289,641,o),
(303,623,o),
(301,593,cs),
(299,561,o),
(281,531,o),
(251,531,cs)
);
}
);
width = 652;
}
);
metricLeft = "n-canadian";
metricRight = "c-canadian";
note = uni1595;
unicode = 5525;
},
{
glyphname = "nng-canadian";
kernLeft = mwestleft;
kernRight = mwestright;
lastChange = "2023-01-13 15:28:25 +0000";
layers = (
{
layerId = "D19189FD-F605-4705-8DF9-B27AB1AA0ED8";
shapes = (
{
closed = 1;
nodes = (
(877,225,o),
(931,272,o),
(949,356,cs),
(955,382,l),
(849,382,l),
(842,352,ls),
(836,325,o),
(822,312,o),
(800,312,cs),
(774,312,o),
(764,328,o),
(770,357,cs),
(813,555,l),
(667,555,l),
(658,490,l),
(696,512,o),
(715,564,o),
(715,601,cs),
(714,674,o),
(664,722,o),
(583,722,cs),
(492,722,o),
(431,654,o),
(431,571,cs),
(431,544,o),
(438,523,o),
(452,503,c),
(469,555,l),
(353,555,l),
(343,490,l),
(382,512,o),
(401,564,o),
(401,601,cs),
(401,673,o),
(349,722,o),
(269,722,cs),
(178,722,o),
(116,654,o),
(116,571,cs),
(116,500,o),
(168,450,o),
(246,450,cs),
(677,450,l),
(662,380,ls),
(641,287,o),
(696,225,o),
(792,225,cs)
);
},
{
closed = 1;
nodes = (
(229,531,o),
(214,547,o),
(214,571,cs),
(214,601,o),
(232,641,o),
(266,641,cs),
(289,641,o),
(303,625,o),
(303,601,cs),
(303,571,o),
(285,531,o),
(252,531,cs)
);
},
{
closed = 1;
nodes = (
(543,531,o),
(529,547,o),
(529,571,cs),
(529,601,o),
(546,641,o),
(580,641,cs),
(603,641,o),
(617,625,o),
(617,601,cs),
(617,571,o),
(600,531,o),
(566,531,cs)
);
}
);
width = 960;
}
);
metricLeft = "n-canadian";
metricRight = "c-canadian";
note = uni1596;
unicode = 5526;
},
{
glyphname = "sheSayisi-canadian";
lastChange = "2023-01-13 15:28:49 +0000";
layers = (
{
anchors = (
{
name = middle_right_can;
pos = (735,357);
},
{
name = top_center_can;
pos = (408,714);
}
);
layerId = "D19189FD-F605-4705-8DF9-B27AB1AA0ED8";
shapes = (
{
closed = 1;
nodes = (
(510,0,l),
(603,437,ls),
(639,608,o),
(558,729,o),
(385,729,cs),
(168,729,o),
(78,535,o),
(78,377,cs),
(78,263,o),
(135,190,o),
(230,190,cs),
(326,190,o),
(379,265,o),
(405,428,c),
(319,428,l),
(306,354,o),
(291,326,o),
(266,326,cs),
(246,326,o),
(235,342,o),
(235,376,cs),
(235,438,o),
(265,589,o),
(365,589,cs),
(445,589,o),
(453,514,o),
(435,428,cs),
(344,0,l)
);
}
);
width = 621;
}
);
metricLeft = "ke-canadian";
metricRight = "te-canadian";
note = uni1597;
unicode = 5527;
},
{
glyphname = "shiSayisi-canadian";
lastChange = "2023-01-13 15:28:25 +0000";
layers = (
{
layerId = "D19189FD-F605-4705-8DF9-B27AB1AA0ED8";
shapes = (
{
closed = 1;
nodes = (
(169,0,l),
(267,459,ls),
(286,547,o),
(323,589,o),
(383,589,cs),
(436,589,o),
(465,556,o),
(465,495,cs),
(465,454,o),
(442,326,o),
(393,326,cs),
(365,326,o),
(358,355,o),
(377,428,c),
(291,428,l),
(248,282,o),
(295,190,o),
(407,190,cs),
(562,190,o),
(623,384,o),
(623,500,cs),
(623,640,o),
(535,729,o),
(388,729,cs),
(239,729,o),
(140,642,o),
(106,481,cs),
(3,0,l)
);
}
);
width = 622;
}
);
metricLeft = "te-canadian";
metricRight = "=|ke-canadian";
note = uni1598;
unicode = 5528;
},
{
glyphname = "shoSayisi-canadian";
lastChange = "2023-01-13 15:28:49 +0000";
layers = (
{
anchors = (
{
name = top_center_can;
pos = (400,714);
},
{
name = top_left_can;
pos = (220,714);
},
{
name = top_right_can;
pos = (579,714);
}
);
layerId = "D19189FD-F605-4705-8DF9-B27AB1AA0ED8";
shapes = (
{
closed = 1;
nodes = (
(426,-15,o),
(525,72,o),
(559,233,cs),
(662,714,l),
(496,714,l),
(398,255,ls),
(379,167,o),
(342,125,o),
(283,125,cs),
(229,125,o),
(201,158,o),
(201,219,cs),
(201,260,o),
(223,388,o),
(272,388,cs),
(300,388,o),
(307,359,o),
(288,286,c),
(375,286,l),
(417,432,o),
(370,524,o),
(258,524,cs),
(104,524,o),
(42,330,o),
(42,214,cs),
(42,74,o),
(130,-15,o),
(277,-15,cs)
);
}
);
width = 621;
}
);
metricLeft = "ke-canadian";
metricRight = "te-canadian";
note = uni1599;
unicode = 5529;
},
{
glyphname = "shaSayisi-canadian";
lastChange = "2023-01-13 15:28:25 +0000";
layers = (
{
layerId = "D19189FD-F605-4705-8DF9-B27AB1AA0ED8";
shapes = (
{
closed = 1;
nodes = (
(498,-15,o),
(588,179,o),
(588,337,cs),
(588,451,o),
(530,524,o),
(436,524,cs),
(340,524,o),
(287,449,o),
(261,286,c),
(347,286,l),
(359,360,o),
(374,388,o),
(399,388,cs),
(419,388,o),
(431,372,o),
(431,338,cs),
(431,276,o),
(401,125,o),
(300,125,cs),
(220,125,o),
(213,200,o),
(231,286,cs),
(322,714,l),
(156,714,l),
(62,277,ls),
(27,106,o),
(108,-15,o),
(281,-15,cs)
);
}
);
width = 622;
}
);
metricLeft = "te-canadian";
metricRight = "=|ke-canadian";
note = uni159A;
unicode = 5530;
},
{
glyphname = "theWoodScree-canadian";
lastChange = "2023-01-13 15:28:25 +0000";
layers = (
{
layerId = "D19189FD-F605-4705-8DF9-B27AB1AA0ED8";
shapes = (
{
closed = 1;
nodes = (
(696,-15,o),
(794,146,o),
(794,286,cs),
(794,419,o),
(703,509,o),
(554,509,cs),
(106,509,l),
(78,375,l),
(377,375,l),
(359,423,l),
(295,371,o),
(267,279,o),
(267,208,cs),
(267,77,o),
(361,-15,o),
(506,-15,cs)
);
},
{
closed = 1;
nodes = (
(462,125,o),
(428,162,o),
(428,218,cs),
(428,282,o),
(471,370,o),
(545,370,cs),
(599,370,o),
(633,334,o),
(633,278,cs),
(633,214,o),
(590,125,o),
(516,125,cs)
);
},
{
closed = 1;
nodes = (
(851,580,l),
(879,714,l),
(150,714,l),
(122,580,l)
);
}
);
width = 846;
}
);
note = uni159B;
unicode = 5531;
},
{
glyphname = "thiWoodScree-canadian";
kernRight = niright;
lastChange = "2023-01-13 15:28:49 +0000";
layers = (
{
layerId = "D19189FD-F605-4705-8DF9-B27AB1AA0ED8";
shapes = (
{
closed = 1;
nodes = (
(478,-15,o),
(577,143,o),
(577,287,cs),
(577,326,o),
(568,361,o),
(549,389,c),
(520,375,l),
(820,375,l),
(848,509,l),
(345,509,ls),
(145,509,o),
(50,350,o),
(50,209,cs),
(50,77,o),
(145,-15,o),
(290,-15,cs)
);
},
{
closed = 1;
nodes = (
(246,125,o),
(212,162,o),
(212,218,cs),
(212,282,o),
(255,370,o),
(328,370,cs),
(382,370,o),
(416,334,o),
(416,278,cs),
(416,214,o),
(373,125,o),
(299,125,cs)
);
},
{
closed = 1;
nodes = (
(864,580,l),
(892,714,l),
(163,714,l),
(135,580,l)
);
}
);
width = 847;
}
);
metricLeft = "theWoodScree-canadian";
metricRight = "theWoodScree-canadian";
note = uni159C;
unicode = 5532;
},
{
glyphname = "thoWoodScree-canadian";
lastChange = "2023-01-13 15:28:25 +0000";
layers = (
{
layerId = "D19189FD-F605-4705-8DF9-B27AB1AA0ED8";
shapes = (
{
closed = 1;
nodes = (
(502,0,ls),
(702,0,o),
(797,160,o),
(797,301,cs),
(797,432,o),
(702,524,o),
(557,524,cs),
(369,524,o),
(269,366,o),
(269,223,cs),
(269,184,o),
(279,148,o),
(297,120,c),
(326,134,l),
(26,134,l),
(-2,0,l)
);
},
{
closed = 1;
nodes = (
(464,139,o),
(431,175,o),
(431,231,cs),
(431,296,o),
(473,384,o),
(548,384,cs),
(601,384,o),
(635,347,o),
(635,291,cs),
(635,227,o),
(592,139,o),
(518,139,cs)
);
},
{
closed = 1;
nodes = (
(850,580,l),
(878,714,l),
(150,714,l),
(121,580,l)
);
}
);
width = 846;
}
);
metricLeft = "theWoodScree-canadian";
metricRight = "theWoodScree-canadian";
note = uni159D;
unicode = 5533;
},
{
glyphname = "thaWoodScree-canadian";
lastChange = "2023-01-13 15:28:49 +0000";
layers = (
{
layerId = "D19189FD-F605-4705-8DF9-B27AB1AA0ED8";
shapes = (
{
closed = 1;
nodes = (
(739,0,l),
(768,134,l),
(469,134,l),
(486,86,l),
(551,139,o),
(579,230,o),
(579,301,cs),
(579,432,o),
(485,524,o),
(339,524,cs),
(149,524,o),
(52,363,o),
(52,223,cs),
(52,91,o),
(143,0,o),
(292,0,cs)
);
},
{
closed = 1;
nodes = (
(247,139,o),
(213,175,o),
(213,231,cs),
(213,296,o),
(256,384,o),
(330,384,cs),
(383,384,o),
(417,347,o),
(417,291,cs),
(417,227,o),
(374,139,o),
(301,139,cs)
);
},
{
closed = 1;
nodes = (
(862,580,l),
(890,714,l),
(161,714,l),
(133,580,l)
);
}
);
width = 846;
}
);
metricLeft = "theWoodScree-canadian";
metricRight = "theWoodScree-canadian";
note = uni159E;
unicode = 5534;
},
{
glyphname = "thWoodScree-canadian";
lastChange = "2023-01-13 15:28:25 +0000";
layers = (
{
layerId = "D19189FD-F605-4705-8DF9-B27AB1AA0ED8";
shapes = (
{
closed = 1;
nodes = (
(479,356,l),
(499,452,l),
(336,452,l),
(330,394,l),
(371,416,o),
(391,468,o),
(391,509,cs),
(391,579,o),
(338,627,o),
(258,627,cs),
(167,627,o),
(106,560,o),
(106,477,cs),
(106,405,o),
(158,356,o),
(235,356,cs)
);
},
{
closed = 1;
nodes = (
(218,436,o),
(204,452,o),
(204,476,cs),
(204,506,o),
(222,547,o),
(255,547,cs),
(278,547,o),
(293,530,o),
(293,506,cs),
(293,476,o),
(275,436,o),
(241,436,cs)
);
},
{
closed = 1;
nodes = (
(538,661,l),
(559,758,l),
(166,758,l),
(146,661,l)
);
}
);
width = 512;
}
);
metricRight = "=|";
note = uni159F;
unicode = 5535;
},
{
glyphname = "lhi-canadian";
kernRight = niright;
lastChange = "2023-01-13 15:28:49 +0000";
layers = (
{
anchors = (
{
name = top_center_can;
pos = (539,714);
},
{
name = top_right_can;
pos = (659,714);
}
);
layerId = "D19189FD-F605-4705-8DF9-B27AB1AA0ED8";
shapes = (
{
closed = 1;
nodes = (
(331,0,l),
(362,145,l),
(308,145,ls),
(244,145,o),
(207,178,o),
(207,232,cs),
(207,303,o),
(253,361,o),
(352,361,cs),
(807,361,l),
(835,492,l),
(705,767,l),
(560,698,l),
(681,440,l),
(728,509,l),
(367,509,ls),
(167,509,o),
(43,399,o),
(43,225,cs),
(43,93,o),
(136,0,o),
(279,0,cs)
);
}
);
width = 827;
}
);
metricLeft = "ke-canadian";
metricRight = "=|ne-canadian";
note = uni15A0;
unicode = 5536;
},
{
glyphname = "lho-canadian";
kernLeft = noleft;
lastChange = "2023-01-13 15:28:49 +0000";
layers = (
{
anchors = (
{
name = top_center_can;
pos = (471,528);
},
{
name = top_right_can;
pos = (579,528);
}
);
layerId = "D19189FD-F605-4705-8DF9-B27AB1AA0ED8";
shapes = (
{
closed = 1;
nodes = (
(268,-188,l),
(147,69,l),
(99,0,l),
(461,0,ls),
(660,0,o),
(784,110,o),
(784,284,cs),
(784,416,o),
(692,509,o),
(548,509,cs),
(496,509,l),
(466,365,l),
(519,365,ls),
(583,365,o),
(621,331,o),
(621,277,cs),
(621,206,o),
(574,148,o),
(475,148,cs),
(20,148,l),
(-8,17,l),
(123,-257,l)
);
}
);
width = 827;
}
);
metricLeft = "ne-canadian";
metricRight = "=|ke-canadian";
note = uni15A2;
unicode = 5538;
},
{
glyphname = "lha-canadian";
kernRight = naright;
lastChange = "2023-01-13 15:28:49 +0000";
layers = (
{
anchors = (
{
name = top_center_can;
pos = (474,528);
},
{
name = top_left_can;
pos = (367,528);
}
);
layerId = "D19189FD-F605-4705-8DF9-B27AB1AA0ED8";
shapes = (
{
closed = 1;
nodes = (
(734,17,l),
(762,148,l),
(310,148,ls),
(244,148,o),
(208,180,o),
(208,235,cs),
(208,310,o),
(257,365,o),
(356,365,cs),
(408,365,l),
(439,509,l),
(377,509,ls),
(162,509,o),
(42,393,o),
(42,217,cs),
(42,85,o),
(134,0,o),
(282,0,cs),
(616,0,l),
(579,65,l),
(378,-160,l),
(487,-258,l)
);
}
);
width = 827;
}
);
metricLeft = "ke-canadian";
metricRight = "=|ne-canadian";
note = uni15A4;
unicode = 5540;
},
{
glyphname = "lh-canadian";
kernLeft = mwestleft;
kernRight = mwestright;
lastChange = "2023-01-13 15:28:49 +0000";
layers = (
{
layerId = "D19189FD-F605-4705-8DF9-B27AB1AA0ED8";
shapes = (
{
closed = 1;
nodes = (
(468,369,l),
(488,462,l),
(286,462,ls),
(243,462,o),
(219,483,o),
(219,519,cs),
(219,564,o),
(245,613,o),
(312,613,cs),
(334,613,l),
(355,714,l),
(324,714,ls),
(183,714,o),
(106,624,o),
(106,506,cs),
(106,414,o),
(170,357,o),
(276,357,cs),
(408,357,l),
(370,427,l),
(246,290,l),
(328,215,l)
);
}
);
width = 491;
}
);
metricLeft = "t-canadian";
metricRight = "=|";
note = uni15A6;
unicode = 5542;
},
{
glyphname = "theThCree-canadian";
lastChange = "2023-01-13 15:28:25 +0000";
layers = (
{
anchors = (
{
name = top_left_can;
pos = (210,714);
},
{
name = top_right_can;
pos = (551,714);
}
);
layerId = "D19189FD-F605-4705-8DF9-B27AB1AA0ED8";
shapes = (
{
closed = 1;
nodes = (
(332,77,l),
(316,0,l),
(482,0,l),
(498,77,l),
(571,77,l),
(590,165,l),
(517,165,l),
(559,365,l),
(280,365,l),
(301,314,l),
(630,621,l),
(528.992,726,l),
(32,262,l),
(23,221,l),
(363,221,l),
(351,165,l),
(132,165,l),
(113,77,l)
);
}
);
width = 637;
}
);
metricLeft = "ye-canadian";
note = uni15A7;
unicode = 5543;
},
{
glyphname = "thiThCree-canadian";
kernRight = yiright;
lastChange = "2023-01-13 15:28:25 +0000";
layers = (
{
anchors = (
{
name = top_left_can;
pos = (282,714);
},
{
name = top_right_can;
pos = (623,714);
}
);
layerId = "D19189FD-F605-4705-8DF9-B27AB1AA0ED8";
shapes = (
{
closed = 1;
nodes = (
(214,0,l),
(230,77,l),
(449,77,l),
(467,165,l),
(249,165,l),
(261,221,l),
(600,221,l),
(609,262,l),
(284,726,l),
(165,640,l),
(398,304,l),
(430,365,l),
(125,365,l),
(82,165,l),
(9,165,l),
(-10,77,l),
(64,77,l),
(47,0,l)
);
}
);
width = 637;
}
);
metricLeft = "=|theThCree-canadian";
metricRight = "=|ye-canadian";
note = uni15A8;
unicode = 5544;
},
{
glyphname = "thoThCree-canadian";
kernLeft = yoleft;
lastChange = "2023-01-13 15:28:25 +0000";
layers = (
{
anchors = (
{
name = top_left_can;
pos = (209,714);
},
{
name = top_right_can;
pos = (550,714);
}
);
layerId = "D19189FD-F605-4705-8DF9-B27AB1AA0ED8";
shapes = (
{
closed = 1;
nodes = (
(516,74,l),
(283,410,l),
(251,349,l),
(555,349,l),
(598,549,l),
(672,549,l),
(690,637,l),
(616,637,l),
(633,714,l),
(467,714,l),
(450,637,l),
(231,637,l),
(213,549,l),
(432,549,l),
(420,493,l),
(81,493,l),
(72,452,l),
(396,-12,l)
);
}
);
width = 637;
}
);
metricLeft = "ye-canadian";
metricRight = "theThCree-canadian";
note = uni15AA;
unicode = 5546;
},
{
glyphname = "thaThCree-canadian";
kernRight = yaright;
lastChange = "2023-01-13 15:28:25 +0000";
layers = (
{
anchors = (
{
name = top_left_can;
pos = (282,714);
},
{
name = top_right_can;
pos = (623,714);
}
);
layerId = "D19189FD-F605-4705-8DF9-B27AB1AA0ED8";
shapes = (
{
closed = 1;
nodes = (
(649,452,l),
(658,493,l),
(318,493,l),
(330,549,l),
(549,549,l),
(567,637,l),
(348,637,l),
(365,714,l),
(199,714,l),
(182,637,l),
(109,637,l),
(91,549,l),
(164,549,l),
(121,349,l),
(400,349,l),
(380,400,l),
(51,93,l),
(151,-12,l)
);
}
);
width = 637;
}
);
metricLeft = "=|theThCree-canadian";
metricRight = "=|ye-canadian";
note = uni15AC;
unicode = 5548;
},
{
glyphname = "thThCree-canadian";
kernLeft = mwestleft;
kernRight = mwestright;
lastChange = "2023-01-13 15:28:25 +0000";
layers = (
{
layerId = "D19189FD-F605-4705-8DF9-B27AB1AA0ED8";
shapes = (
{
closed = 1;
nodes = (
(161,636,l),
(135,514,l),
(291,514,l),
(270,566,l),
(113,414,l),
(183,346,l),
(418,575,l),
(424,603,l),
(267,603,l),
(274,636,l),
(370,636,l),
(380,681,l),
(283,681,l),
(290,714,l),
(177,714,l),
(170,681,l),
(133,681,l),
(124,636,l)
);
}
);
width = 373;
}
);
metricRight = "y-canadian";
note = uni15AE;
unicode = 5550;
},
{
glyphname = "bAivilik-canadian";
lastChange = "2023-01-13 15:28:25 +0000";
layers = (
{
layerId = "D19189FD-F605-4705-8DF9-B27AB1AA0ED8";
shapes = (
{
closed = 1;
nodes = (
(477,-15,o),
(584,145,o),
(584,307,cs),
(584,434,o),
(504,524,o),
(383,524,cs),
(326,524,o),
(277,501,o),
(255,464,c),
(271,439,l),
(328,714,l),
(162,714,l),
(11,0,l),
(169,0,l),
(186,79,l),
(173,65,l),
(189,16,o),
(242,-15,o),
(313,-15,cs)
);
},
{
closed = 1;
nodes = (
(258,125,o),
(228,159,o),
(228,215,cs),
(228,269,o),
(255,384,o),
(341,384,cs),
(392,384,o),
(422,351,o),
(422,295,cs),
(422,242,o),
(395,125,o),
(308,125,cs)
);
}
);
width = 623;
}
);
metricLeft = "nunavuth-canadian";
metricRight = "=|ke-canadian";
note = uni15AF;
unicode = 5551;
},
{
glyphname = "eBlackfoot-canadian";
lastChange = "2023-01-13 15:28:25 +0000";
layers = (
{
layerId = "D19189FD-F605-4705-8DF9-B27AB1AA0ED8";
shapes = (
{
closed = 1;
nodes = (
(176,0,l),
(267,425,l),
(292,382,o),
(340,354,o),
(401,354,cs),
(525,354,o),
(599,467,o),
(599,572,cs),
(599,664,o),
(538,729,o),
(445,729,cs),
(394,729,o),
(346,709,o),
(312,675,c),
(321,714,l),
(162,714,l),
(10,0,l)
);
}
);
width = 575;
}
);
metricLeft = "nunavuth-canadian";
note = uni15B0;
unicode = 5552;
},
{
glyphname = "iBlackfoot-canadian";
lastChange = "2023-01-13 15:28:49 +0000";
layers = (
{
layerId = "D19189FD-F605-4705-8DF9-B27AB1AA0ED8";
shapes = (
{
closed = 1;
nodes = (
(224,-15,o),
(272,5,o),
(306,39,c),
(297,0,l),
(456.006,0,l),
(608.006,714,l),
(442,714,l),
(351,289,l),
(326,332,o),
(278,360,o),
(218,360,cs),
(93,360,o),
(19,247,o),
(19,142,cs),
(19,50,o),
(80,-15,o),
(173,-15,cs)
);
}
);
width = 574;
}
);
metricLeft = "=|eBlackfoot-canadian";
metricRight = "nunavuth-canadian";
note = uni15B1;
unicode = 5553;
},
{
glyphname = "oBlackfoot-canadian";
lastChange = "2023-01-13 15:28:25 +0000";
layers = (
{
layerId = "D19189FD-F605-4705-8DF9-B27AB1AA0ED8";
shapes = (
{
closed = 1;
nodes = (
(447,-15,o),
(521,97,o),
(521,203,cs),
(521,295,o),
(461,360,o),
(368,360,cs),
(320,360,o),
(276,343,o),
(243,315,c),
(328,714,l),
(162,714,l),
(10,0,l),
(169,0,l),
(184,70,l),
(206,18,o),
(258,-15,o),
(323,-15,cs)
);
}
);
width = 575;
}
);
metricLeft = "nunavuth-canadian";
metricRight = "eBlackfoot-canadian";
note = uni15B2;
unicode = 5554;
},
{
glyphname = "aBlackfoot-canadian";
lastChange = "2023-01-13 15:28:49 +0000";
layers = (
{
layerId = "D19189FD-F605-4705-8DF9-B27AB1AA0ED8";
shapes = (
{
closed = 1;
nodes = (
(457,0,l),
(609,714,l),
(450,714,l),
(435,644,l),
(413,696,o),
(361,729,o),
(296,729,cs),
(172,729,o),
(98,617,o),
(98,511,cs),
(98,419,o),
(158,354,o),
(251,354,cs),
(299,354,o),
(343,371,o),
(376,399,c),
(291,0,l)
);
}
);
width = 575;
}
);
metricLeft = "=|eBlackfoot-canadian";
metricRight = "nunavuth-canadian";
note = uni15B3;
unicode = 5555;
},
{
glyphname = "weBlackfoot-canadian";
lastChange = "2023-01-13 15:28:25 +0000";
layers = (
{
layerId = "D19189FD-F605-4705-8DF9-B27AB1AA0ED8";
shapes = (
{
closed = 1;
nodes = (
(176,0,l),
(237,286,l),
(572,286,l),
(600,423,l),
(266,423,l),
(299,576,l),
(633,576,l),
(662,714,l),
(162,714,l),
(10,0,l)
);
}
);
width = 617;
}
);
metricLeft = "nunavuth-canadian";
note = uni15B4;
unicode = 5556;
},
{
glyphname = "wiBlackfoot-canadian";
lastChange = "2023-01-13 15:28:49 +0000";
layers = (
{
layerId = "D19189FD-F605-4705-8DF9-B27AB1AA0ED8";
shapes = (
{
closed = 1;
nodes = (
(498,0,l),
(650,714,l),
(484,714,l),
(423,428,l),
(89,428,l),
(60,291,l),
(394,291,l),
(361,138,l),
(27,138,l),
(-2,0,l)
);
}
);
width = 616;
}
);
metricLeft = "=|weBlackfoot-canadian";
metricRight = "nunavuth-canadian";
note = uni15B5;
unicode = 5557;
},
{
glyphname = "woBlackfoot-canadian";
lastChange = "2023-01-13 15:28:49 +0000";
layers = (
{
layerId = "D19189FD-F605-4705-8DF9-B27AB1AA0ED8";
shapes = (
{
closed = 1;
nodes = (
(510,0,l),
(539,138,l),
(206,138,l),
(238,291,l),
(572,291,l),
(601,428,l),
(268,428,l),
(328,714,l),
(162,714,l),
(10,0,l)
);
}
);
width = 616;
}
);
metricLeft = "nunavuth-canadian";
metricRight = "weBlackfoot-canadian";
note = uni15B6;
unicode = 5558;
},
{
glyphname = "waBlackfoot-canadian";
lastChange = "2023-01-13 15:28:49 +0000";
layers = (
{
layerId = "D19189FD-F605-4705-8DF9-B27AB1AA0ED8";
shapes = (
{
closed = 1;
nodes = (
(499,0,l),
(651,714,l),
(150,714,l),
(122,576,l),
(455,576,l),
(423,423,l),
(89,423,l),
(60,286,l),
(393,286,l),
(333,0,l)
);
}
);
width = 617;
}
);
metricLeft = "=|weBlackfoot-canadian";
metricRight = "nunavuth-canadian";
note = uni15B7;
unicode = 5559;
},
{
glyphname = "neBlackfoot-canadian";
lastChange = "2023-01-13 15:28:25 +0000";
layers = (
{
layerId = "D19189FD-F605-4705-8DF9-B27AB1AA0ED8";
shapes = (
{
closed = 1;
nodes = (
(176,0,l),
(302,594,l),
(355,594,l),
(337,696,l),
(332,674,ls),
(295,511,o),
(387,397,o),
(555,397,cs),
(704,397,o),
(805,483,o),
(838,640,cs),
(854,714,l),
(690.996,714,l),
(675,638,ls),
(662,573,o),
(624,539,o),
(566,539,cs),
(503,539,o),
(474,580,o),
(489,651,cs),
(503,714,l),
(162,714,l),
(10,0,l)
);
}
);
width = 785;
}
);
metricLeft = "nunavuth-canadian";
note = uni15B8;
unicode = 5560;
},
{
glyphname = "niBlackfoot-canadian";
lastChange = "2023-01-13 15:28:49 +0000";
layers = (
{
layerId = "D19189FD-F605-4705-8DF9-B27AB1AA0ED8";
shapes = (
{
closed = 1;
nodes = (
(138,0,l),
(154,76,ls),
(167,141,o),
(204,175,o),
(262,175,cs),
(326,175,o),
(354,134,o),
(339,63,cs),
(326,0,l),
(666,0,l),
(818,714,l),
(652,714,l),
(526,120,l),
(473,120,l),
(492,18,l),
(497,40,ls),
(534,203,o),
(442,317,o),
(273,317,cs),
(125,317,o),
(24,231,o),
(-9,74,cs),
(-25,0,l)
);
}
);
width = 784;
}
);
metricLeft = "=|neBlackfoot-canadian";
metricRight = "nunavuth-canadian";
note = uni15B9;
unicode = 5561;
},
{
glyphname = "noBlackfoot-canadian";
lastChange = "2023-01-13 15:28:25 +0000";
layers = (
{
layerId = "D19189FD-F605-4705-8DF9-B27AB1AA0ED8";
shapes = (
{
closed = 1;
nodes = (
(351,0,l),
(367,75,ls),
(382,142,o),
(418,176,o),
(475,176,cs),
(539,176,o),
(567,135,o),
(552,64,cs),
(539,0,l),
(702,0,l),
(711,45,ls),
(744,206,o),
(653,318,o),
(486,318,cs),
(339,318,o),
(240,234,o),
(201,57,cs),
(192,19,l),
(255,120,l),
(202,120,l),
(328,714,l),
(162,714,l),
(10,0,l)
);
}
);
width = 785;
}
);
metricLeft = "nunavuth-canadian";
metricRight = "neBlackfoot-canadian";
note = uni15BA;
unicode = 5562;
},
{
glyphname = "naBlackfoot-canadian";
lastChange = "2023-01-13 15:28:49 +0000";
layers = (
{
layerId = "D19189FD-F605-4705-8DF9-B27AB1AA0ED8";
shapes = (
{
closed = 1;
nodes = (
(666,0,l),
(818,714,l),
(478,714,l),
(461,639,ls),
(447,572,o),
(411,538,o),
(353,538,cs),
(290,538,o),
(261,579,o),
(276,650,cs),
(289,714,l),
(127,714,l),
(117,669,ls),
(85,508,o),
(176,396,o),
(342,396,cs),
(489,396,o),
(589,480,o),
(628,657,cs),
(636,695,l),
(574,594,l),
(626,594,l),
(500,0,l)
);
}
);
width = 784;
}
);
metricLeft = "=|neBlackfoot-canadian";
metricRight = "nunavuth-canadian";
note = uni15BB;
unicode = 5563;
},
{
glyphname = "keBlackfoot-canadian";
lastChange = "2023-01-13 15:28:25 +0000";
layers = (
{
layerId = "D19189FD-F605-4705-8DF9-B27AB1AA0ED8";
shapes = (
{
closed = 1;
nodes = (
(176,0,l),
(288,522,l),
(232,522,l),
(321,258,l),
(386,258,l),
(734,714,l),
(541.008,714,l),
(349,459,l),
(397,455,l),
(315,714,l),
(162,714,l),
(10,0,l)
);
}
);
width = 645;
}
);
metricLeft = "nunavuth-canadian";
note = uni15BC;
unicode = 5564;
},
{
glyphname = "kiBlackfoot-canadian";
lastChange = "2023-01-13 15:28:49 +0000";
layers = (
{
layerId = "D19189FD-F605-4705-8DF9-B27AB1AA0ED8";
shapes = (
{
closed = 1;
nodes = (
(148,0,l),
(341,255,l),
(293,259,l),
(374,0,l),
(527,0,l),
(679,714,l),
(513,714,l),
(401,192,l),
(457,192,l),
(368,456,l),
(303,456,l),
(-45,0,l)
);
}
);
width = 645;
}
);
metricLeft = "=|keBlackfoot-canadian";
metricRight = "nunavuth-canadian";
note = uni15BD;
unicode = 5565;
},
{
glyphname = "koBlackfoot-canadian";
lastChange = "2023-01-13 15:28:25 +0000";
layers = (
{
layerId = "D19189FD-F605-4705-8DF9-B27AB1AA0ED8";
shapes = (
{
closed = 1;
nodes = (
(163,0,l),
(403,283,l),
(310,295,l),
(411,0,l),
(582,0,l),
(428,456,l),
(363,456,l),
(160,192,l),
(217,192,l),
(328,714,l),
(162,714,l),
(10,0,l)
);
}
);
width = 645;
}
);
metricLeft = "nunavuth-canadian";
metricRight = "keBlackfoot-canadian";
note = uni15BE;
unicode = 5566;
},
{
glyphname = "kaBlackfoot-canadian";
lastChange = "2023-01-13 15:28:49 +0000";
layers = (
{
layerId = "D19189FD-F605-4705-8DF9-B27AB1AA0ED8";
shapes = (
{
closed = 1;
nodes = (
(527,0,l),
(679,714,l),
(526,714,l),
(286,431,l),
(379,419,l),
(278,714,l),
(107,714,l),
(262,258,l),
(327,258,l),
(530,522,l),
(472,522,l),
(361,0,l)
);
}
);
width = 645;
}
);
metricLeft = "=|keBlackfoot-canadian";
metricRight = "nunavuth-canadian";
note = uni15BF;
unicode = 5567;
},
{
color = 9;
glyphname = "heSayisi-canadian";
lastChange = "2023-01-13 15:28:49 +0000";
layers = (
{
anchors = (
{
name = top_right_can;
pos = (676,714);
}
);
layerId = "D19189FD-F605-4705-8DF9-B27AB1AA0ED8";
shapes = (
{
closed = 1;
nodes = (
(606,0,l),
(758,714,l),
(595,714,l),
(521,367,l),
(547,367,l),
(591,584,o),
(508,729,o),
(345,729,cs),
(220,729,o),
(131,642,o),
(93,486,cs),
(83,441,o),
(76,394,o),
(74,340,c),
(233,340,l),
(236,389,o),
(240,423,o),
(248,455,cs),
(270,540,o),
(311,584,o),
(368,584,cs),
(494,584,o),
(522,385,o),
(440,0,c)
);
}
);
width = 724;
}
);
metricRight = "nunavuth-canadian";
note = uni15C0;
unicode = 5568;
},
{
color = 9;
glyphname = "hiSayisi-canadian";
lastChange = "2023-01-13 15:28:49 +0000";
layers = (
{
layerId = "D19189FD-F605-4705-8DF9-B27AB1AA0ED8";
shapes = (
{
closed = 1;
nodes = (
(176,0,l),
(258,374,o),
(369,584,o),
(488,584,cs),
(554,584,o),
(578,522,o),
(555,414,cs),
(548,386,o),
(541,363,o),
(534,340,c),
(692,340,l),
(703,368,o),
(711,394,o),
(717,420,cs),
(755,603,o),
(685,729,o),
(546,729,cs),
(402,729,o),
(277,592,o),
(231,382,c),
(255,382,l),
(326,714,l),
(162,714,l),
(10,0,l)
);
}
);
width = 726;
}
);
metricLeft = "nunavuth-canadian";
metricRight = "=|heSayisi-canadian";
note = uni15C1;
unicode = 5569;
},
{
color = 9;
glyphname = "hoSayisi-canadian";
lastChange = "2023-01-13 15:28:49 +0000";
layers = (
{
anchors = (
{
name = top_center_can;
pos = (455,714);
},
{
name = top_left_can;
pos = (232,714);
},
{
name = top_right_can;
pos = (677,714);
}
);
layerId = "D19189FD-F605-4705-8DF9-B27AB1AA0ED8";
shapes = (
{
closed = 1;
nodes = (
(368,-15,o),
(493,122,o),
(539,332,c),
(514,332,l),
(444,0,l),
(607,0,l),
(759,714,l),
(593,714,l),
(512,340,o),
(400,130,o),
(281,130,cs),
(215,130,o),
(191,192,o),
(215,300,cs),
(221,328,o),
(228,351,o),
(236,374,c),
(77,374,l),
(66,346,o),
(58,320,o),
(52,294,cs),
(14,111,o),
(84,-15,o),
(224,-15,cs)
);
}
);
width = 725;
}
);
metricLeft = "heSayisi-canadian";
metricRight = "nunavuth-canadian";
note = uni15C2;
unicode = 5570;
},
{
color = 9;
glyphname = "haSayisi-canadian";
lastChange = "2023-01-13 15:28:49 +0000";
layers = (
{
layerId = "D19189FD-F605-4705-8DF9-B27AB1AA0ED8";
shapes = (
{
closed = 1;
nodes = (
(549,-15,o),
(638,72,o),
(676,228,cs),
(686,273,o),
(692,320,o),
(694,374,c),
(536,374,l),
(533,325,o),
(528,291,o),
(520,259,cs),
(499,174,o),
(458,130,o),
(400,130,cs),
(274,130,o),
(246,329,o),
(328,714,c),
(162,714,l),
(10,0,l),
(174,0,l),
(247,347,l),
(221,347,l),
(178,130,o),
(260,-15,o),
(424,-15,cs)
);
}
);
width = 726;
}
);
metricLeft = "nunavuth-canadian";
metricRight = "=|heSayisi-canadian";
note = uni15C3;
unicode = 5571;
},
{
color = 9;
glyphname = "ghuCarrier-canadian";
lastChange = "2023-01-13 15:28:49 +0000";
layers = (
{
layerId = "D19189FD-F605-4705-8DF9-B27AB1AA0ED8";
shapes = (
{
closed = 1;
nodes = (
(348,0,l),
(819,674,l),
(828,714,l),
(675,714,l),
(543,521,l),
(594,549,l),
(260,549,l),
(304,523,l),
(258,714,l),
(123,714,l),
(115,674,l),
(300,0,l)
);
},
{
closed = 1;
nodes = (
(519,425,l),
(500,447,l),
(327,193,l),
(390,183,l),
(321,450,l),
(291,425,l)
);
}
);
width = 755;
}
);
metricLeft = "e-canadian";
metricRight = "e-canadian";
note = uni15C4;
unicode = 5572;
},
{
color = 9;
glyphname = "ghoCarrier-canadian";
lastChange = "2023-01-13 15:28:49 +0000";
layers = (
{
layerId = "D19189FD-F605-4705-8DF9-B27AB1AA0ED8";
shapes = (
{
closed = 1;
nodes = (
(124,0,l),
(257,193,l),
(205,165,l),
(539,165,l),
(495,191,l),
(542,0,l),
(676,0,l),
(685,40,l),
(500,714,l),
(451,714,l),
(-20,40,l),
(-29,0,l)
);
},
{
closed = 1;
nodes = (
(500,342,l),
(311,345,l),
(329,269,l),
(480,468,l),
(378,475,l),
(447,261,l)
);
}
);
width = 756;
}
);
metricLeft = "e-canadian";
metricRight = "e-canadian";
note = uni15C5;
unicode = 5573;
},
{
color = 9;
glyphname = "gheCarrier-canadian";
lastChange = "2023-01-13 15:28:49 +0000";
layers = (
{
anchors = (
{
name = middle_center_can;
pos = (104,371);
}
);
layerId = "D19189FD-F605-4705-8DF9-B27AB1AA0ED8";
shapes = (
{
closed = 1;
nodes = (
(28,0,l),
(655,332,l),
(666,382,l),
(180,714,l),
(141,714,l),
(115,592,l),
(255,494,l),
(249,586,l),
(159,161,l),
(199,247,l),
(22,153,l),
(-11,0,l)
);
},
{
closed = 1;
nodes = (
(358,526,l),
(319,469,l),
(519,329,l),
(525,406,l),
(276,275,l),
(293,220,l)
);
}
);
width = 667;
}
);
metricLeft = "po-canadian";
metricRight = "o-canadian";
note = uni15C6;
unicode = 5574;
},
{
color = 9;
glyphname = "ghaCarrier-canadian";
lastChange = "2023-01-13 15:28:49 +0000";
layers = (
{
layerId = "D19189FD-F605-4705-8DF9-B27AB1AA0ED8";
shapes = (
{
closed = 1;
nodes = (
(569,0,l),
(595,122,l),
(455,220,l),
(461,128,l),
(551,553,l),
(511,467,l),
(688,561,l),
(721,714,l),
(682,714,l),
(55,382,l),
(44,332,l),
(530,0,l)
);
},
{
closed = 1;
nodes = (
(391,245,l),
(201,376,l),
(196,315,l),
(434,439,l),
(414,482,l),
(356,206,l)
);
}
);
width = 666;
}
);
metricLeft = "=|o-canadian";
metricRight = "=|po-canadian";
note = uni15C9;
unicode = 5577;
},
{
color = 9;
glyphname = "ruCarrier-canadian";
lastChange = "2023-01-13 15:28:49 +0000";
layers = (
{
layerId = "D19189FD-F605-4705-8DF9-B27AB1AA0ED8";
shapes = (
{
closed = 1;
nodes = (
(348,0,l),
(819,674,l),
(828,714,l),
(674,714,l),
(612,624,l),
(671,649,l),
(234,649,l),
(279,624,l),
(257,714,l),
(123,714,l),
(115,674,l),
(300,0,l)
);
},
{
closed = 1;
nodes = (
(593,522,l),
(566,547,l),
(329,198,l),
(390,188,l),
(296,548,l),
(263,522,l)
);
}
);
width = 755;
}
);
metricLeft = "e-canadian";
metricRight = "e-canadian";
note = uni15CA;
unicode = 5578;
},
{
color = 9;
glyphname = "roCarrier-canadian";
lastChange = "2023-01-13 15:28:25 +0000";
layers = (
{
layerId = "D19189FD-F605-4705-8DF9-B27AB1AA0ED8";
shapes = (
{
closed = 1;
nodes = (
(451,714,l),
(-20,40,l),
(-29,0,l),
(126,0,l),
(188,90,l),
(128,65,l),
(565,65,l),
(521,90,l),
(542,0,l),
(676,0,l),
(685,40,l),
(500,714,l)
);
},
{
closed = 1;
nodes = (
(207,192,l),
(234,167,l),
(471,516,l),
(410,526,l),
(503,166,l),
(536,192,l)
);
}
);
width = 756;
}
);
metricLeft = "e-canadian";
metricRight = "e-canadian";
note = uni15CB;
unicode = 5579;
},
{
color = 9;
glyphname = "reCarrier-canadian";
lastChange = "2023-01-13 15:28:49 +0000";
layers = (
{
layerId = "D19189FD-F605-4705-8DF9-B27AB1AA0ED8";
shapes = (
{
closed = 1;
nodes = (
(29,0,l),
(655,332,l),
(666,382,l),
(180,714,l),
(141,714,l),
(115,593,l),
(190,540,l),
(181,633,l),
(70,112,l),
(114,198,l),
(21,148,l),
(-11,0,l)
);
},
{
closed = 1;
nodes = (
(292,562,l),
(253,503,l),
(508,328,l),
(512,404,l),
(194,236,l),
(211,182,l)
);
}
);
width = 667;
}
);
metricLeft = "po-canadian";
metricRight = "o-canadian";
note = uni15CC;
unicode = 5580;
},
{
color = 9;
glyphname = "reeCarrier-canadian";
lastChange = "2023-01-13 15:28:49 +0000";
layers = (
{
layerId = "D19189FD-F605-4705-8DF9-B27AB1AA0ED8";
shapes = (
{
closed = 1;
nodes = (
(29,0,l),
(655,332,l),
(666,382,l),
(181,714,l),
(141,714,l),
(120,613,l),
(186,564,l),
(184,650,l),
(66,94,l),
(100,177,l),
(17,132,l),
(-11,0,l)
);
},
{
closed = 1;
nodes = (
(282,595,l),
(236,542,l),
(550,330,l),
(554,406,l),
(171,204,l),
(186,147,l)
);
},
{
closed = 1;
nodes = (
(316,302,l),
(345,439,l),
(282,439,l),
(253,302,l)
);
}
);
width = 667;
}
);
metricLeft = "po-canadian";
metricRight = "o-canadian";
note = uni15CD;
unicode = 5581;
},
{
color = 9;
glyphname = "riCarrier-canadian";
lastChange = "2023-01-13 15:28:49 +0000";
layers = (
{
layerId = "D19189FD-F605-4705-8DF9-B27AB1AA0ED8";
shapes = (
{
closed = 1;
nodes = (
(29,0,l),
(655,332,l),
(666,382,l),
(181,714,l),
(141,714,l),
(120,613,l),
(187,563,l),
(184,650,l),
(66,94,l),
(109,182,l),
(17,132,l),
(-11,0,l)
);
},
{
closed = 1;
nodes = (
(350,322,o),
(376,344,o),
(376,375,cs),
(376,406,o),
(350,428,o),
(322,428,cs),
(294,428,o),
(268,406,o),
(268,375,cs),
(268,344,o),
(294,322,o),
(322,322,cs)
);
},
{
closed = 1;
nodes = (
(282,595,l),
(236,542,l),
(550,330,l),
(554,406,l),
(173,205,l),
(186,147,l)
);
}
);
width = 667;
}
);
metricLeft = "po-canadian";
metricRight = "o-canadian";
note = uni15CE;
unicode = 5582;
},
{
color = 9;
glyphname = "raCarrier-canadian";
lastChange = "2023-01-13 15:28:49 +0000";
layers = (
{
layerId = "D19189FD-F605-4705-8DF9-B27AB1AA0ED8";
shapes = (
{
closed = 1;
nodes = (
(569,0,l),
(595,121,l),
(520,174,l),
(529,81,l),
(640,602,l),
(596,516,l),
(689,566,l),
(721,714,l),
(681,714,l),
(55,382,l),
(44,332,l),
(530,0,l)
);
},
{
closed = 1;
nodes = (
(457,211,l),
(202,386,l),
(198,310,l),
(516,478,l),
(499,532,l),
(418,152,l)
);
}
);
width = 666;
}
);
metricLeft = "=|o-canadian";
metricRight = "=|po-canadian";
note = uni15CF;
unicode = 5583;
},
{
color = 9;
glyphname = "wuCarrier-canadian";
lastChange = "2023-01-13 15:28:25 +0000";
layers = (
{
layerId = "D19189FD-F605-4705-8DF9-B27AB1AA0ED8";
shapes = (
{
closed = 1;
nodes = (
(357.006,0,l),
(837,674,l),
(845,714,l),
(698.996,714,l),
(413,289,l),
(450,289,l),
(540,714,l),
(410,714,l),
(319,289,l),
(359,289,l),
(248,714,l),
(123,714,l),
(115,674,l),
(308,0,l)
);
}
);
width = 773;
}
);
metricLeft = "e-canadian";
metricRight = "e-canadian";
note = uni15D0;
unicode = 5584;
},
{
color = 9;
glyphname = "woCarrier-canadian";
lastChange = "2023-01-13 15:28:25 +0000";
layers = (
{
layerId = "D19189FD-F605-4705-8DF9-B27AB1AA0ED8";
shapes = (
{
closed = 1;
nodes = (
(118,0,l),
(404,425,l),
(367,425,l),
(276,0,l),
(407,0,l),
(498,425,l),
(457,425,l),
(569,0,l),
(693,0,l),
(702,40,l),
(509,714,l),
(460,714,l),
(-20,40,l),
(-29,0,l)
);
}
);
width = 773;
}
);
metricLeft = "e-canadian";
metricRight = "e-canadian";
note = uni15D1;
unicode = 5585;
},
{
color = 9;
glyphname = "weCarrier-canadian";
lastChange = "2023-01-13 15:28:49 +0000";
layers = (
{
layerId = "D19189FD-F605-4705-8DF9-B27AB1AA0ED8";
shapes = (
{
closed = 1;
nodes = (
(49,0,l),
(676,332,l),
(687,382,l),
(201,714,l),
(162,714,l),
(136,592,l),
(422,404,l),
(431,432,l),
(103,432,l),
(76,308,l),
(404,308,l),
(409,334,l),
(42,148,l),
(11,0,l)
);
}
);
width = 688;
}
);
metricRight = "o-canadian";
note = uni15D2;
unicode = 5586;
},
{
color = 9;
glyphname = "weeCarrier-canadian";
lastChange = "2023-01-13 15:28:49 +0000";
layers = (
{
layerId = "D19189FD-F605-4705-8DF9-B27AB1AA0ED8";
shapes = (
{
closed = 1;
nodes = (
(50,0,l),
(676,332,l),
(687,382,l),
(202,714,l),
(163,714,l),
(140,608,l),
(469,390,l),
(480,419,l),
(252,419,l),
(267,488,l),
(181,488,l),
(166,419,l),
(99,419,l),
(79,322,l),
(145,322,l),
(131,253,l),
(217,253,l),
(231,322,l),
(460,322,l),
(456,347,l),
(39,134,l),
(11,0,l)
);
}
);
width = 688;
}
);
metricLeft = "weCarrier-canadian";
metricRight = "o-canadian";
note = uni15D3;
unicode = 5587;
},
{
color = 9;
glyphname = "wiCarrier-canadian";
lastChange = "2023-01-13 15:28:49 +0000";
layers = (
{
layerId = "D19189FD-F605-4705-8DF9-B27AB1AA0ED8";
shapes = (
{
closed = 1;
nodes = (
(50,0,l),
(676,332,l),
(687,382,l),
(202,714,l),
(163,714,l),
(140,608,l),
(456,400,l),
(477,420,l),
(319,420,l),
(303,453,o),
(271,476,o),
(231,476,cs),
(192,476,o),
(159,453,o),
(144,420,c),
(100,420,l),
(80,330,l),
(147,330,l),
(163,300,o),
(195,280,o),
(232,280,cs),
(268,280,o),
(299,301,o),
(314,330,c),
(456,330,l),
(447,341,l),
(39,134,l),
(11,0,l)
);
}
);
width = 688;
}
);
metricLeft = "weCarrier-canadian";
metricRight = "o-canadian";
note = uni15D4;
unicode = 5588;
},
{
color = 9;
glyphname = "waCarrier-canadian";
lastChange = "2023-01-13 15:28:49 +0000";
layers = (
{
layerId = "D19189FD-F605-4705-8DF9-B27AB1AA0ED8";
shapes = (
{
closed = 1;
nodes = (
(569,0,l),
(595,122,l),
(309,310,l),
(301,282,l),
(628,282,l),
(655,406,l),
(327,406,l),
(322,380,l),
(689,566,l),
(720,714,l),
(682,714,l),
(55,382,l),
(44,332,l),
(530,0,l)
);
}
);
width = 687;
}
);
metricLeft = "=|o-canadian";
metricRight = "=|weCarrier-canadian";
note = uni15D5;
unicode = 5589;
},
{
color = 9;
glyphname = "hwuCarrier-canadian";
lastChange = "2023-01-13 15:28:25 +0000";
layers = (
{
layerId = "D19189FD-F605-4705-8DF9-B27AB1AA0ED8";
shapes = (
{
closed = 1;
nodes = (
(357.006,0,l),
(837,674,l),
(845,714,l),
(709,714,l),
(596,550,l),
(630,571,l),
(494,571,l),
(525,714,l),
(424,714,l),
(393,571,l),
(255,571,l),
(279,558,l),
(237,714,l),
(123,714,l),
(115,674,l),
(308,0,l)
);
},
{
closed = 1;
nodes = (
(362,216,l),
(287,507,l),
(273,484,l),
(385,484,l),
(328,215,l)
);
},
{
closed = 1;
nodes = (
(466,484,l),
(579,484,l),
(575,507,l),
(382,221,l),
(409,210,l)
);
}
);
width = 773;
}
);
metricLeft = "e-canadian";
metricRight = "e-canadian";
note = uni15D6;
unicode = 5590;
},
{
color = 9;
glyphname = "hwoCarrier-canadian";
lastChange = "2023-01-13 15:28:25 +0000";
layers = (
{
layerId = "D19189FD-F605-4705-8DF9-B27AB1AA0ED8";
shapes = (
{
closed = 1;
nodes = (
(107,0,l),
(220,164,l),
(187,143,l),
(322,143,l),
(291,0,l),
(393,0,l),
(423,143,l),
(561,143,l),
(537,156,l),
(579,0,l),
(693,0,l),
(702,40,l),
(508,714,l),
(459,714,l),
(-20,40,l),
(-29,0,l)
);
},
{
closed = 1;
nodes = (
(434,493,l),
(408,504,l),
(351,230,l),
(237,230,l),
(241,207,l)
);
},
{
closed = 1;
nodes = (
(544,230,l),
(432,230,l),
(488,499,l),
(455,498,l),
(529,207,l)
);
}
);
width = 773;
}
);
metricLeft = "e-canadian";
metricRight = "e-canadian";
note = uni15D7;
unicode = 5591;
},
{
color = 9;
glyphname = "hweCarrier-canadian";
lastChange = "2023-01-13 15:28:49 +0000";
layers = (
{
layerId = "D19189FD-F605-4705-8DF9-B27AB1AA0ED8";
shapes = (
{
closed = 1;
nodes = (
(49,0,l),
(676,332,l),
(687,382,l),
(201,714,l),
(162,714,l),
(140,609,l),
(254,534,l),
(230,423,l),
(101,423,l),
(78,319,l),
(208,319,l),
(185,209,l),
(38,134,l),
(10,0,l)
);
},
{
closed = 1;
nodes = (
(287,330,l),
(450,330,l),
(269,242,l)
);
},
{
closed = 1;
nodes = (
(323,498,l),
(459,413,l),
(305,413,l)
);
}
);
width = 688;
}
);
metricLeft = "weCarrier-canadian";
metricRight = "o-canadian";
note = uni15D8;
unicode = 5592;
},
{
color = 9;
glyphname = "hweeCarrier-canadian";
lastChange = "2023-01-13 15:28:49 +0000";
layers = (
{
layerId = "D19189FD-F605-4705-8DF9-B27AB1AA0ED8";
shapes = (
{
closed = 1;
nodes = (
(49,0,l),
(676,332,l),
(687,382,l),
(201,714,l),
(162,714,l),
(140,612,l),
(293,515,l),
(271,414,l),
(222,414,l),
(236,480,l),
(167,480,l),
(153,414,l),
(98,414,l),
(80,327,l),
(134,327,l),
(121,261,l),
(190,261,l),
(203,327,l),
(253,327,l),
(231,226,l),
(38,132,l),
(10,0,l)
);
},
{
closed = 1;
nodes = (
(322,336,l),
(462,336,l),
(306,259,l)
);
},
{
closed = 1;
nodes = (
(353,480,l),
(471,406,l),
(337,406,l)
);
}
);
width = 688;
}
);
metricLeft = "weCarrier-canadian";
metricRight = "o-canadian";
note = uni15D9;
unicode = 5593;
},
{
color = 9;
glyphname = "hwiCarrier-canadian";
lastChange = "2023-01-13 15:28:49 +0000";
layers = (
{
layerId = "D19189FD-F605-4705-8DF9-B27AB1AA0ED8";
shapes = (
{
closed = 1;
nodes = (
(49,0,l),
(676,332,l),
(687,382,l),
(201,714,l),
(162,714,l),
(141,612,l),
(293,514,l),
(270,406,l),
(245,406,l),
(234,430,o),
(209,447,o),
(181,447,cs),
(152,447,o),
(129,430,o),
(117,406,c),
(97,406,l),
(82,335,l),
(116,335,l),
(128,311,o),
(152,294,o),
(180,294,cs),
(208,294,o),
(232,311,o),
(244,335,c),
(255,335,l),
(232,226,l),
(38,132,l),
(10,0,l)
);
},
{
closed = 1;
nodes = (
(323,335,l),
(461,335,l),
(307,259,l)
);
},
{
closed = 1;
nodes = (
(353,481,l),
(471,406,l),
(337,406,l)
);
}
);
width = 688;
}
);
metricLeft = "weCarrier-canadian";
metricRight = "o-canadian";
note = uni15DA;
unicode = 5594;
},
{
color = 9;
glyphname = "hwaCarrier-canadian";
lastChange = "2023-01-13 15:28:49 +0000";
layers = (
{
layerId = "D19189FD-F605-4705-8DF9-B27AB1AA0ED8";
shapes = (
{
closed = 1;
nodes = (
(682,714,l),
(55,382,l),
(44,332,l),
(530,0,l),
(569,0,l),
(591,105,l),
(477,180,l),
(501,291,l),
(630,291,l),
(652,395,l),
(523,395,l),
(546,505,l),
(693,580,l),
(721,714,l)
);
},
{
closed = 1;
nodes = (
(444,384,l),
(281,384,l),
(462,472,l)
);
},
{
closed = 1;
nodes = (
(408,216,l),
(272,301,l),
(426,301,l)
);
}
);
width = 688;
}
);
metricLeft = "=|o-canadian";
metricRight = "=|weCarrier-canadian";
note = uni15DB;
unicode = 5595;
},
{
color = 9;
glyphname = "thuCarrier-canadian";
lastChange = "2023-01-13 15:28:49 +0000";
layers = (
{
layerId = "D19189FD-F605-4705-8DF9-B27AB1AA0ED8";
shapes = (
{
closed = 1;
nodes = (
(547,-15,o),
(657,85,o),
(702,295,cs),
(791,714,l),
(155,714,l),
(73,330,ls),
(28,115,o),
(139,-15,o),
(351,-15,cs)
);
},
{
closed = 1;
nodes = (
(291,569,l),
(593,569,l),
(536,299,ls),
(512,186,o),
(457,135,o),
(365,135,cs),
(254,135,o),
(212,198,o),
(237,318,cs)
);
}
);
width = 750;
}
);
metricLeft = "te-canadian";
metricRight = "te-canadian";
note = uni15DC;
unicode = 5596;
},
{
color = 9;
glyphname = "thoCarrier-canadian";
lastChange = "2023-01-13 15:28:49 +0000";
layers = (
{
layerId = "D19189FD-F605-4705-8DF9-B27AB1AA0ED8";
shapes = (
{
closed = 1;
nodes = (
(639,0,l),
(721,384,ls),
(766,599,o),
(655,729,o),
(443,729,cs),
(247,729,o),
(137,629,o),
(92,419,cs),
(3,0,l)
);
},
{
closed = 1;
nodes = (
(258,415,ls),
(282,528,o),
(337,579,o),
(429,579,cs),
(540,579,o),
(582,516,o),
(557,396,cs),
(503,145,l),
(201,145,l)
);
}
);
width = 750;
}
);
metricLeft = "te-canadian";
metricRight = "te-canadian";
note = uni15DD;
unicode = 5597;
},
{
color = 9;
glyphname = "theCarrier-canadian";
lastChange = "2023-01-13 15:28:49 +0000";
layers = (
{
anchors = (
{
name = middle_center_can;
pos = (397,357);
}
);
layerId = "D19189FD-F605-4705-8DF9-B27AB1AA0ED8";
shapes = (
{
closed = 1;
nodes = (
(290,0,ls),
(619,0,o),
(725,232,o),
(725,427,cs),
(725,606,o),
(612,714,o),
(411,714,cs),
(162,714,l),
(10,0,l)
);
},
{
closed = 1;
nodes = (
(308,620,l),
(249,569,l),
(376,569,ls),
(496,569,o),
(561,514,o),
(561,411,cs),
(561,273,o),
(477,145,o),
(296,145,cs),
(166,145,l),
(197,96,l)
);
}
);
width = 751;
}
);
metricLeft = "nunavuth-canadian";
metricRight = "to-canadian";
note = uni15DE;
unicode = 5598;
},
{
color = 9;
glyphname = "thaCarrier-canadian";
lastChange = "2023-01-13 15:28:49 +0000";
layers = (
{
layerId = "D19189FD-F605-4705-8DF9-B27AB1AA0ED8";
shapes = (
{
closed = 1;
nodes = (
(633,0,l),
(785,714,l),
(505,714,ls),
(176,714,o),
(70,482,o),
(70,287,cs),
(70,108,o),
(183,0,o),
(383,0,cs)
);
},
{
closed = 1;
nodes = (
(234,441,o),
(318,569,o),
(499,569,cs),
(629,569,l),
(598,618,l),
(487,94,l),
(545,145,l),
(418,145,ls),
(298,145,o),
(234,200,o),
(234,303,cs)
);
}
);
width = 751;
}
);
metricLeft = "=|theCarrier-canadian";
metricRight = "nunavuth-canadian";
note = uni15E1;
unicode = 5601;
},
{
color = 9;
glyphname = "ttuCarrier-canadian";
lastChange = "2023-01-13 15:28:49 +0000";
layers = (
{
layerId = "D19189FD-F605-4705-8DF9-B27AB1AA0ED8";
shapes = (
{
closed = 1;
nodes = (
(549,-15,o),
(657,83,o),
(703,301,cs),
(791,714,l),
(743,714,l),
(368,522,l),
(501,497,l),
(205.002,714,l),
(155,714,l),
(73,329,ls),
(28,115,o),
(137,-15,o),
(355,-15,cs)
);
},
{
closed = 1;
nodes = (
(256,135,o),
(213,200,o),
(237,317,cs),
(288,560,l),
(204,536,l),
(393,400,l),
(421,400,l),
(646,515,l),
(592,559,l),
(540,315,ls),
(514,189,o),
(458,135,o),
(361,135,cs)
);
}
);
width = 750;
}
);
metricLeft = "te-canadian";
metricRight = "te-canadian";
note = uni15E2;
unicode = 5602;
},
{
color = 9;
glyphname = "ttoCarrier-canadian";
lastChange = "2023-01-13 15:28:49 +0000";
layers = (
{
layerId = "D19189FD-F605-4705-8DF9-B27AB1AA0ED8";
shapes = (
{
closed = 1;
nodes = (
(51,0,l),
(426,192,l),
(293,217,l),
(589,0,l),
(639,0,l),
(721,385,ls),
(766,599,o),
(657,729,o),
(439,729,cs),
(245,729,o),
(137,631,o),
(91,413,cs),
(3,0,l)
);
},
{
closed = 1;
nodes = (
(538,579,o),
(581,514,o),
(557,397,cs),
(506,154,l),
(590,178,l),
(401,314,l),
(373,314,l),
(148,199,l),
(202,155,l),
(254,399,ls),
(280,525,o),
(336,579,o),
(433,579,cs)
);
}
);
width = 750;
}
);
metricLeft = "te-canadian";
metricRight = "te-canadian";
note = uni15E3;
unicode = 5603;
},
{
color = 9;
glyphname = "tteCarrier-canadian";
lastChange = "2023-01-13 15:28:49 +0000";
layers = (
{
anchors = (
{
name = middle_center_can;
pos = (448,357);
}
);
layerId = "D19189FD-F605-4705-8DF9-B27AB1AA0ED8";
shapes = (
{
closed = 1;
nodes = (
(300,0,ls),
(587,0,o),
(735,194,o),
(735,427,cs),
(735,606,o),
(622,714,o),
(424,714,cs),
(155,714,l),
(146,674,l),
(213,292,l),
(227,430,l),
(12,40,l),
(3,0,l)
);
},
{
closed = 1;
nodes = (
(355,343,l),
(360,368,l),
(311,643,l),
(254,569,l),
(386,569,ls),
(506,569,o),
(571,513,o),
(571,410,cs),
(571,274,o),
(487,145,o),
(306,145,cs),
(170,145,l),
(212,80,l)
);
}
);
width = 761;
}
);
metricRight = "theCarrier-canadian";
note = uni15E4;
unicode = 5604;
},
{
color = 9;
glyphname = "ttaCarrier-canadian";
lastChange = "2023-01-13 15:28:49 +0000";
layers = (
{
layerId = "D19189FD-F605-4705-8DF9-B27AB1AA0ED8";
shapes = (
{
closed = 1;
nodes = (
(651,0,l),
(660,40,l),
(592,422,l),
(578,284,l),
(794,674,l),
(803,714,l),
(506,714,ls),
(218,714,o),
(70,520,o),
(70,287,cs),
(70,108,o),
(184,0,o),
(381,0,cs)
);
},
{
closed = 1;
nodes = (
(552,145,l),
(419,145,ls),
(299,145,o),
(234,201,o),
(234,304,cs),
(234,440,o),
(319,569,o),
(500,569,cs),
(635,569,l),
(593,634,l),
(451,371,l),
(446,346,l),
(495,71,l)
);
}
);
width = 763;
}
);
metricLeft = "=|theCarrier-canadian";
metricRight = "=|tteCarrier-canadian";
note = uni15E7;
unicode = 5607;
},
{
color = 9;
glyphname = "puCarrier-canadian";
lastChange = "2023-01-13 15:28:49 +0000";
layers = (
{
layerId = "D19189FD-F605-4705-8DF9-B27AB1AA0ED8";
shapes = (
{
closed = 1;
nodes = (
(547,-15,o),
(657,85,o),
(702,295,cs),
(791,714,l),
(625,714,l),
(595,575,l),
(292,575,l),
(321,714,l),
(155,714,l),
(73,330,ls),
(28,115,o),
(139,-15,o),
(351,-15,cs)
);
},
{
closed = 1;
nodes = (
(254,135,o),
(212,198,o),
(237,318,cs),
(261,429,l),
(564,429,l),
(536,299,ls),
(512,186,o),
(457,135,o),
(365,135,cs)
);
}
);
width = 750;
}
);
metricLeft = "te-canadian";
metricRight = "te-canadian";
note = uni15E8;
unicode = 5608;
},
{
color = 9;
glyphname = "poCarrier-canadian";
lastChange = "2023-01-13 15:28:49 +0000";
layers = (
{
layerId = "D19189FD-F605-4705-8DF9-B27AB1AA0ED8";
shapes = (
{
closed = 1;
nodes = (
(169,0,l),
(199,139,l),
(502,139,l),
(473,0,l),
(639,0,l),
(721,384,ls),
(766,599,o),
(655,729,o),
(443,729,cs),
(247,729,o),
(137,629,o),
(92,419,cs),
(3,0,l)
);
},
{
closed = 1;
nodes = (
(258,415,ls),
(282,528,o),
(337,579,o),
(429,579,cs),
(540,579,o),
(582,516,o),
(557,396,cs),
(533,285,l),
(230,285,l)
);
}
);
width = 750;
}
);
metricLeft = "te-canadian";
metricRight = "te-canadian";
note = uni15E9;
unicode = 5609;
},
{
color = 9;
glyphname = "peCarrier-canadian";
lastChange = "2023-01-13 15:28:49 +0000";
layers = (
{
anchors = (
{
name = middle_center_can;
pos = (434,357);
}
);
layerId = "D19189FD-F605-4705-8DF9-B27AB1AA0ED8";
shapes = (
{
closed = 1;
nodes = (
(299,0,ls),
(628,0,o),
(734,232,o),
(734,427,cs),
(734,606,o),
(621,714,o),
(423,714,cs),
(154,714,l),
(123,569,l),
(205,569,l),
(115,145,l),
(33,145,l),
(2,0,l)
);
},
{
closed = 1;
nodes = (
(385,642,l),
(267,569,l),
(385,569,ls),
(505,569,o),
(569,513,o),
(569,411,cs),
(569,274,o),
(487,145,o),
(305,145,cs),
(177,145,l),
(265,72,l)
);
}
);
width = 760;
}
);
metricRight = "theCarrier-canadian";
note = uni15EA;
unicode = 5610;
},
{
color = 9;
glyphname = "paCarrier-canadian";
lastChange = "2023-01-13 15:28:25 +0000";
layers = (
{
layerId = "D19189FD-F605-4705-8DF9-B27AB1AA0ED8";
shapes = (
{
closed = 1;
nodes = (
(650,0,l),
(681,145,l),
(600,145,l),
(689,569,l),
(772,569,l),
(802,714,l),
(505,714,ls),
(177,714,o),
(70,482,o),
(70,287,cs),
(70,108,o),
(183,0,o),
(381,0,cs)
);
},
{
closed = 1;
nodes = (
(538,145,l),
(419,145,ls),
(299,145,o),
(235,201,o),
(235,303,cs),
(235,440,o),
(318,569,o),
(500,569,cs),
(628,569,l),
(540,642,l),
(419,72,l)
);
}
);
width = 761;
}
);
metricLeft = "=|theCarrier-canadian";
metricRight = "=|peCarrier-canadian";
note = uni15ED;
unicode = 5613;
},
{
color = 6;
glyphname = "pCarrier-canadian";
lastChange = "2023-01-13 15:28:25 +0000";
layers = (
{
layerId = "D19189FD-F605-4705-8DF9-B27AB1AA0ED8";
shapes = (
{
closed = 1;
nodes = (
(377.006,189,l),
(400,296,l),
(289,296,l),
(342,546,l),
(229,546,l),
(176,296,l),
(64,296,l),
(41,189,l)
);
}
);
width = 446;
}
);
metricLeft = "shorthorizontalstrokeFinal-canadian";
metricRight = "shorthorizontalstrokeFinal-canadian";
note = uni15EE;
unicode = 5614;
},
{
color = 9;
glyphname = "guCarrier-canadian";
lastChange = "2023-01-13 15:28:49 +0000";
layers = (
{
anchors = (
{
name = top_center_can;
pos = (540,714);
}
);
layerId = "D19189FD-F605-4705-8DF9-B27AB1AA0ED8";
shapes = (
{
closed = 1;
nodes = (
(335,-15,o),
(406,34,o),
(455,132,c),
(383,132,l),
(409,33,o),
(469,-15,o),
(571,-15,cs),
(705,-15,o),
(782,62,o),
(814,217,cs),
(920,714,l),
(761,714,l),
(656,218,ls),
(644,159,o),
(616,131,o),
(569,131,cs),
(521,131,o),
(500,162,o),
(512,219,cs),
(617,714,l),
(461,714,l),
(356,219,ls),
(344,161,o),
(314,131,o),
(267,131,cs),
(219,131,o),
(200,163,o),
(212,222,cs),
(317,714,l),
(158,714,l),
(56,232,ls),
(24,80,o),
(92,-15,o),
(237,-15,cs)
);
}
);
width = 882;
}
);
metricRight = "=|";
note = uni15EF;
unicode = 5615;
},
{
color = 9;
glyphname = "goCarrier-canadian";
lastChange = "2023-01-13 15:28:49 +0000";
layers = (
{
layerId = "D19189FD-F605-4705-8DF9-B27AB1AA0ED8";
shapes = (
{
closed = 1;
nodes = (
(165,0,l),
(270,496,ls),
(283,555,o),
(310,583,o),
(357,583,cs),
(405,583,o),
(426,552,o),
(414,495,cs),
(309,0,l),
(465,0,l),
(570,495,ls),
(582,553,o),
(612,583,o),
(659,583,cs),
(707,583,o),
(726,551,o),
(714,492,cs),
(609,0,l),
(768,0,l),
(870,482,ls),
(902,634,o),
(834,729,o),
(689,729,cs),
(591,729,o),
(520,680,o),
(471,582,c),
(544,582,l),
(517,681,o),
(457,729,o),
(356,729,cs),
(222,729,o),
(145,652,o),
(112,497,cs),
(6,0,l)
);
}
);
width = 882;
}
);
metricLeft = "guCarrier-canadian";
metricRight = "guCarrier-canadian";
note = uni15F0;
unicode = 5616;
},
{
color = 9;
glyphname = "geCarrier-canadian";
lastChange = "2023-01-13 15:28:49 +0000";
layers = (
{
anchors = (
{
name = top_center_can;
pos = (481,714);
}
);
layerId = "D19189FD-F605-4705-8DF9-B27AB1AA0ED8";
shapes = (
{
closed = 1;
nodes = (
(415,0,ls),
(575,0,o),
(685,76,o),
(685,223,cs),
(685,291,o),
(652,345,o),
(588,378,c),
(576,320,l),
(692,352,o),
(753,433,o),
(753,537,cs),
(753,645,o),
(670,714,o),
(551,714,cs),
(162,714,l),
(133,580,l),
(513,580,ls),
(561,580,o),
(587,556,o),
(587,517,cs),
(587,459,o),
(549,423,o),
(480,423,cs),
(100,423,l),
(72,291,l),
(452,291,ls),
(499,291,o),
(525,268,o),
(525,229,cs),
(525,176,o),
(494,134,o),
(418,134,cs),
(38,134,l),
(10,0,l)
);
}
);
width = 759;
}
);
metricLeft = "nunavuth-canadian";
note = uni15F1;
unicode = 5617;
},
{
color = 9;
glyphname = "geeCarrier-canadian";
lastChange = "2023-01-13 15:28:49 +0000";
layers = (
{
layerId = "D19189FD-F605-4705-8DF9-B27AB1AA0ED8";
shapes = (
{
closed = 1;
nodes = (
(415,0,ls),
(575,0,o),
(685,76,o),
(685,223,cs),
(685,291,o),
(652,345,o),
(588,378,c),
(576,320,l),
(692,352,o),
(753,433,o),
(753,537,cs),
(753,645,o),
(670,714,o),
(551,714,cs),
(162,714,l),
(133,580,l),
(513,580,ls),
(561,580,o),
(587,556,o),
(587,517,cs),
(587,459,o),
(549,423,o),
(480,423,cs),
(401,423,l),
(418,501,l),
(323,501,l),
(306,423,l),
(100,423,l),
(72,291,l),
(278,291,l),
(262,214,l),
(357,214,l),
(373,291,l),
(452,291,ls),
(499,291,o),
(525,268,o),
(525,229,cs),
(525,176,o),
(494,134,o),
(418,134,cs),
(38,134,l),
(10,0,l)
);
}
);
width = 759;
}
);
metricLeft = "geCarrier-canadian";
metricRight = "geCarrier-canadian";
note = uni15F2;
unicode = 5618;
},
{
color = 9;
glyphname = "giCarrier-canadian";
lastChange = "2023-01-13 15:28:49 +0000";
layers = (
{
layerId = "D19189FD-F605-4705-8DF9-B27AB1AA0ED8";
shapes = (
{
closed = 1;
nodes = (
(415,0,ls),
(575,0,o),
(685,76,o),
(685,223,cs),
(685,290,o),
(653,344,o),
(589,379,c),
(579,322,l),
(693,353,o),
(753,435,o),
(753,537,cs),
(753,645,o),
(670,714,o),
(551,714,cs),
(162,714,l),
(133,580,l),
(513,580,ls),
(561,580,o),
(587,556,o),
(587,517,cs),
(587,459,o),
(549,423,o),
(480,423,cs),
(411,423,l),
(464,378,l),
(455,433,o),
(409,475,o),
(350,475,cs),
(308,475,o),
(274,454,o),
(254,423,c),
(100,423,l),
(72,291,l),
(254,291,l),
(274,260,o),
(309,240,o),
(350,240,cs),
(408,240,o),
(452,283,o),
(463,336,c),
(401,291,l),
(452,291,ls),
(499,291,o),
(525,268,o),
(525,229,cs),
(525,176,o),
(494,134,o),
(418,134,cs),
(38,134,l),
(10,0,l)
);
}
);
width = 759;
}
);
metricLeft = "geCarrier-canadian";
metricRight = "geCarrier-canadian";
note = uni15F3;
unicode = 5619;
},
{
color = 9;
glyphname = "gaCarrier-canadian";
lastChange = "2023-01-13 15:28:49 +0000";
layers = (
{
anchors = (
{
name = top_center_can;
pos = (494,714);
}
);
layerId = "D19189FD-F605-4705-8DF9-B27AB1AA0ED8";
shapes = (
{
closed = 1;
nodes = (
(641,0,l),
(669,134,l),
(290,134,ls),
(242,134,o),
(215,158,o),
(215,197,cs),
(215,255,o),
(254,291,o),
(323,291,cs),
(703,291,l),
(731,423,l),
(351,423,ls),
(304,423,o),
(277,446,o),
(277,485,cs),
(277,538,o),
(309,580,o),
(385,580,cs),
(765,580,l),
(793,714,l),
(388,714,ls),
(228,714,o),
(117,638,o),
(117,491,cs),
(117,423,o),
(150,369,o),
(215,336,c),
(227,394,l),
(111,362,o),
(50,281,o),
(50,177,cs),
(50,69,o),
(132,0,o),
(252,0,cs)
);
}
);
width = 760;
}
);
metricLeft = "=|geCarrier-canadian";
metricRight = "=|geCarrier-canadian";
note = uni15F4;
unicode = 5620;
},
{
color = 9;
glyphname = "khuCarrier-canadian";
lastChange = "2023-01-13 15:28:49 +0000";
layers = (
{
layerId = "D19189FD-F605-4705-8DF9-B27AB1AA0ED8";
shapes = (
{
closed = 1;
nodes = (
(327,-15,o),
(396,28,o),
(444,112,c),
(388,115,l),
(417,28,o),
(475,-15,o),
(571,-15,cs),
(705,-15,o),
(782,62,o),
(814,217,cs),
(920,714,l),
(158,714,l),
(56,232,ls),
(24,80,o),
(92,-15,o),
(237,-15,cs)
);
},
{
closed = 1;
nodes = (
(219,131,o),
(200,163,o),
(212,222,cs),
(286,573,l),
(431,573,l),
(356,219,ls),
(344,161,o),
(314,131,o),
(267,131,cs)
);
},
{
closed = 1;
nodes = (
(521,131,o),
(500,162,o),
(512,219,cs),
(588,573,l),
(731,573,l),
(656,218,ls),
(644,159,o),
(616,131,o),
(569,131,cs)
);
}
);
width = 882;
}
);
metricLeft = "guCarrier-canadian";
metricRight = "guCarrier-canadian";
note = uni15F5;
unicode = 5621;
},
{
color = 9;
glyphname = "khoCarrier-canadian";
lastChange = "2023-01-13 15:28:49 +0000";
layers = (
{
layerId = "D19189FD-F605-4705-8DF9-B27AB1AA0ED8";
shapes = (
{
closed = 1;
nodes = (
(768,0,l),
(870,482,ls),
(902,634,o),
(834,729,o),
(689,729,cs),
(599,729,o),
(530,686,o),
(482,602,c),
(538,599,l),
(509,686,o),
(451,729,o),
(356,729,cs),
(221,729,o),
(145,652,o),
(112,497,cs),
(6,0,l)
);
},
{
closed = 1;
nodes = (
(270,496,ls),
(282,555,o),
(310,583,o),
(357,583,cs),
(405,583,o),
(426,552,o),
(414,495,cs),
(338,141,l),
(195,141,l)
);
},
{
closed = 1;
nodes = (
(570,495,ls),
(582,553,o),
(612,583,o),
(659,583,cs),
(707,583,o),
(726,551,o),
(714,492,cs),
(640,141,l),
(495,141,l)
);
}
);
width = 882;
}
);
metricLeft = "guCarrier-canadian";
metricRight = "guCarrier-canadian";
note = uni15F6;
unicode = 5622;
},
{
color = 9;
glyphname = "kheCarrier-canadian";
lastChange = "2023-01-13 15:28:49 +0000";
layers = (
{
layerId = "D19189FD-F605-4705-8DF9-B27AB1AA0ED8";
shapes = (
{
closed = 1;
nodes = (
(424,0,ls),
(584,0,o),
(695,76,o),
(695,223,cs),
(695,290,o),
(662,342,o),
(599,376,c),
(590,322,l),
(708,355,o),
(762,442,o),
(762,537,cs),
(762,645,o),
(679,714,o),
(559,714,cs),
(162,714,l),
(10,0,l)
);
},
{
closed = 1;
nodes = (
(238,292,l),
(460,292,ls),
(507,292,o),
(534,268,o),
(534,229,cs),
(534,174,o),
(499,132,o),
(426,132,cs),
(203,132,l)
);
},
{
closed = 1;
nodes = (
(300,582,l),
(522,582,ls),
(570,582,o),
(596,557,o),
(596,517,cs),
(596,463,o),
(561,422,o),
(489,422,cs),
(265,422,l)
);
}
);
width = 769;
}
);
metricLeft = "nunavuth-canadian";
metricRight = "geCarrier-canadian";
note = uni15F7;
unicode = 5623;
},
{
color = 9;
glyphname = "kheeCarrier-canadian";
lastChange = "2023-01-13 15:28:49 +0000";
layers = (
{
layerId = "D19189FD-F605-4705-8DF9-B27AB1AA0ED8";
shapes = (
{
closed = 1;
nodes = (
(424,0,ls),
(584,0,o),
(695,76,o),
(695,223,cs),
(695,290,o),
(662,342,o),
(599,376,c),
(590,322,l),
(708,355,o),
(762,442,o),
(762,537,cs),
(762,645,o),
(679,714,o),
(559,714,cs),
(162,714,l),
(10,0,l)
);
},
{
closed = 1;
nodes = (
(238,294,l),
(334,294,l),
(317,213,l),
(420,213,l),
(442,316,l),
(403,294,l),
(460,294,ls),
(507,294,o),
(534,269,o),
(534,230,cs),
(534,175,o),
(499,132,o),
(426,132,cs),
(203,132,l)
);
},
{
closed = 1;
nodes = (
(481,502,l),
(378,502,l),
(361,421,l),
(265,421,l),
(300,582,l),
(522,582,ls),
(570,582,o),
(596,557,o),
(596,517,cs),
(596,463,o),
(561,421,o),
(489,421,cs),
(430,421,l),
(460,400,l)
);
}
);
width = 769;
}
);
metricLeft = "nunavuth-canadian";
metricRight = "geCarrier-canadian";
note = uni15F8;
unicode = 5624;
},
{
color = 9;
glyphname = "khiCarrier-canadian";
lastChange = "2023-01-13 15:28:49 +0000";
layers = (
{
layerId = "D19189FD-F605-4705-8DF9-B27AB1AA0ED8";
shapes = (
{
closed = 1;
nodes = (
(424,0,ls),
(584,0,o),
(695,76,o),
(695,223,cs),
(695,289,o),
(662,343,o),
(597,376,c),
(586,320,l),
(708,354,o),
(762,442,o),
(762,537,cs),
(762,645,o),
(679,714,o),
(559,714,cs),
(162,714,l),
(10,0,l)
);
},
{
closed = 1;
nodes = (
(239,297,l),
(302,297,l),
(322,263,o),
(358,240,o),
(401,240,cs),
(461,240,o),
(507,287,o),
(513,344,c),
(417,297,l),
(464,297,ls),
(511,297,o),
(534,270,o),
(534,230,cs),
(534,175,o),
(499,132,o),
(426,132,cs),
(203,132,l)
);
},
{
closed = 1;
nodes = (
(522,582,ls),
(570,582,o),
(596,556,o),
(596,516,cs),
(596,461,o),
(564,418,o),
(492,418,cs),
(422,418,l),
(515,370,l),
(508,430,o),
(461,475,o),
(401,475,cs),
(340,475,o),
(292,430,o),
(287,370,c),
(342,418,l),
(265,418,l),
(300,582,l)
);
}
);
width = 769;
}
);
metricLeft = "nunavuth-canadian";
metricRight = "geCarrier-canadian";
note = uni15F9;
unicode = 5625;
},
{
color = 9;
glyphname = "khaCarrier-canadian";
lastChange = "2023-01-13 15:28:49 +0000";
layers = (
{
layerId = "D19189FD-F605-4705-8DF9-B27AB1AA0ED8";
shapes = (
{
closed = 1;
nodes = (
(650,0,l),
(802,714,l),
(388,714,ls),
(228,714,o),
(117,638,o),
(117,491,cs),
(117,424,o),
(149,372,o),
(213,338,c),
(222,392,l),
(104,359,o),
(50,272,o),
(50,177,cs),
(50,69,o),
(132,0,o),
(252,0,cs)
);
},
{
closed = 1;
nodes = (
(242,132,o),
(215,157,o),
(215,197,cs),
(215,251,o),
(251,292,o),
(323,292,cs),
(546,292,l),
(512,132,l),
(290,132,ls)
);
},
{
closed = 1;
nodes = (
(304,422,o),
(278,446,o),
(278,485,cs),
(278,540,o),
(313,582,o),
(386,582,cs),
(608,582,l),
(574,422,l),
(352,422,ls)
);
}
);
width = 768;
}
);
metricLeft = "=|geCarrier-canadian";
metricRight = "nunavuth-canadian";
note = uni15FA;
unicode = 5626;
},
{
color = 9;
glyphname = "kkuCarrier-canadian";
lastChange = "2023-01-13 15:28:49 +0000";
layers = (
{
layerId = "D19189FD-F605-4705-8DF9-B27AB1AA0ED8";
shapes = (
{
closed = 1;
nodes = (
(327,-15,o),
(395,26,o),
(445,112,c),
(388,114,l),
(417,28,o),
(475,-15,o),
(571,-15,cs),
(705,-15,o),
(781,61,o),
(814,217,cs),
(920,714,l),
(872,714,l),
(562,582,l),
(529,416,l),
(785,519,l),
(732,578,l),
(656,218,ls),
(644,159,o),
(616,131,o),
(569,131,cs),
(521,131,o),
(500,164,o),
(511,219,cs),
(617,714,l),
(462,714,l),
(357,219,ls),
(344,161,o),
(314,131,o),
(267,131,cs),
(219,131,o),
(200,163,o),
(212,222,cs),
(288,579,l),
(208,542,l),
(425,428,l),
(458,580,l),
(207,714,l),
(158,714,l),
(56,232,ls),
(23,79,o),
(93,-15,o),
(237,-15,cs)
);
}
);
width = 882;
}
);
metricLeft = "guCarrier-canadian";
metricRight = "guCarrier-canadian";
note = uni15FB;
unicode = 5627;
},
{
color = 9;
glyphname = "kkoCarrier-canadian";
lastChange = "2023-01-13 15:28:49 +0000";
layers = (
{
layerId = "D19189FD-F605-4705-8DF9-B27AB1AA0ED8";
shapes = (
{
closed = 1;
nodes = (
(54,0,l),
(364,132,l),
(397,298,l),
(141,195,l),
(194,136,l),
(270,496,ls),
(282,555,o),
(310,583,o),
(357,583,cs),
(405,583,o),
(426,550,o),
(415,495,cs),
(309,0,l),
(464,0,l),
(569,495,ls),
(582,553,o),
(612,583,o),
(659,583,cs),
(707,583,o),
(726,551,o),
(714,492,cs),
(638,135,l),
(718,172,l),
(501,286,l),
(468,134,l),
(719,0,l),
(768,0,l),
(870,482,ls),
(903,635,o),
(833,729,o),
(689,729,cs),
(599,729,o),
(531,688,o),
(481,602,c),
(538,600,l),
(509,686,o),
(451,729,o),
(355,729,cs),
(221,729,o),
(145,653,o),
(112,497,cs),
(6,0,l)
);
}
);
width = 882;
}
);
metricLeft = "guCarrier-canadian";
metricRight = "guCarrier-canadian";
note = uni15FC;
unicode = 5628;
},
{
color = 9;
glyphname = "kkeCarrier-canadian";
lastChange = "2023-01-13 15:28:49 +0000";
layers = (
{
layerId = "D19189FD-F605-4705-8DF9-B27AB1AA0ED8";
shapes = (
{
closed = 1;
nodes = (
(438,0,ls),
(598,0,o),
(709,75,o),
(709,223,cs),
(709,290,o),
(677,342,o),
(613,376,c),
(604,322,l),
(722,355,o),
(776,442,o),
(776,537,cs),
(776,645,o),
(694,714,o),
(574,714,cs),
(159,714,l),
(150,674,l),
(194,423,l),
(117,423,l),
(89,291,l),
(157,291,l),
(16,40,l),
(7,0,l)
);
},
{
closed = 1;
nodes = (
(327,291,l),
(475,291,ls),
(522,291,o),
(549,268,o),
(549,229,cs),
(549,177,o),
(517,134,o),
(441,134,cs),
(164,134,l),
(205,69,l)
);
},
{
closed = 1;
nodes = (
(313,654,l),
(253,580,l),
(536,580,ls),
(584,580,o),
(611,557,o),
(611,517,cs),
(611,459,o),
(572,423,o),
(503,423,cs),
(354,423,l)
);
}
);
width = 783;
}
);
metricRight = "geCarrier-canadian";
note = uni15FD;
unicode = 5629;
},
{
color = 9;
glyphname = "kkeeCarrier-canadian";
lastChange = "2023-01-13 15:28:49 +0000";
layers = (
{
layerId = "D19189FD-F605-4705-8DF9-B27AB1AA0ED8";
shapes = (
{
closed = 1;
nodes = (
(438,0,ls),
(598,0,o),
(709,75,o),
(709,223,cs),
(709,290,o),
(677,342,o),
(613,376,c),
(604,322,l),
(722,355,o),
(776,442,o),
(776,537,cs),
(776,645,o),
(694,714,o),
(574,714,cs),
(159,714,l),
(150,674,l),
(194,423,l),
(117,423,l),
(89,291,l),
(157,291,l),
(16,40,l),
(7,0,l)
);
},
{
closed = 1;
nodes = (
(329,295,l),
(372,295,l),
(355,213,l),
(458,213,l),
(482,326,l),
(446,295,l),
(481,295,ls),
(525,295,o),
(549,268,o),
(549,229,cs),
(549,177,o),
(517,134,o),
(441,134,cs),
(164,134,l),
(205,69,l)
);
},
{
closed = 1;
nodes = (
(519,502,l),
(416,502,l),
(398,419,l),
(355,419,l),
(313,654,l),
(253,580,l),
(536,580,ls),
(584,580,o),
(611,557,o),
(611,517,cs),
(611,459,o),
(572,419,o),
(506,419,cs),
(471,419,l),
(497,397,l)
);
}
);
width = 783;
}
);
metricLeft = "kkeCarrier-canadian";
metricRight = "geCarrier-canadian";
note = uni15FE;
unicode = 5630;
},
{
color = 9;
glyphname = "kkiCarrier-canadian";
lastChange = "2023-01-13 15:28:49 +0000";
layers = (
{
layerId = "D19189FD-F605-4705-8DF9-B27AB1AA0ED8";
shapes = (
{
closed = 1;
nodes = (
(438,0,ls),
(598,0,o),
(709,75,o),
(709,223,cs),
(709,290,o),
(677,342,o),
(613,376,c),
(604,322,l),
(722,355,o),
(776,442,o),
(776,537,cs),
(776,645,o),
(694,714,o),
(574,714,cs),
(159,714,l),
(150,674,l),
(194,423,l),
(117,423,l),
(89,291,l),
(157,291,l),
(16,40,l),
(7,0,l)
);
},
{
closed = 1;
nodes = (
(330,298,l),
(334,298,l),
(353,263,o),
(389,240,o),
(432,240,cs),
(487,240,o),
(530,280,o),
(539,330,c),
(445,298,l),
(481,298,ls),
(528,298,o),
(549,268,o),
(549,229,cs),
(549,177,o),
(517,134,o),
(441,134,cs),
(164,134,l),
(205,69,l)
);
},
{
closed = 1;
nodes = (
(533,434,o),
(489,475,o),
(432,475,cs),
(389,475,o),
(352,451,o),
(334,416,c),
(356,416,l),
(313,654,l),
(253,580,l),
(536,580,ls),
(584,580,o),
(611,557,o),
(611,517,cs),
(611,459,o),
(575,416,o),
(506,416,cs),
(447,416,l),
(542,380,l)
);
}
);
width = 783;
}
);
metricLeft = "kkeCarrier-canadian";
metricRight = "geCarrier-canadian";
note = uni15FF;
unicode = 5631;
},
{
color = 9;
glyphname = "kkaCarrier-canadian";
lastChange = "2023-01-13 15:28:49 +0000";
layers = (
{
layerId = "D19189FD-F605-4705-8DF9-B27AB1AA0ED8";
shapes = (
{
closed = 1;
nodes = (
(667,0,l),
(676,40,l),
(632,291,l),
(710,291,l),
(737,423,l),
(669,423,l),
(811,674,l),
(819,714,l),
(388,714,ls),
(228,714,o),
(117,639,o),
(117,491,cs),
(117,424,o),
(149,372,o),
(213,338,c),
(222,392,l),
(104,359,o),
(50,272,o),
(50,177,cs),
(50,69,o),
(132,0,o),
(252,0,cs)
);
},
{
closed = 1;
nodes = (
(573,134,l),
(290,134,ls),
(242,134,o),
(215,157,o),
(215,197,cs),
(215,255,o),
(254,291,o),
(323,291,cs),
(472,291,l),
(513,60,l)
);
},
{
closed = 1;
nodes = (
(304,423,o),
(277,446,o),
(277,485,cs),
(277,537,o),
(309,580,o),
(385,580,cs),
(662,580,l),
(621,645,l),
(499,423,l),
(351,423,ls)
);
}
);
width = 783;
}
);
metricLeft = "=|geCarrier-canadian";
metricRight = "=|kkeCarrier-canadian";
note = uni1600;
unicode = 5632;
},
{
color = 6;
glyphname = "kkCarrier-canadian";
lastChange = "2023-01-13 15:28:25 +0000";
layers = (
{
layerId = "D19189FD-F605-4705-8DF9-B27AB1AA0ED8";
shapes = (
{
closed = 1;
nodes = (
(337,546,l),
(180,310,l),
(260,310,l),
(202,546,l),
(98,546,l),
(94,526,l),
(186,189,l),
(211,189,l),
(447,526,l),
(451,546,l)
);
}
);
width = 425;
}
);
note = uni1601;
unicode = 5633;
},
{
color = 9;
glyphname = "nuCarrier-canadian";
lastChange = "2023-01-13 15:28:25 +0000";
layers = (
{
layerId = "D19189FD-F605-4705-8DF9-B27AB1AA0ED8";
shapes = (
{
closed = 1;
nodes = (
(538,-15,o),
(656,87,o),
(696,272,cs),
(708,324,l),
(543,324,l),
(535,285,ls),
(513,185,o),
(458,135,o),
(368,135,cs),
(259,135,o),
(213,204,o),
(240,328,cs),
(321,714,l),
(155,714,l),
(76,340,ls),
(30,126,o),
(140,-15,o),
(356,-15,cs)
);
}
);
width = 741;
}
);
metricLeft = "te-canadian";
note = uni1602;
unicode = 5634;
},
{
color = 9;
glyphname = "noCarrier-canadian";
lastChange = "2023-01-13 15:28:49 +0000";
layers = (
{
layerId = "D19189FD-F605-4705-8DF9-B27AB1AA0ED8";
shapes = (
{
closed = 1;
nodes = (
(630,0,l),
(709,374,ls),
(755,588,o),
(645,729,o),
(429,729,cs),
(247,729,o),
(129,627,o),
(89,442,cs),
(77,390,l),
(242,390,l),
(250,429,ls),
(272,529,o),
(327,579,o),
(417,579,cs),
(526,579,o),
(572,510,o),
(545,386,cs),
(464,0,l)
);
}
);
width = 741;
}
);
metricLeft = "=|nuCarrier-canadian";
metricRight = "te-canadian";
note = uni1603;
unicode = 5635;
},
{
color = 9;
glyphname = "neCarrier-canadian";
lastChange = "2023-01-13 15:28:25 +0000";
layers = (
{
anchors = (
{
name = middle_center_can;
pos = (384,356);
}
);
layerId = "D19189FD-F605-4705-8DF9-B27AB1AA0ED8";
shapes = (
{
closed = 1;
nodes = (
(296,0,ls),
(619,0,o),
(729,226,o),
(729,425,cs),
(729,605,o),
(615,714,o),
(416,714,cs),
(140,714,l),
(108,565,l),
(392,565,ls),
(503,565,o),
(564,508,o),
(564,409,cs),
(564,294,o),
(500,147,o),
(313,147,cs),
(293,147,l),
(262,0,l)
);
}
);
width = 756;
}
);
metricRight = "theCarrier-canadian";
note = uni1604;
unicode = 5636;
},
{
color = 9;
glyphname = "naCarrier-canadian";
lastChange = "2023-01-13 15:28:49 +0000";
layers = (
{
layerId = "D19189FD-F605-4705-8DF9-B27AB1AA0ED8";
shapes = (
{
closed = 1;
nodes = (
(659,0,l),
(690,149,l),
(406,149,ls),
(295,149,o),
(234,206,o),
(234,305,cs),
(234,420,o),
(298,567,o),
(485,567,cs),
(505,567,l),
(536,714,l),
(502,714,ls),
(179,714,o),
(70,488,o),
(70,289,cs),
(70,109,o),
(183,0,o),
(383,0,cs)
);
}
);
width = 755;
}
);
metricLeft = "=|theCarrier-canadian";
metricRight = "=|neCarrier-canadian";
note = uni1607;
unicode = 5639;
},
{
color = 9;
glyphname = "muCarrier-canadian";
lastChange = "2023-01-13 15:28:25 +0000";
layers = (
{
layerId = "D19189FD-F605-4705-8DF9-B27AB1AA0ED8";
shapes = (
{
closed = 1;
nodes = (
(334,-15,o),
(407,31,o),
(455,132,c),
(383,132,l),
(409,36,o),
(469,-15,o),
(571,-15,cs),
(705,-15,o),
(781,62,o),
(814,217,cs),
(856,409,l),
(692,409,l),
(652,218,ls),
(639,159,o),
(612,131,o),
(571,131,cs),
(523,131,o),
(503,165,o),
(515,218,cs),
(555,409,l),
(394,409,l),
(354,219,ls),
(341,160,o),
(311,131,o),
(268,131,cs),
(223,131,o),
(205,163,o),
(217,222,cs),
(321,714,l),
(158,714,l),
(56,232,ls),
(24,80,o),
(92,-15,o),
(237,-15,cs)
);
}
);
width = 883;
}
);
metricLeft = "guCarrier-canadian";
metricRight = "=|";
note = uni1608;
unicode = 5640;
},
{
color = 9;
glyphname = "moCarrier-canadian";
lastChange = "2023-01-13 15:28:49 +0000";
layers = (
{
layerId = "D19189FD-F605-4705-8DF9-B27AB1AA0ED8";
shapes = (
{
closed = 1;
nodes = (
(768,0,l),
(870,482,ls),
(902,634,o),
(834,729,o),
(689,729,cs),
(592,729,o),
(519,683,o),
(471,582,c),
(543,582,l),
(518,678,o),
(457,729,o),
(356,729,cs),
(221,729,o),
(146,652,o),
(113,497,cs),
(71,305,l),
(235,305,l),
(275,496,ls),
(288,555,o),
(314,583,o),
(356,583,cs),
(403,583,o),
(423,549,o),
(411,496,cs),
(371,305,l),
(532,305,l),
(572,495,ls),
(585,554,o),
(615,583,o),
(658,583,cs),
(703,583,o),
(721,551,o),
(709,492,cs),
(605,0,l)
);
}
);
width = 882;
}
);
metricLeft = "=|muCarrier-canadian";
metricRight = "guCarrier-canadian";
note = uni1609;
unicode = 5641;
},
{
color = 9;
glyphname = "meCarrier-canadian";
lastChange = "2023-01-13 15:28:49 +0000";
layers = (
{
layerId = "D19189FD-F605-4705-8DF9-B27AB1AA0ED8";
shapes = (
{
closed = 1;
nodes = (
(420,0,ls),
(580,0,o),
(691,76,o),
(691,223,cs),
(691,291,o),
(658,345,o),
(593,378,c),
(582,320,l),
(697,352,o),
(758,433,o),
(758,537,cs),
(758,645,o),
(676,714,o),
(556,714,cs),
(140,714,l),
(111,580,l),
(519,580,ls),
(566,580,o),
(593,556,o),
(593,517,cs),
(593,459,o),
(554,423,o),
(485,423,cs),
(333,423,l),
(305,291,l),
(457,291,ls),
(504,291,o),
(531,268,o),
(531,229,cs),
(531,176,o),
(499,134,o),
(423,134,cs),
(271,134,l),
(243,0,l)
);
}
);
width = 765;
}
);
metricLeft = "neCarrier-canadian";
metricRight = "geCarrier-canadian";
note = uni160A;
unicode = 5642;
},
{
color = 9;
glyphname = "meeCarrier-canadian";
lastChange = "2023-01-13 15:28:49 +0000";
layers = (
{
layerId = "D19189FD-F605-4705-8DF9-B27AB1AA0ED8";
shapes = (
{
closed = 1;
nodes = (
(420,0,ls),
(580,0,o),
(691,76,o),
(691,223,cs),
(691,291,o),
(658,345,o),
(593,378,c),
(582,320,l),
(697,352,o),
(758,433,o),
(758,537,cs),
(758,645,o),
(676,714,o),
(556,714,cs),
(140,714,l),
(111,580,l),
(519,580,ls),
(566,580,o),
(593,556,o),
(593,517,cs),
(593,459,o),
(554,420,o),
(486,420,cs),
(438,420,l),
(453,493,l),
(347,493,l),
(289,221,l),
(396,221,l),
(411,294,l),
(459,294,ls),
(505,294,o),
(531,268,o),
(531,229,cs),
(531,176,o),
(499,134,o),
(423,134,cs),
(271,134,l),
(243,0,l)
);
}
);
width = 765;
}
);
metricLeft = "neCarrier-canadian";
metricRight = "geCarrier-canadian";
note = uni160B;
unicode = 5643;
},
{
color = 9;
glyphname = "miCarrier-canadian";
lastChange = "2023-01-13 15:28:49 +0000";
layers = (
{
layerId = "D19189FD-F605-4705-8DF9-B27AB1AA0ED8";
shapes = (
{
closed = 1;
nodes = (
(419,0,ls),
(575,0,o),
(665,63,o),
(686,181,cs),
(702,269,o),
(670,338,o),
(593,378,c),
(581,320,l),
(682,347,o),
(738,409,o),
(753,496,cs),
(778,625,o),
(692,714,o),
(555,714,cs),
(140,714,l),
(111,580,l),
(518,580,ls),
(571,580,o),
(598,550,o),
(590,502,cs),
(583,447,o),
(546,420,o),
(485,420,cs),
(396,420,l),
(488,371,l),
(479,432,o),
(433,475,o),
(372,475,cs),
(306,475,o),
(257,421,o),
(257,357,cs),
(257,291,o),
(306,240,o),
(372,240,cs),
(432,240,o),
(478,284,o),
(487,341,c),
(395,294,l),
(457,294,ls),
(510,294,o),
(537,265,o),
(529,213,cs),
(521,161,o),
(486,134,o),
(422,134,cs),
(270,134,l),
(242,0,l)
);
}
);
width = 763;
}
);
metricLeft = "neCarrier-canadian";
metricRight = "geCarrier-canadian";
note = uni160C;
unicode = 5644;
},
{
color = 9;
glyphname = "maCarrier-canadian";
lastChange = "2023-01-13 15:28:49 +0000";
layers = (
{
layerId = "D19189FD-F605-4705-8DF9-B27AB1AA0ED8";
shapes = (
{
closed = 1;
nodes = (
(669,0,l),
(697,134,l),
(290,134,ls),
(242,134,o),
(215,158,o),
(215,197,cs),
(215,255,o),
(254,291,o),
(323,291,cs),
(475,291,l),
(503,423,l),
(351,423,ls),
(304,423,o),
(277,446,o),
(277,485,cs),
(277,538,o),
(309,580,o),
(385,580,cs),
(537,580,l),
(565,714,l),
(388,714,ls),
(228,714,o),
(117,638,o),
(117,491,cs),
(117,423,o),
(150,369,o),
(215,336,c),
(227,394,l),
(111,362,o),
(50,281,o),
(50,177,cs),
(50,69,o),
(132,0,o),
(252,0,cs)
);
}
);
width = 765;
}
);
metricLeft = "=|geCarrier-canadian";
metricRight = "=|neCarrier-canadian";
note = uni160D;
unicode = 5645;
},
{
color = 9;
glyphname = "yuCarrier-canadian";
lastChange = "2023-01-13 15:28:49 +0000";
layers = (
{
layerId = "D19189FD-F605-4705-8DF9-B27AB1AA0ED8";
shapes = (
{
closed = 1;
nodes = (
(574,-15,o),
(712,118,o),
(764,362,cs),
(811,584,o),
(748,729,o),
(584,729,cs),
(427,729,o),
(356,592,o),
(356,467,cs),
(356,365,o),
(413,296,o),
(503,296,cs),
(515,296,o),
(525,298,o),
(545,301,c),
(572,431,l),
(568,430,o),
(563,430,o),
(557,430,cs),
(519,430,o),
(501,448,o),
(501,483,cs),
(501,520,o),
(518,595,o),
(571,595,cs),
(629,595,o),
(638,521,o),
(612,398,cs),
(575,216,o),
(508,135,o),
(391,135,cs),
(269,135,o),
(216,223,o),
(245,356,cs),
(321,714,l),
(155,714,l),
(79,359,ls),
(33,141,o),
(149,-15,o),
(373,-15,cs)
);
}
);
width = 798;
}
);
metricLeft = "te-canadian";
metricRight = "te-canadian";
note = uni160E;
unicode = 5646;
},
{
color = 9;
glyphname = "yoCarrier-canadian";
lastChange = "2023-01-13 15:28:49 +0000";
layers = (
{
layerId = "D19189FD-F605-4705-8DF9-B27AB1AA0ED8";
shapes = (
{
closed = 1;
nodes = (
(415,-15,o),
(486,122,o),
(486,247,cs),
(486,349,o),
(430,418,o),
(339,418,cs),
(328,418,o),
(317,416,o),
(297,413,c),
(270,283,l),
(275,284,o),
(279,284,o),
(286,284,cs),
(323,284,o),
(342,266,o),
(342,231,cs),
(342,194,o),
(325,119,o),
(272,119,cs),
(214,119,o),
(204,193,o),
(230,316,cs),
(267,498,o),
(335,579,o),
(452,579,cs),
(573,579,o),
(626,491,o),
(598,358,cs),
(522,0,l),
(688,0,l),
(763,355,ls),
(810,573,o),
(694,729,o),
(470,729,cs),
(269,729,o),
(130,596,o),
(78,352,cs),
(31,130,o),
(94,-15,o),
(259,-15,cs)
);
}
);
width = 799;
}
);
metricLeft = "te-canadian";
metricRight = "te-canadian";
note = uni160F;
unicode = 5647;
},
{
color = 9;
glyphname = "yeCarrier-canadian";
lastChange = "2023-01-13 15:28:49 +0000";
layers = (
{
layerId = "D19189FD-F605-4705-8DF9-B27AB1AA0ED8";
shapes = (
{
closed = 1;
nodes = (
(594,-15,o),
(723,214,o),
(723,420,cs),
(723,605,o),
(608,714,o),
(404,714,cs),
(162,714,l),
(131,565,l),
(376,565,ls),
(495,565,o),
(557,509,o),
(557,407,cs),
(557,276,o),
(504,125,o),
(334,125,cs),
(242,125,o),
(190,159,o),
(190,218,cs),
(190,254,o),
(208,306,o),
(256,306,cs),
(286,306,o),
(303,287,o),
(303,253,cs),
(303,234,o),
(298,209,o),
(291,191,c),
(422,191,l),
(433,219,o),
(441,252,o),
(441,281,cs),
(441,375,o),
(373,437,o),
(265,437,cs),
(124,437,o),
(44,317,o),
(44,199,cs),
(44,68,o),
(152,-15,o),
(328,-15,cs)
);
}
);
width = 750;
}
);
metricRight = "theCarrier-canadian";
note = uni1610;
unicode = 5648;
},
{
color = 9;
glyphname = "yeeCarrier-canadian";
lastChange = "2023-01-13 15:28:49 +0000";
layers = (
{
layerId = "D19189FD-F605-4705-8DF9-B27AB1AA0ED8";
shapes = (
{
closed = 1;
nodes = (
(591,-15,o),
(723,211,o),
(723,420,cs),
(723,605,o),
(606,714,o),
(404,714,cs),
(162,714,l),
(131,565,l),
(376,565,ls),
(495,565,o),
(556,509,o),
(556,402,cs),
(556,314,o),
(527,125,o),
(334,125,cs),
(242,125,o),
(190,158,o),
(190,216,cs),
(190,252,o),
(208,306,o),
(257,306,cs),
(295,306,o),
(311,276,o),
(301,234,cs),
(293,196,l),
(388,196,l),
(453,500,l),
(358,500,l),
(322,335,l),
(337,334,l),
(347,396,o),
(307,437,o),
(236,437,cs),
(113,437,o),
(46,317,o),
(46,205,cs),
(46,71,o),
(152,-15,o),
(331,-15,cs)
);
}
);
width = 750;
}
);
metricRight = "theCarrier-canadian";
metricWidth = "yeCarrier-canadian";
note = uni1611;
unicode = 5649;
},
{
color = 9;
glyphname = "yiCarrier-canadian";
lastChange = "2023-01-13 15:28:49 +0000";
layers = (
{
layerId = "D19189FD-F605-4705-8DF9-B27AB1AA0ED8";
shapes = (
{
closed = 1;
nodes = (
(589,-15,o),
(723,206,o),
(723,420,cs),
(723,605,o),
(607,714,o),
(404,714,cs),
(162,714,l),
(131,565,l),
(376,565,ls),
(495,565,o),
(556,509,o),
(556,402,cs),
(556,306,o),
(522,125,o),
(334,125,cs),
(241,125,o),
(189,159,o),
(189,218,cs),
(189,271,o),
(220,319,o),
(299,307,c),
(256,356,l),
(256,303,o),
(299,261,o),
(354,261,cs),
(410,261,o),
(452,303,o),
(452,358,cs),
(452,412,o),
(410,453,o),
(354,453,cs),
(322,453,o),
(295,440,o),
(278,418,c),
(135,412,o),
(43,330,o),
(43,198,cs),
(43,72,o),
(152,-15,o),
(328,-15,cs)
);
}
);
width = 750;
}
);
metricRight = "theCarrier-canadian";
metricWidth = "yeCarrier-canadian";
note = uni1612;
unicode = 5650;
},
{
color = 9;
glyphname = "yaCarrier-canadian";
lastChange = "2023-01-13 15:28:25 +0000";
layers = (
{
layerId = "D19189FD-F605-4705-8DF9-B27AB1AA0ED8";
shapes = (
{
closed = 1;
nodes = (
(633,0,l),
(664,149,l),
(419,149,ls),
(299,149,o),
(238,205,o),
(238,307,cs),
(238,438,o),
(291,589,o),
(460,589,cs),
(552,589,o),
(604,555,o),
(604,496,cs),
(604,460,o),
(586,408,o),
(539,408,cs),
(508,408,o),
(492,427,o),
(492,461,cs),
(492,481,o),
(497,505,o),
(503,523,c),
(372,523,l),
(361,495,o),
(354,462,o),
(354,433,cs),
(354,339,o),
(422,277,o),
(529,277,cs),
(671,277,o),
(750,397,o),
(750,515,cs),
(750,646,o),
(643,729,o),
(466,729,cs),
(200,729,o),
(71,500,o),
(71,294,cs),
(71,109,o),
(187,0,o),
(390,0,cs)
);
}
);
width = 751;
}
);
metricLeft = "=|theCarrier-canadian";
metricRight = "=|yeCarrier-canadian";
note = uni1613;
unicode = 5651;
},
{
color = 9;
glyphname = "juCarrier-canadian";
lastChange = "2023-01-13 15:28:25 +0000";
layers = (
{
layerId = "D19189FD-F605-4705-8DF9-B27AB1AA0ED8";
shapes = (
{
closed = 1;
nodes = (
(572,-15,o),
(708,96,o),
(708,260,cs),
(708,364,o),
(641,437,o),
(532,437,cs),
(411,437,o),
(337,348,o),
(322,241,cs),
(319,225,o),
(318,208,o),
(319,191,c),
(450,191,l),
(450,200,o),
(452,214,o),
(455,229,cs),
(463,272,o),
(485,306,o),
(521,306,cs),
(548,306,o),
(564,287,o),
(564,254,cs),
(564,182,o),
(510,125,o),
(412,125,cs),
(299,125,o),
(237,178,o),
(237,273,cs),
(237,461,o),
(393,565,o),
(607,565,cs),
(766,565,l),
(798,714,l),
(153,714,l),
(122,572,l),
(390,572,l),
(516,629,l),
(272,623,o),
(73,493,o),
(73,266,cs),
(73,104,o),
(201,-15,o),
(391,-15,cs)
);
}
);
width = 763;
}
);
metricRight = "=|yeCarrier-canadian";
note = uni1614;
unicode = 5652;
},
{
color = 9;
glyphname = "juSayisi-canadian";
lastChange = "2023-01-13 15:28:49 +0000";
layers = (
{
anchors = (
{
name = top_center_can;
pos = (483,714);
}
);
layerId = "D19189FD-F605-4705-8DF9-B27AB1AA0ED8";
shapes = (
{
closed = 1;
nodes = (
(564,-15,o),
(703,150,o),
(714,344,cs),
(725,520,o),
(612,625,o),
(392,631,c),
(508,572,l),
(776,572,l),
(806,714,l),
(160,714,l),
(128,565,l),
(300,565,ls),
(482,565,o),
(563,495,o),
(552,357,cs),
(546,266,o),
(515,125,o),
(336,125,cs),
(238,125,o),
(187,161,o),
(191,226,cs),
(193,265,o),
(213,306,o),
(254,306,cs),
(287,306,o),
(301,285,o),
(299,245,cs),
(299,227,o),
(295,208,o),
(288,191,c),
(419,191,l),
(430,217,o),
(436,244,o),
(437,270,cs),
(443,370,o),
(376,437,o),
(264,437,cs),
(139,437,o),
(53,343,o),
(46,219,cs),
(37,79,o),
(146,-15,o),
(331,-15,cs)
);
}
);
width = 764;
}
);
metricLeft = "yeCarrier-canadian";
metricRight = "=|juCarrier-canadian";
note = uni1615;
unicode = 5653;
},
{
color = 9;
glyphname = "joCarrier-canadian";
lastChange = "2023-01-13 15:28:25 +0000";
layers = (
{
layerId = "D19189FD-F605-4705-8DF9-B27AB1AA0ED8";
shapes = (
{
closed = 1;
nodes = (
(654,0,l),
(684,142,l),
(416,142,l),
(291,85,l),
(534,91,o),
(734,221,o),
(734,448,cs),
(734,610,o),
(605,729,o),
(416,729,cs),
(234,729,o),
(99,618,o),
(99,454,cs),
(99,350,o),
(166,277,o),
(275,277,cs),
(396,277,o),
(469,366,o),
(485,473,cs),
(487,489,o),
(488,506,o),
(488,523,c),
(356,523,l),
(356,514,o),
(355,500,o),
(352,485,cs),
(343,442,o),
(321,408,o),
(286,408,cs),
(258,408,o),
(243,427,o),
(243,460,cs),
(243,532,o),
(297,589,o),
(394,589,cs),
(508,589,o),
(569,536,o),
(569,441,cs),
(569,253,o),
(414,149,o),
(200,149,cs),
(40,149,l),
(9,0,l)
);
}
);
width = 763;
}
);
metricLeft = "yeCarrier-canadian";
metricRight = "=|juCarrier-canadian";
note = uni1616;
unicode = 5654;
},
{
color = 9;
glyphname = "jeCarrier-canadian";
lastChange = "2023-01-13 15:28:49 +0000";
layers = (
{
layerId = "D19189FD-F605-4705-8DF9-B27AB1AA0ED8";
shapes = (
{
closed = 1;
nodes = (
(699,-15,o),
(770,263,o),
(770,430,cs),
(770,611,o),
(680,729,o),
(524,729,cs),
(398,729,o),
(303,650,o),
(254,507,c),
(281,503,l),
(327,714,l),
(162,714,l),
(10,0,l),
(176,0,l),
(237,284,ls),
(277,473,o),
(365,579,o),
(484,579,cs),
(569,579,o),
(612,524,o),
(612,419,cs),
(612,347,o),
(582,119,o),
(492,119,cs),
(460,119,o),
(442,140,o),
(442,174,cs),
(442,225,o),
(470,284,o),
(531,284,cs),
(538,284,o),
(545,284,o),
(550,283,c),
(576,413,l),
(555,416,o),
(539,418,o),
(523,418,cs),
(368,418,o),
(299,281,o),
(299,162,cs),
(299,53,o),
(366,-15,o),
(478,-15,cs)
);
}
);
width = 805;
}
);
metricLeft = "nunavuth-canadian";
metricRight = "te-canadian";
note = uni1617;
unicode = 5655;
},
{
color = 9;
glyphname = "jeeCarrier-canadian";
lastChange = "2023-01-13 15:28:49 +0000";
layers = (
{
layerId = "D19189FD-F605-4705-8DF9-B27AB1AA0ED8";
shapes = (
{
closed = 1;
nodes = (
(698,-15,o),
(770,263,o),
(770,428,cs),
(770,611,o),
(680,729,o),
(524,729,cs),
(397,729,o),
(303,650,o),
(254,505,c),
(281,503,l),
(327,714,l),
(162,714,l),
(10,0,l),
(176,0,l),
(236,278,ls),
(278,473,o),
(364,579,o),
(483,579,cs),
(569,579,o),
(613,524,o),
(613,419,cs),
(613,318,o),
(575,119,o),
(466,119,cs),
(418,119,o),
(391,147,o),
(391,195,cs),
(391,239,o),
(407,288,o),
(448,308,c),
(432,232,l),
(515,232,l),
(567,478,l),
(484,478,l),
(467,398,l),
(347,370,o),
(299,258,o),
(299,160,cs),
(299,55,o),
(368,-15,o),
(479,-15,cs)
);
}
);
width = 805;
}
);
metricLeft = "nunavuth-canadian";
metricRight = "jeCarrier-canadian";
note = uni1618;
unicode = 5656;
},
{
color = 9;
glyphname = "jiCarrier-canadian";
lastChange = "2023-01-13 15:28:49 +0000";
layers = (
{
layerId = "D19189FD-F605-4705-8DF9-B27AB1AA0ED8";
shapes = (
{
closed = 1;
nodes = (
(698,-15,o),
(770,263,o),
(770,428,cs),
(770,611,o),
(680,729,o),
(524,729,cs),
(397,729,o),
(303,650,o),
(254,505,c),
(281,503,l),
(327,714,l),
(162,714,l),
(10,0,l),
(176,0,l),
(236,278,ls),
(278,473,o),
(364,579,o),
(483,579,cs),
(569,579,o),
(613,524,o),
(613,419,cs),
(613,318,o),
(575,119,o),
(466,119,cs),
(418,119,o),
(391,147,o),
(391,195,cs),
(391,222,o),
(398,255,o),
(417,275,c),
(431,266,o),
(448,259,o),
(468,259,cs),
(522,259,o),
(561,303,o),
(561,356,cs),
(561,411,o),
(521,451,o),
(467,451,cs),
(411,451,o),
(370,404,o),
(374,345,c),
(320,299,o),
(299,226,o),
(299,160,cs),
(299,55,o),
(368,-15,o),
(479,-15,cs)
);
}
);
width = 805;
}
);
metricLeft = "nunavuth-canadian";
metricRight = "jeCarrier-canadian";
note = uni1619;
unicode = 5657;
},
{
color = 9;
glyphname = "jiSayisi-canadian";
lastChange = "2023-01-13 15:28:49 +0000";
layers = (
{
layerId = "D19189FD-F605-4705-8DF9-B27AB1AA0ED8";
shapes = (
{
closed = 1;
nodes = (
(673,-15,o),
(787,301,o),
(787,497,cs),
(787,643,o),
(719,729,o),
(595,729,cs),
(437,729,o),
(364,584,o),
(364,463,cs),
(364,363,o),
(421,296,o),
(512,296,cs),
(529,296,o),
(543,298,o),
(552,301,c),
(580,431,l),
(573,430,o),
(568,430,o),
(563,430,cs),
(526,430,o),
(507,447,o),
(507,482,cs),
(507,516,o),
(526,595,o),
(580,595,cs),
(615,595,o),
(633,565,o),
(633,508,cs),
(633,415,o),
(586,135,o),
(404,135,cs),
(244,135,o),
(241,302,o),
(272,447,cs),
(328,714,l),
(162,714,l),
(10,0,l),
(175,0,l),
(226,245,l),
(201,247,l),
(182,104,o),
(257,-15,o),
(412,-15,cs)
);
}
);
width = 806;
}
);
metricLeft = "nunavuth-canadian";
metricRight = "jeCarrier-canadian";
note = uni161A;
unicode = 5658;
},
{
color = 9;
glyphname = "jaCarrier-canadian";
lastChange = "2023-01-13 15:28:49 +0000";
layers = (
{
anchors = (
{
name = top_center_can;
pos = (493,714);
}
);
layerId = "D19189FD-F605-4705-8DF9-B27AB1AA0ED8";
shapes = (
{
closed = 1;
nodes = (
(451,-14,o),
(546,64,o),
(595,208,c),
(567,212,l),
(522,1,l),
(687,1,l),
(839,715,l),
(673,715,l),
(612,431,ls),
(572,242,o),
(484,136,o),
(365,136,cs),
(280,136,o),
(237,190,o),
(237,295,cs),
(237,368,o),
(267,596,o),
(357,596,cs),
(389,596,o),
(407,575,o),
(407,540,cs),
(407,489,o),
(379,431,o),
(318,431,cs),
(311,431,o),
(304,431,o),
(299,432,c),
(273,302,l),
(294,299,o),
(310,297,o),
(326,297,cs),
(481,297,o),
(550,434,o),
(550,553,cs),
(550,662,o),
(483,729,o),
(371,729,cs),
(150,729,o),
(79,452,o),
(79,285,cs),
(79,103,o),
(169,-14,o),
(325,-14,cs)
);
}
);
width = 805;
}
);
metricLeft = "=|jeCarrier-canadian";
metricRight = "nunavuth-canadian";
note = uni161B;
unicode = 5659;
},
{
color = 9;
glyphname = "jjuCarrier-canadian";
lastChange = "2023-01-13 15:28:25 +0000";
layers = (
{
layerId = "D19189FD-F605-4705-8DF9-B27AB1AA0ED8";
shapes = (
{
closed = 1;
nodes = (
(572,-15,o),
(700,98,o),
(700,262,cs),
(700,366,o),
(632,437,o),
(524,437,cs),
(417,437,o),
(339,368,o),
(315,257,cs),
(310,235,o),
(307,213,o),
(307,191,c),
(439,191,l),
(440,200,o),
(442,218,o),
(446,235,cs),
(457,279,o),
(479,306,o),
(512,306,cs),
(540,306,o),
(555,287,o),
(555,255,cs),
(555,183,o),
(503,124,o),
(403,124,cs),
(293,124,o),
(234,182,o),
(234,280,cs),
(234,470,o),
(366,565,o),
(577,565,cs),
(756,565,l),
(787,714,l),
(596,714,ls),
(476,714,o),
(369,689,o),
(284,641,c),
(216,729,l),
(82,624,l),
(153,532,l),
(99,465,o),
(72,377,o),
(72,283,cs),
(72,110,o),
(195,-15,o),
(389,-15,cs)
);
}
);
width = 755;
}
);
metricRight = "=|yeCarrier-canadian";
note = uni161C;
unicode = 5660;
},
{
color = 9;
glyphname = "jjoCarrier-canadian";
lastChange = "2023-01-13 15:28:49 +0000";
layers = (
{
layerId = "D19189FD-F605-4705-8DF9-B27AB1AA0ED8";
shapes = (
{
closed = 1;
nodes = (
(718,90,l),
(646,182,l),
(700,249,o),
(727,337,o),
(727,431,cs),
(727,604,o),
(604,729,o),
(411,729,cs),
(228,729,o),
(99,616,o),
(99,452,cs),
(99,348,o),
(167,277,o),
(275,277,cs),
(383,277,o),
(461,346,o),
(485,457,cs),
(490,479,o),
(492,501,o),
(493,523,c),
(361,523,l),
(360,514,o),
(357,496,o),
(353,479,cs),
(343,435,o),
(321,408,o),
(288,408,cs),
(260,408,o),
(244,427,o),
(244,459,cs),
(244,531,o),
(297,590,o),
(397,590,cs),
(507,590,o),
(565,532,o),
(565,434,cs),
(565,244,o),
(433,149,o),
(222,149,cs),
(44,149,l),
(12,0,l),
(204,0,ls),
(323,0,o),
(430,25,o),
(516,73,c),
(584,-15,l)
);
}
);
width = 756;
}
);
metricLeft = "yeCarrier-canadian";
metricRight = "=|jjuCarrier-canadian";
note = uni161D;
unicode = 5661;
},
{
color = 9;
glyphname = "jjeCarrier-canadian";
lastChange = "2023-01-13 15:28:49 +0000";
layers = (
{
layerId = "D19189FD-F605-4705-8DF9-B27AB1AA0ED8";
shapes = (
{
closed = 1;
nodes = (
(713,-15,o),
(784,266,o),
(784,429,cs),
(784,617,o),
(685,729,o),
(502,729,cs),
(419,729,o),
(344,703,o),
(281,655,c),
(219,729,l),
(89,619,l),
(167,525,l),
(135,471,o),
(110,407,o),
(95,332,cs),
(24,0,l),
(190,0,l),
(256,310,ls),
(294,485,o),
(376,579,o),
(492,579,cs),
(582,579,o),
(626,525,o),
(626,419,cs),
(626,348,o),
(596,119,o),
(505,119,cs),
(474,119,o),
(456,140,o),
(456,175,cs),
(456,226,o),
(484,284,o),
(542,284,cs),
(550,284,o),
(557,284,o),
(564,283,c),
(590,413,l),
(576,416,o),
(554,418,o),
(537,418,cs),
(382,418,o),
(313,281,o),
(313,162,cs),
(313,54,o),
(379,-15,o),
(492,-15,cs)
);
}
);
width = 819;
}
);
metricRight = "jeCarrier-canadian";
note = uni161E;
unicode = 5662;
},
{
color = 9;
glyphname = "jjeeCarrier-canadian";
lastChange = "2023-01-13 15:28:49 +0000";
layers = (
{
layerId = "D19189FD-F605-4705-8DF9-B27AB1AA0ED8";
shapes = (
{
closed = 1;
nodes = (
(713,-15,o),
(784,266,o),
(784,429,cs),
(784,617,o),
(685,729,o),
(502,729,cs),
(419,729,o),
(344,703,o),
(281,655,c),
(219,729,l),
(89,619,l),
(167,525,l),
(135,471,o),
(110,407,o),
(95,332,cs),
(24,0,l),
(190,0,l),
(256,310,ls),
(294,485,o),
(376,579,o),
(492,579,cs),
(582,579,o),
(626,525,o),
(626,419,cs),
(626,341,o),
(598,119,o),
(482,119,cs),
(435,119,o),
(404,146,o),
(404,196,cs),
(404,246,o),
(422,291,o),
(461,309,c),
(445,232,l),
(528,232,l),
(580,476,l),
(497,476,l),
(480,397,l),
(365,372,o),
(313,265,o),
(313,162,cs),
(313,54,o),
(379,-15,o),
(492,-15,cs)
);
}
);
width = 819;
}
);
metricLeft = "jjeCarrier-canadian";
metricRight = "jeCarrier-canadian";
note = uni161F;
unicode = 5663;
},
{
color = 9;
glyphname = "jjiCarrier-canadian";
lastChange = "2023-01-13 15:28:49 +0000";
layers = (
{
layerId = "D19189FD-F605-4705-8DF9-B27AB1AA0ED8";
shapes = (
{
closed = 1;
nodes = (
(640,-15,o),
(732,114,o),
(770,299,cs),
(821,560,o),
(721,729,o),
(499,729,cs),
(415,729,o),
(341,704,o),
(279,657,c),
(219,729,l),
(89,619,l),
(167,527,l),
(134,472,o),
(110,407,o),
(94,332,cs),
(23,0,l),
(189,0,l),
(256,310,ls),
(293,485,o),
(375,579,o),
(492,579,cs),
(606,579,o),
(648,489,o),
(614,313,cs),
(590,197,o),
(554,119,o),
(479,119,cs),
(422,119,o),
(395,159,o),
(408,226,cs),
(411,248,o),
(418,269,o),
(434,280,c),
(449,267,o),
(469,259,o),
(492,259,cs),
(547,259,o),
(585,304,o),
(585,356,cs),
(585,410,o),
(544.998,451.004,o),
(491,451,cs),
(433,451,o),
(398,402,o),
(398,354,c),
(355,323,o),
(329,273,o),
(318,214,cs),
(291,78,o),
(364,-15,o),
(492,-15,cs)
);
}
);
width = 818;
}
);
metricLeft = "jjeCarrier-canadian";
metricRight = "jeCarrier-canadian";
note = uni1620;
unicode = 5664;
},
{
color = 9;
glyphname = "jjaCarrier-canadian";
lastChange = "2023-01-13 15:28:49 +0000";
layers = (
{
layerId = "D19189FD-F605-4705-8DF9-B27AB1AA0ED8";
shapes = (
{
closed = 1;
nodes = (
(442,-15,o),
(518,11,o),
(581,59,c),
(642,-15,l),
(772,95,l),
(694,189,l),
(726,243,o),
(751,307,o),
(767,382,cs),
(838,714,l),
(672,714,l),
(605,404,ls),
(568,229,o),
(485,135,o),
(369,135,cs),
(280,135,o),
(236,189,o),
(236,295,cs),
(236,366,o),
(266,595,o),
(356,595,cs),
(388,595,o),
(406,574,o),
(406,539,cs),
(406,488,o),
(378,430,o),
(320,430,cs),
(311,430,o),
(305,430,o),
(298,431,c),
(272,301,l),
(286,298,o),
(308,296,o),
(324,296,cs),
(480,296,o),
(549,433,o),
(549,552,cs),
(549,660,o),
(482,729,o),
(369,729,cs),
(149,729,o),
(78,448,o),
(78,285,cs),
(78,97,o),
(177,-15,o),
(360,-15,cs)
);
}
);
width = 818;
}
);
metricLeft = "=|jeCarrier-canadian";
metricRight = "=|jjeCarrier-canadian";
note = uni1621;
unicode = 5665;
},
{
color = 9;
glyphname = "luCarrier-canadian";
lastChange = "2023-01-13 15:28:25 +0000";
layers = (
{
layerId = "D19189FD-F605-4705-8DF9-B27AB1AA0ED8";
shapes = (
{
closed = 1;
nodes = (
(544,-15,o),
(663,88,o),
(704,279,cs),
(796,714,l),
(630,714,l),
(542,301,ls),
(519,192,o),
(460,135,o),
(371,135,cs),
(286,135,o),
(237,185,o),
(237,273,cs),
(237,403,o),
(319,562,o),
(472,581,c),
(501,714,l),
(152,714,l),
(122,577,l),
(310,577,l),
(448,628,l),
(217,621,o),
(71,462,o),
(71,257,cs),
(71,95,o),
(185,-15,o),
(366,-15,cs)
);
}
);
width = 756;
}
);
metricRight = "te-canadian";
note = uni1622;
unicode = 5666;
},
{
color = 9;
glyphname = "loCarrier-canadian";
lastChange = "2023-01-13 15:28:49 +0000";
layers = (
{
layerId = "D19189FD-F605-4705-8DF9-B27AB1AA0ED8";
shapes = (
{
closed = 1;
nodes = (
(169,0,l),
(256,413,ls),
(279,522,o),
(338,579,o),
(428,579,cs),
(513,579,o),
(561,529,o),
(561,441,cs),
(561,311,o),
(479,152,o),
(326,133,c),
(297,0,l),
(647,0,l),
(676,137,l),
(488,137,l),
(351,86,l),
(581,93,o),
(728,252,o),
(728,457,cs),
(728,619,o),
(613,729,o),
(433,729,cs),
(255,729,o),
(136,626,o),
(95,435,cs),
(3,0,l)
);
}
);
width = 754;
}
);
metricLeft = "te-canadian";
metricRight = "=|luCarrier-canadian";
note = uni1623;
unicode = 5667;
},
{
color = 9;
glyphname = "leCarrier-canadian";
lastChange = "2023-01-13 15:28:49 +0000";
layers = (
{
anchors = (
{
name = middle_center_can;
pos = (388,363);
}
);
layerId = "D19189FD-F605-4705-8DF9-B27AB1AA0ED8";
shapes = (
{
closed = 1;
nodes = (
(289,0,ls),
(638,0,o),
(722,257,o),
(722,439,cs),
(722,609,o),
(629,729,o),
(483,729,cs),
(386,729,o),
(305,676,o),
(267,588,c),
(280,587,l),
(307,714,l),
(158,714,l),
(89,387,l),
(229,387,l),
(264,511,o),
(333,579,o),
(424,579,cs),
(508,579,o),
(557,518,o),
(557,422,cs),
(557,287,o),
(484,149,o),
(300,149,cs),
(38,149,l),
(6,0,l)
);
}
);
width = 747;
}
);
metricRight = "theCarrier-canadian";
note = uni1624;
unicode = 5668;
},
{
color = 9;
glyphname = "laCarrier-canadian";
lastChange = "2023-01-13 15:28:25 +0000";
layers = (
{
layerId = "D19189FD-F605-4705-8DF9-B27AB1AA0ED8";
shapes = (
{
closed = 1;
nodes = (
(633,0,l),
(665,149,l),
(423,149,ls),
(295,149,o),
(237,204,o),
(237,305,cs),
(237,407,o),
(288,579,o),
(441,579,cs),
(539,579,o),
(590,506,o),
(575,387,c),
(716,387,l),
(785,714,l),
(636,714,l),
(604,565,l),
(616,562,l),
(606,664,o),
(533,729,o),
(426,729,cs),
(184,729,o),
(70,476,o),
(70,291,cs),
(70,109,o),
(185,0,o),
(398,0,cs)
);
}
);
width = 748;
}
);
metricLeft = "=|theCarrier-canadian";
metricRight = "=|leCarrier-canadian";
note = uni1627;
unicode = 5671;
},
{
color = 1;
glyphname = "dluCarrier-canadian";
lastChange = "2023-01-13 15:28:25 +0000";
layers = (
{
layerId = "D19189FD-F605-4705-8DF9-B27AB1AA0ED8";
shapes = (
{
closed = 1;
nodes = (
(620,-15,o),
(710,218,o),
(710,380,cs),
(710,521,o),
(628,609,o),
(477,638,c),
(543,589,l),
(748,589,l),
(731,510,l),
(851,510,l),
(912,793,l),
(791,793,l),
(774,714,l),
(450,714,l),
(422,581,l),
(506,566,o),
(553,505,o),
(553,409,cs),
(553,312,o),
(508,135,o),
(358,135,cs),
(258,135,o),
(214,205,o),
(239,324,cs),
(321,714,l),
(155,714,l),
(73,328,ls),
(29,119,o),
(138,-15,o),
(348,-15,cs)
);
}
);
width = 830;
}
);
metricLeft = "te-canadian";
note = uni1628;
unicode = 5672;
},
{
color = 9;
glyphname = "dloCarrier-canadian";
lastChange = "2023-01-13 15:28:49 +0000";
layers = (
{
layerId = "D19189FD-F605-4705-8DF9-B27AB1AA0ED8";
shapes = (
{
closed = 1;
nodes = (
(725,-79,l),
(786,204,l),
(665,204,l),
(648,125,l),
(482,125,l),
(469,108,l),
(618,143,o),
(728,272,o),
(728,457,cs),
(728,619,o),
(613,729,o),
(433,729,cs),
(255,729,o),
(136,626,o),
(95,435,cs),
(3,0,l),
(169,0,l),
(256,413,ls),
(279,522,o),
(338,579,o),
(428,579,cs),
(513,579,o),
(561,529,o),
(561,441,cs),
(561,311,o),
(479,152,o),
(326,133,c),
(297,0,l),
(622,0,l),
(605,-79,l)
);
}
);
width = 829;
}
);
metricLeft = "te-canadian";
metricRight = "dluCarrier-canadian";
note = uni1629;
unicode = 5673;
},
{
color = 9;
glyphname = "dleCarrier-canadian";
lastChange = "2023-01-13 15:28:49 +0000";
layers = (
{
anchors = (
{
name = middle_center_can;
pos = (404,363);
}
);
layerId = "D19189FD-F605-4705-8DF9-B27AB1AA0ED8";
shapes = (
{
closed = 1;
nodes = (
(304,0,ls),
(653,0,o),
(737,257,o),
(737,439,cs),
(737,609,o),
(644,729,o),
(498,729,cs),
(394,729,o),
(280,656,o),
(234,538,c),
(247,539,l),
(285,718,l),
(372,718,l),
(396,834,l),
(121,834,l),
(97,718,l),
(174,718,l),
(104,387,l),
(244,387,l),
(279,511,o),
(348,579,o),
(439,579,cs),
(523,579,o),
(572,518,o),
(572,422,cs),
(572,287,o),
(499,149,o),
(315,149,cs),
(53,149,l),
(21,0,l)
);
}
);
width = 762;
}
);
metricRight = "theCarrier-canadian";
note = uni162A;
unicode = 5674;
},
{
color = 9;
glyphname = "dlaCarrier-canadian";
lastChange = "2023-01-13 15:28:25 +0000";
layers = (
{
layerId = "D19189FD-F605-4705-8DF9-B27AB1AA0ED8";
shapes = (
{
closed = 1;
nodes = (
(633,0,l),
(665,149,l),
(423,149,ls),
(295,149,o),
(237,204,o),
(237,305,cs),
(237,407,o),
(288,579,o),
(441,579,cs),
(539,579,o),
(590,506,o),
(575,387,c),
(716,387,l),
(786,718,l),
(863,718,l),
(888,834,l),
(612,834,l),
(588,718,l),
(666,718,l),
(632,560,l),
(643,557,l),
(633,664,o),
(533,729,o),
(426,729,cs),
(184,729,o),
(70,476,o),
(70,291,cs),
(70,109,o),
(185,0,o),
(398,0,cs)
);
}
);
width = 763;
}
);
metricLeft = "=|theCarrier-canadian";
metricRight = "=|dleCarrier-canadian";
note = uni162D;
unicode = 5677;
},
{
color = 9;
glyphname = "lhuCarrier-canadian";
lastChange = "2023-01-13 15:28:49 +0000";
layers = (
{
layerId = "D19189FD-F605-4705-8DF9-B27AB1AA0ED8";
shapes = (
{
closed = 1;
nodes = (
(609,-15,o),
(730,175,o),
(730,371,cs),
(730,507,o),
(659,607,o),
(540,629,c),
(600,574,l),
(788,574,l),
(817,714,l),
(540,714,l),
(512,581,l),
(551,551,o),
(572,492,o),
(572,422,cs),
(572,313,o),
(523,135,o),
(382,135,cs),
(294,135,o),
(244,189,o),
(244,283,cs),
(244,375,o),
(291,528,o),
(399,581,c),
(428,714,l),
(151,714,l),
(121,574,l),
(310,574,l),
(394,632,l),
(193,606,o),
(77,441,o),
(77,262,cs),
(77,96,o),
(194,-15,o),
(380,-15,cs)
);
}
);
width = 773;
}
);
metricLeft = "luCarrier-canadian";
metricRight = "=|";
note = uni162E;
unicode = 5678;
},
{
color = 9;
glyphname = "lhoCarrier-canadian";
lastChange = "2023-01-13 15:28:49 +0000";
layers = (
{
layerId = "D19189FD-F605-4705-8DF9-B27AB1AA0ED8";
shapes = (
{
closed = 1;
nodes = (
(277,0,l),
(305,133,l),
(266,163,o),
(245,222,o),
(245,292,cs),
(245,401,o),
(294,579,o),
(435,579,cs),
(523,579,o),
(573,525,o),
(573,431,cs),
(573,339,o),
(526,186,o),
(418,133,c),
(389,0,l),
(666,0,l),
(696,140,l),
(507,140,l),
(423,82,l),
(624,108,o),
(739,273,o),
(739,452,cs),
(739,618,o),
(623,729,o),
(437,729,cs),
(208,729,o),
(87,539,o),
(87,343,cs),
(87,207,o),
(158,107,o),
(277,85,c),
(217,140,l),
(29,140,l),
(0,0,l)
);
}
);
width = 773;
}
);
metricLeft = "luCarrier-canadian";
metricRight = "=|";
note = uni162F;
unicode = 5679;
},
{
color = 9;
glyphname = "lheCarrier-canadian";
lastChange = "2023-01-13 15:28:49 +0000";
layers = (
{
anchors = (
{
name = middle_center_can;
pos = (401,357);
}
);
layerId = "D19189FD-F605-4705-8DF9-B27AB1AA0ED8";
shapes = (
{
closed = 1;
nodes = (
(636,-15,o),
(745,244,o),
(745,435,cs),
(745,611,o),
(649,729,o),
(496,729,cs),
(400,729,o),
(319,681,o),
(279,599,c),
(287,598,l),
(311,714,l),
(162,714,l),
(100,422,l),
(240,422,l),
(283,527,o),
(351,579,o),
(436,579,cs),
(528,579,o),
(580,520,o),
(580,419,cs),
(580,305,o),
(515,135,o),
(372,135,cs),
(278,135,o),
(218,196,o),
(213,292,c),
(73,292,l),
(11,0,l),
(159,0,l),
(191,149,l),
(172,146,l),
(190,49,o),
(278,-15,o),
(398,-15,cs)
);
}
);
width = 770;
}
);
metricLeft = "nunavuth-canadian";
metricRight = "theCarrier-canadian";
note = uni1630;
unicode = 5680;
},
{
color = 9;
glyphname = "lhaCarrier-canadian";
lastChange = "2023-01-13 15:28:49 +0000";
layers = (
{
layerId = "D19189FD-F605-4705-8DF9-B27AB1AA0ED8";
shapes = (
{
closed = 1;
nodes = (
(413,-15,o),
(494,33,o),
(534,115,c),
(526,116,l),
(501,0,l),
(650,0,l),
(713,292,l),
(572,292,l),
(530,187,o),
(461,135,o),
(377,135,cs),
(285,135,o),
(233,194,o),
(233,295,cs),
(233,409,o),
(298,579,o),
(441,579,cs),
(535,579,o),
(595,518,o),
(599,422,c),
(740,422,l),
(802,714,l),
(653,714,l),
(622,565,l),
(641,568,l),
(623,665,o),
(535,729,o),
(418,729,cs),
(177,729,o),
(68,470,o),
(68,279,cs),
(68,103,o),
(164,-15,o),
(317,-15,cs)
);
}
);
width = 769;
}
);
metricLeft = "=|theCarrier-canadian";
metricRight = "nunavuth-canadian";
note = uni1633;
unicode = 5683;
},
{
color = 9;
glyphname = "tlhuCarrier-canadian";
lastChange = "2023-01-13 15:28:49 +0000";
layers = (
{
layerId = "D19189FD-F605-4705-8DF9-B27AB1AA0ED8";
shapes = (
{
closed = 1;
nodes = (
(609,-15,o),
(730,175,o),
(730,371,cs),
(730,497,o),
(684,601,o),
(565,629,c),
(567,589,l),
(766,589,l),
(748,510,l),
(869,510,l),
(929,793,l),
(809,793,l),
(791,714,l),
(540,714,l),
(512,581,l),
(551,551,o),
(572,492,o),
(572,422,cs),
(572,313,o),
(523,135,o),
(382,135,cs),
(294,135,o),
(244,189,o),
(244,283,cs),
(244,375,o),
(291,528,o),
(399,581,c),
(428,714,l),
(151,714,l),
(121,574,l),
(312,574,l),
(368,623,l),
(153,584,o),
(77,403,o),
(77,262,cs),
(77,96,o),
(194,-15,o),
(380,-15,cs)
);
}
);
width = 843;
}
);
metricLeft = "lhuCarrier-canadian";
note = uni1634;
unicode = 5684;
},
{
color = 9;
glyphname = "tlhoCarrier-canadian";
lastChange = "2023-01-13 15:28:49 +0000";
layers = (
{
layerId = "D19189FD-F605-4705-8DF9-B27AB1AA0ED8";
shapes = (
{
closed = 1;
nodes = (
(78,-79,l),
(95,0,l),
(346,0,l),
(374,133,l),
(335,163,o),
(314,222,o),
(314,292,cs),
(314,401,o),
(363,579,o),
(504,579,cs),
(592,579,o),
(642,525,o),
(642,431,cs),
(642,339,o),
(595,186,o),
(487,133,c),
(458,0,l),
(735,0,l),
(765,140,l),
(574,140,l),
(517,91,l),
(733,130,o),
(808,311,o),
(808,452,cs),
(808,618,o),
(691,729,o),
(506,729,cs),
(277,729,o),
(156,539,o),
(156,343,cs),
(156,217,o),
(202,113,o),
(321,85,c),
(319,125,l),
(121,125,l),
(138,204,l),
(18,204,l),
(-43,-79,l)
);
}
);
width = 842;
}
);
metricLeft = "=|tlhuCarrier-canadian";
metricRight = "lhuCarrier-canadian";
note = uni1635;
unicode = 5685;
},
{
color = 9;
glyphname = "tlheCarrier-canadian";
lastChange = "2023-01-13 15:28:49 +0000";
layers = (
{
anchors = (
{
name = middle_center_can;
pos = (413,357);
}
);
layerId = "D19189FD-F605-4705-8DF9-B27AB1AA0ED8";
shapes = (
{
closed = 1;
nodes = (
(647,-15,o),
(757,244,o),
(757,435,cs),
(757,611,o),
(660,729,o),
(507,729,cs),
(385,729,o),
(286,653,o),
(235,533,c),
(265,564,l),
(297,718,l),
(374,718,l),
(399,834,l),
(122,834,l),
(97,718,l),
(175,718,l),
(112,422,l),
(252,422,l),
(294,527,o),
(363,579,o),
(447,579,cs),
(539,579,o),
(592,520,o),
(592,419,cs),
(592,305,o),
(527,135,o),
(383,135,cs),
(289,135,o),
(229,196,o),
(225,292,c),
(84,292,l),
(22,0,l),
(171,0,l),
(202,149,l),
(183,146,l),
(201,49,o),
(290,-15,o),
(409,-15,cs)
);
}
);
width = 782;
}
);
metricLeft = "dleCarrier-canadian";
metricRight = "theCarrier-canadian";
note = uni1636;
unicode = 5686;
},
{
color = 9;
glyphname = "tlhaCarrier-canadian";
lastChange = "2023-01-13 15:28:49 +0000";
layers = (
{
layerId = "D19189FD-F605-4705-8DF9-B27AB1AA0ED8";
shapes = (
{
closed = 1;
nodes = (
(413,-15,o),
(495,33,o),
(534,115,c),
(526,116,l),
(502,0,l),
(651,0,l),
(713,292,l),
(573,292,l),
(531,187,o),
(462,135,o),
(377,135,cs),
(285,135,o),
(233,194,o),
(233,295,cs),
(233,409,o),
(298,579,o),
(441,579,cs),
(536,579,o),
(595,518,o),
(600,422,c),
(741,422,l),
(804,718,l),
(881,718,l),
(906,834,l),
(629,834,l),
(604,718,l),
(681,718,l),
(647,559,l),
(655,558,l),
(630,669,o),
(538,729,o),
(418,729,cs),
(177,729,o),
(68,470,o),
(68,279,cs),
(68,103,o),
(164,-15,o),
(317,-15,cs)
);
}
);
width = 781;
}
);
metricLeft = "=|theCarrier-canadian";
metricRight = "=|dleCarrier-canadian";
note = uni1639;
unicode = 5689;
},
{
color = 9;
glyphname = "tluCarrier-canadian";
lastChange = "2023-01-13 15:28:25 +0000";
layers = (
{
layerId = "D19189FD-F605-4705-8DF9-B27AB1AA0ED8";
shapes = (
{
closed = 1;
nodes = (
(342,-15,o),
(409,27,o),
(454,107,c),
(401,109,l),
(424,28,o),
(486,-15,o),
(579,-15,cs),
(794,-15,o),
(854,232,o),
(854,377,cs),
(854,495,o),
(807,576,o),
(722,613,c),
(687,589,l),
(895,589,l),
(878,510,l),
(998,510,l),
(1058,793,l),
(938,793,l),
(921,714,l),
(606,714,l),
(577,581,l),
(658,568,o),
(698,516,o),
(698,418,cs),
(698,341,o),
(667,131,o),
(575,131,cs),
(531,131,o),
(513,163,o),
(525,220,cs),
(546,321,l),
(386,321,l),
(365,221,ls),
(353,160,o),
(328,131,o),
(287,131,cs),
(248,131,o),
(228,157,o),
(228,211,cs),
(228,319,o),
(295,576,o),
(464,581,c),
(493,714,l),
(152,714,l),
(122,574,l),
(320,574,l),
(291,600,l),
(133,530,o),
(63,352,o),
(63,201,cs),
(63,67,o),
(135,-15,o),
(257,-15,cs)
);
}
);
width = 972;
}
);
metricRight = "tlhuCarrier-canadian";
note = uni163A;
unicode = 5690;
},
{
color = 1;
glyphname = "tloCarrier-canadian";
lastChange = "2023-01-13 15:28:25 +0000";
layers = (
{
layerId = "D19189FD-F605-4705-8DF9-B27AB1AA0ED8";
shapes = (
{
closed = 1;
nodes = (
(873,-79,l),
(933,204,l),
(813,204,l),
(796,125,l),
(607,125,l),
(635,102,l),
(804,166,o),
(884,351,o),
(884,513,cs),
(884,647,o),
(812,729,o),
(691,729,cs),
(605,729,o),
(538,687,o),
(494,607,c),
(547,605,l),
(523,686,o),
(462,729,o),
(368,729,cs),
(153,729,o),
(93,482,o),
(93,337,cs),
(93,230,o),
(133,152,o),
(203,112,c),
(243,140,l),
(30,140,l),
(1,0,l),
(342,0,l),
(370,133,l),
(289,146,o),
(249,198,o),
(249,296,cs),
(249,373,o),
(280,583,o),
(372,583,cs),
(416,583,o),
(434,551,o),
(422,494,cs),
(401,393,l),
(561,393,l),
(582,493,ls),
(594,554,o),
(620,583,o),
(660,583,cs),
(699,583,o),
(719,557,o),
(719,503,cs),
(719,395,o),
(652,138,o),
(483,133,c),
(454,0,l),
(770,0,l),
(753,-79,l)
);
}
);
width = 972;
}
);
metricLeft = "tluCarrier-canadian";
metricRight = "tlhuCarrier-canadian";
note = uni163B;
unicode = 5691;
},
{
color = 9;
glyphname = "tleCarrier-canadian";
lastChange = "2023-01-13 15:28:49 +0000";
layers = (
{
anchors = (
{
name = middle_center_can;
pos = (346,357);
}
);
layerId = "D19189FD-F605-4705-8DF9-B27AB1AA0ED8";
shapes = (
{
closed = 1;
nodes = (
(575,-15,o),
(701,78,o),
(701,229,cs),
(701,304,o),
(663,363,o),
(599,378,c),
(590,338,l),
(696,355,o),
(769,443,o),
(769,545,cs),
(769,652,o),
(679,729,o),
(541,729,cs),
(422,729,o),
(319,674,o),
(257,576,c),
(264,574,l),
(294,718,l),
(373,718,l),
(397,834,l),
(122,834,l),
(97,718,l),
(174,718,l),
(111,422,l),
(250,422,l),
(287,527,o),
(365,581,o),
(479,581,cs),
(556,581,o),
(599,554,o),
(599,508,cs),
(599,451,o),
(553,425,o),
(492,425,cs),
(451,425,l),
(422,290,l),
(463,290,ls),
(513,290,o),
(541,271,o),
(541,234,cs),
(541,165,o),
(479,133,o),
(400,133,cs),
(281,133,o),
(217,189,o),
(223,292,c),
(84,292,l),
(22,0,l),
(171,0,l),
(200,139,l),
(181,137,l),
(198,43,o),
(290,-15,o),
(417,-15,cs)
);
}
);
width = 773;
}
);
metricLeft = "dleCarrier-canadian";
metricRight = "geCarrier-canadian";
note = uni163C;
unicode = 5692;
},
{
color = 9;
glyphname = "tlaCarrier-canadian";
lastChange = "2023-01-13 15:28:49 +0000";
layers = (
{
layerId = "D19189FD-F605-4705-8DF9-B27AB1AA0ED8";
shapes = (
{
closed = 1;
nodes = (
(387,-15,o),
(483,32,o),
(546,115,c),
(528,152,l),
(495,0,l),
(645,0,l),
(707,292,l),
(568,292,l),
(531,187,o),
(453,133,o),
(339,133,cs),
(261,133,o),
(219,160,o),
(219,206,cs),
(219,263,o),
(264,289,o),
(325,289,cs),
(367,289,l),
(396,424,l),
(355,424,ls),
(305,424,o),
(277,443,o),
(277,480,cs),
(277,549,o),
(338,581,o),
(418,581,cs),
(537,581,o),
(601,525,o),
(596,422,c),
(735,422,l),
(797,718,l),
(874,718,l),
(899,834,l),
(623,834,l),
(598,718,l),
(677,718,l),
(632,505,l),
(657,529,l),
(647,653,o),
(547,729,o),
(400,729,cs),
(242,729,o),
(116,636,o),
(116,485,cs),
(116,412,o),
(154,353,o),
(215,337,c),
(224,375,l),
(120,356,o),
(48,270,o),
(48,169,cs),
(48,62,o),
(139,-15,o),
(277,-15,cs)
);
}
);
width = 774;
}
);
metricLeft = "=|geCarrier-canadian";
metricRight = "=|dleCarrier-canadian";
note = uni163F;
unicode = 5695;
},
{
color = 9;
glyphname = "zuCarrier-canadian";
lastChange = "2023-01-13 15:28:25 +0000";
layers = (
{
layerId = "D19189FD-F605-4705-8DF9-B27AB1AA0ED8";
shapes = (
{
closed = 1;
nodes = (
(574,-14,o),
(714,99,o),
(714,300,cs),
(714,371,o),
(695,440,o),
(695,499,cs),
(695,543,o),
(713,572,o),
(762,572,cs),
(790,572,l),
(820,714,l),
(761,714,ls),
(614,714,o),
(538,646,o),
(538,505,cs),
(538,441,o),
(555,378,o),
(555,308,cs),
(555,200,o),
(490,135,o),
(380,135,cs),
(289,135,o),
(235,178,o),
(235,246,cs),
(235,354,o),
(360,451,o),
(360,577,cs),
(360,660,o),
(301,714,o),
(205,714,cs),
(151,714,l),
(121,572,l),
(157,572,ls),
(187,572,o),
(198,561,o),
(198,540,cs),
(198,479,o),
(70,377,o),
(70,219,cs),
(70,81,o),
(186,-14,o),
(367,-14,cs)
);
}
);
width = 776;
}
);
metricRight = "=|";
note = uni1640;
unicode = 5696;
},
